<svg width="28" height="28" viewBox="0 0 28 28" fill="none" xmlns="http://www.w3.org/2000/svg">
<rect x="0.5" y="0.5" width="27" height="27" stroke="black"/>
<path d="M4.8 1H23.2C24.0566 1 24.6389 1.00078 25.089 1.03755C25.5274 1.07337 25.7516 1.1383 25.908 1.21799C26.2843 1.40973 26.5903 1.71569 26.782 2.09202C26.8617 2.24842 26.9266 2.47262 26.9624 2.91104C26.9992 3.36113 27 3.94342 27 4.8V23.2C27 24.0566 26.9992 24.6389 26.9624 25.089C26.9266 25.5274 26.8617 25.7516 26.782 25.908C26.5903 26.2843 26.2843 26.5903 25.908 26.782C25.7516 26.8617 25.5274 26.9266 25.089 26.9624C24.6389 26.9992 24.0566 27 23.2 27H4.8C3.94342 27 3.36113 26.9992 2.91104 26.9624C2.47262 26.9266 2.24842 26.8617 2.09202 26.782C1.71569 26.5903 1.40973 26.2843 1.21799 25.908C1.1383 25.7516 1.07337 25.5274 1.03755 25.089C1.00078 24.6389 1 24.0566 1 23.2V4.8C1 3.94342 1.00078 3.36113 1.03755 2.91104C1.07337 2.47262 1.1383 2.24842 1.21799 2.09202C1.40973 1.71569 1.71569 1.40973 2.09202 1.21799C2.24842 1.1383 2.47262 1.07337 2.91104 1.03755C3.36113 1.00078 3.94342 1 4.8 1Z" stroke="#3B3B3B" stroke-width="2"/>
<rect x="4.5" y="4.5" width="19" height="19" stroke="black"/>
<path d="M4 8.8C4 7.11984 4 6.27976 4.32698 5.63803C4.6146 5.07354 5.07354 4.6146 5.63803 4.32698C6.27976 4 7.11984 4 8.8 4H19.2C20.8802 4 21.7202 4 22.362 4.32698C22.9265 4.6146 23.3854 5.07354 23.673 5.63803C24 6.27976 24 7.11984 24 8.8V19.2C24 20.8802 24 21.7202 23.673 22.362C23.3854 22.9265 22.9265 23.3854 22.362 23.673C21.7202 24 20.8802 24 19.2 24H8.8C7.11984 24 6.27976 24 5.63803 23.673C5.07354 23.3854 4.6146 22.9265 4.32698 22.362C4 21.7202 4 20.8802 4 19.2V8.8Z" fill="#F48096" fill-opacity="0.4"/>
</svg>
