<svg width="964" height="714" viewBox="0 0 964 714" fill="none" xmlns="http://www.w3.org/2000/svg">
<path d="M731.74 334.34C731.7 334.25 731.65 334.16 731.61 334.07C733.57 329.79 734.13 324.86 732.71 319.88C728.7 305.8 722.9 292.11 715.55 279.45C712.27 273.79 706.15 269.99 699.69 269.03C699.43 268.3 699.11 267.58 698.77 266.88C698.62 265.12 698.26 263.43 697.71 261.81C697.27 250.2 694.3 239.59 689.25 229.09C684.62 219.46 671.53 216.44 662.4 220.29C662.29 220.34 662.18 220.4 662.07 220.45C660.71 220.29 659.35 220.18 657.97 220.15C657.58 220.15 657.27 220.15 657.03 220.15C656.83 220.08 656.67 220.02 656.52 219.97C654.05 218.48 651.6 216.99 649.15 215.44C641.58 210.65 633.09 207.43 624.02 207.42C615.47 207.41 606.62 209.82 598.24 211.38C594.12 212.15 590 212.95 585.87 213.65C585.45 213.72 585.03 213.79 584.61 213.85C584.44 213.86 584.21 213.88 583.88 213.92C581.67 213.91 579.31 214 577.1 214.11C576.63 214.08 576.16 214.05 575.7 214.02C575.64 214.01 575.58 214 575.52 213.99C573.72 213.56 571.92 213.21 570.14 212.72C566.57 211.75 563.06 210.54 559.56 209.33C551.99 206.71 544.45 203.99 536.93 201.21C536.3 200.98 535.66 200.79 535.01 200.64C533.84 199.18 532.67 197.74 531.52 196.27C527.95 191.7 521.93 189.76 515.94 190.01C514.98 186.5 514.06 182.98 513.22 179.43C513.03 178.24 512.76 177.04 512.36 175.8C508.91 165.12 497.3 157.1 485.91 160.78C477.89 163.38 472.47 169.5 470.82 176.95L469.83 178.13C468.14 180.13 466.45 182.13 464.76 184.13C464.45 184.12 464.15 184.1 463.83 184.1H463.24C459.18 183.95 455.39 184.79 451.87 186.64C448.43 187.76 445.42 189.64 442.85 192.26C440.73 191.35 438.55 190.67 436.33 190.18C435.71 190.43 435.09 190.67 434.45 190.88C431.72 192.31 428.85 193.21 425.84 193.61C425.8 193.58 425.78 193.53 425.74 193.5C424.27 192.15 422.7 191.53 420.81 191.25C418.18 189.89 414.66 190.5 412.32 192.36C410.55 192.94 408.7 194.3 407.84 195.94C407.77 196.08 407.71 196.22 407.64 196.37C406.45 197.26 405.3 198.22 404.2 199.29C396.04 207.21 388.79 216.44 383.1 226.35C380.52 229.93 378.55 233.89 377.72 237.52C377.51 238.44 377.34 239.35 377.19 240.27C375.82 244.42 374.93 248.62 374.65 252.84C371.36 253.97 368.9 254.38 366.31 256.14C365.78 256.42 364.84 257.72 364.33 258.02C353.53 264.36 345.35 276.28 344.14 288.92C343.71 290.02 343.3 291.13 342.91 292.25C334.99 306.2 329.92 321.4 328.9 337.56C328.03 351.32 332.53 363.3 337.81 375.27C336.84 377.74 336.34 380.34 336.33 383.08C336.33 383.67 336.33 384.25 336.33 384.84C336.15 387.5 336.37 390.37 337.1 392.46C337.77 395.26 339.05 397.7 340.95 399.77C341.06 399.94 341.19 400.08 341.3 400.24C341.53 407.55 341.59 414.87 341.44 422.2C340 434.61 340.8 446.88 343.74 458.82C343.15 465.91 344.17 473.5 348.31 479.1C349.83 481.16 351.37 483.2 352.93 485.22C354.05 489.16 355.75 493.01 358.07 496.64C362.28 503.25 368.04 509.24 373.39 514.98C381.77 523.98 390.62 532.53 399.9 540.6C420.03 558.12 441.81 573.93 465.01 587.12C472.25 591.23 482.4 593.2 490.7 591.01C496.63 592.71 503.05 593.1 509.37 593.2C511.93 593.24 514.45 593.17 516.94 592.99C519.52 594.16 522.39 594.73 525.45 594.43C535.53 593.45 545.22 592.25 554.64 589.62C558.95 591.59 563.94 592.15 569.03 590.83C572.26 589.99 575.47 589.06 578.66 588.04C588.16 585.33 597.34 581.52 606.01 576.77C606.53 576.5 607.06 576.25 607.58 575.98C624.31 570.67 639.06 559.81 652.6 549.02C665.36 538.84 678.31 528.11 689.87 516.58C704.01 502.47 719.26 481.36 717.08 460.34C718.22 455.27 719.12 450.15 719.88 445.01C721.34 435.1 722.47 425.16 723.5 415.2C724.27 407.78 724.89 400.4 724.55 392.99C724.75 391.91 724.86 390.8 724.88 389.69C724.92 389.32 724.93 388.96 724.95 388.6C725.26 386.5 725.23 384.4 724.9 382.37C725.93 380.07 726.84 377.71 727.53 375.31C728.64 371.5 729.2 367.52 729.65 363.56C730.93 361.69 731.91 359.58 732.46 357.26C733.42 353.18 733.94 348.97 734.32 344.8C734.65 341.15 733.63 337.56 731.76 334.38L731.74 334.34Z" fill="#FFE1C4"/>
<path d="M306.62 133.55C319.44 118.16 326.71 102.17 311.79 89.8201C279.71 82.5201 239.87 116.43 232.02 147.68C219.21 182.78 246.87 224.62 265.66 177.95C268.06 172.18 276.88 163.84 286.74 154.29C287.83 154.59 288.96 154.74 290.14 154.69C291.42 154.52 292.71 154.34 293.99 154.17C294.47 154.04 294.92 153.86 295.37 153.69C295.47 153.66 295.56 153.62 295.65 153.59C295.7 153.57 295.76 153.55 295.81 153.53C296.58 153.25 297.33 152.9 298.05 152.45C300.23 151.46 302.59 148.86 303.79 146.83C303.96 146.55 304.1 146.27 304.25 146C304.51 145.65 304.76 145.31 305.02 144.96C306.08 143.3 306.65 141.5 306.74 139.57C306.89 138.9 306.95 138.23 306.98 137.56C307.11 136.22 306.98 134.89 306.62 133.55Z" fill="#FFE1C4"/>
<path d="M818.96 123.89C813.82 116.81 807.92 110.88 800.57 106.06C797.11 103.79 793.38 102.03 789.58 100.4C784.69 98.3 779.9 95.78 774.47 95.73C772.84 95.71 771.24 96.02 769.72 96.56C765.83 94.69 761.4 93.98 756.89 94.37C747.56 95.18 740.34 102.98 742.91 112.72C743.88 116.38 745.98 119.66 749.11 121.8C749.16 122.86 749.33 123.92 749.66 124.96C751.95 132.27 752.47 138.25 751.65 146.14C751 152.37 756.61 158.56 762.3 160.12C765.62 161.03 769.28 160.62 772.42 159.15C772.62 159.28 772.83 159.39 773.04 159.51C773.51 160.17 774.03 160.79 774.63 161.35C779.3 165.8 783.76 170.46 787.92 175.4C790.95 178.98 794.91 182.95 796.11 187.5C796.53 189.08 797.2 190.51 798.07 191.77C800.05 196.27 804.08 199.64 809.3 200.26C816.24 201.09 823.44 197 825.21 189.87C825.54 188.53 825.84 187.19 826.13 185.84C829.85 183.54 832.55 179.48 832.75 173.91C833.38 156.47 829.34 138.16 818.97 123.87L818.96 123.89Z" fill="#FFE1C4"/>
<path d="M804.69 692.601C805.25 686.191 803.3 679.661 798.19 674.941C794.92 671.921 791.66 668.911 788.39 665.891C785.56 662.431 782.1 659.471 778.22 657.201C777.14 656.571 776.03 656.061 774.9 655.631C773.88 653.631 772.54 651.721 770.89 649.971C752.99 630.961 731.18 615.231 707.28 604.691C701.42 602.111 695.99 600.601 689.56 602.371C684.22 603.841 678.44 607.961 675.81 612.941C673.33 617.631 672.41 623.701 673.34 629.351C673.07 629.701 672.8 630.041 672.53 630.391C672.46 630.461 672.38 630.531 672.27 630.631C671.51 631.351 670.85 632.191 670.11 632.941C669.36 633.681 668.58 634.371 667.79 635.061C667.27 635.361 666.42 636.111 666.16 636.291C664.61 637.331 663.03 638.311 661.42 639.251C658.41 641.011 655.3 642.611 652.17 644.161C650.6 644.941 649.02 645.711 647.43 646.441C647.26 646.521 646.92 646.721 646.54 646.931C646.32 646.991 646.04 647.091 645.67 647.221C642.06 648.531 638.45 649.721 634.68 650.531C634.38 650.591 633.53 650.761 632.67 650.931C633.17 650.821 631.35 651.131 630.91 651.151C629.4 651.231 627.89 651.371 626.37 651.431C618.42 651.771 610.46 651.321 602.51 651.021C592.1 650.631 582 650.941 571.66 652.391C567.34 653.001 563.11 653.921 558.87 654.901C556.43 655.461 553.99 655.991 551.54 656.471C551.01 656.581 548.06 657.351 550.91 656.601C553.95 655.791 548.91 656.571 548.39 656.581C540.91 656.741 533.61 660.731 529.3 666.761C526.9 665.881 524.3 665.391 521.54 665.371C516.26 665.341 510.98 665.141 505.72 664.691C504.17 664.561 502.63 664.381 501.08 664.241C499.79 664.121 499.44 664.121 499.62 664.161C497.52 663.871 495.41 663.401 493.37 663.021C482.66 661.041 472.19 658.101 461.96 654.361C457.15 652.601 451.79 653.181 447.02 655.301C445.25 655.171 443.49 655.051 441.72 654.931C441.22 653.511 440.54 652.121 439.63 650.811C434.78 643.791 429.07 640.111 420.98 638.191C417.45 637.361 413.96 636.341 410.54 635.161C409.08 634.661 407.65 634.091 406.2 633.571C405.64 633.321 405.08 633.071 404.52 632.811C401.47 631.381 398.49 629.811 395.58 628.111C392.67 626.411 389.83 624.591 387.08 622.651C386.49 622.241 385.92 621.811 385.34 621.391C384.22 620.441 383.08 619.521 381.98 618.551C379.26 616.151 376.65 613.631 374.18 610.981C373.12 609.841 372.08 608.691 371.07 607.511C370.2 606.501 365.82 600.821 369.81 606.101C364.75 599.411 358.81 594.711 349.95 594.711C345.99 594.711 341.96 595.801 338.45 597.781C334.06 597.801 329.26 598.521 325.11 600.391C324.72 600.551 324.34 600.731 323.97 600.921C322.76 599.301 321.08 597.901 319.08 597.491C318.23 597.321 317.38 597.111 316.51 597.141C316.01 597.161 314.49 597.341 314 597.471C313.94 597.471 313.89 597.491 313.83 597.521C313.11 597.821 312.4 598.121 311.68 598.431C311.28 598.681 310.97 598.951 310.57 599.261C309.7 599.931 309.68 599.901 309.35 600.331C309.01 599.601 309 599.611 309.32 600.361C309.3 600.391 309.27 600.421 309.25 600.451C309.03 599.721 308.81 598.871 308.61 598.021C307.17 598.911 305.46 599.441 303.5 599.441H299.7C298.07 599.441 296.46 603.711 295.22 603.171C293.47 603.121 291.89 598.521 290.19 598.301C288.74 598.111 287.38 597.761 286.15 597.241C283.88 597.771 281.45 597.411 279.2 595.731C277.42 594.401 275.63 593.071 273.85 591.741C264.97 586.601 257.35 579.741 249.31 573.171C247.38 571.591 246.43 569.251 246.29 566.811C244.21 567.741 242.16 568.751 240.19 569.901C236.73 571.921 233.47 574.351 230.38 576.911C229.15 577.931 227.97 578.981 226.82 580.081C226.69 580.211 226.56 580.341 226.43 580.471C224.29 580.401 222.17 580.731 219.89 581.971C217.91 583.041 216.41 584.501 215.1 586.151C212.31 586.261 209.7 587.311 207.47 589.131C202.57 588.781 197.25 590.821 195.22 595.411C193.46 599.391 192.15 604.101 192.11 608.531C188.85 610.061 185.91 612.341 183.65 615.271C179.91 620.111 178.06 627.371 179.06 633.941C178.72 634.081 178.38 634.241 178.06 634.441C176.43 635.421 174.86 636.481 173.38 637.651C173.33 637.691 173.28 637.721 173.23 637.761C173.18 637.801 173.13 637.851 173.07 637.901C170.88 639.651 168.87 641.601 167.09 643.811C164.09 647.531 163.43 652.661 166.92 656.351C168.32 660.481 172.72 663.441 177.06 662.721C177.48 663.651 178.1 664.481 178.95 665.141C188.43 672.511 197.01 680.831 204.66 690.081C205.98 691.681 207.91 692.491 209.93 692.661C210.02 692.861 210.13 693.061 210.22 693.261C214.51 698.431 221.28 702.351 228.02 701.771C229.2 701.671 230.38 701.581 231.56 701.481C233.54 706.241 238.24 710.011 243.57 709.691C282.71 707.321 322.12 703.381 361.36 704.021C400.5 704.651 439.66 706.661 478.79 708.061C479.97 708.101 481.12 707.941 482.22 707.641C495.2 710.091 508.41 711.341 521.57 711.421C527.12 711.451 532.55 709.191 536.75 705.541C539.04 707.421 541.98 708.581 545.14 708.781C572.21 710.491 599.32 711.261 626.44 711.091C632.8 711.051 636.06 711.351 637.59 706.681C657.11 706.681 676.43 708.101 695.94 708.421C708.12 708.621 721.21 702.301 733.34 703.401C736.53 703.691 739.72 704.011 742.9 704.371C744.49 704.551 746.08 704.761 747.67 704.941C747.74 704.941 747.79 704.951 747.85 704.961C747.97 704.981 748.09 705.001 748.22 705.021C749.06 705.141 749.89 705.281 750.73 705.411C752.46 704.481 754.21 703.691 755.93 703.061C757.05 706.141 759.74 708.581 764.01 708.581C775.15 708.581 786.24 707.931 797.31 706.621C802.14 706.051 806.31 702.891 806.31 697.621C806.31 695.951 805.72 694.181 804.73 692.651L804.69 692.601Z" fill="#FFE1C4"/>
<path d="M910.54 483.42C914.52 478.62 914.75 471.5 910.16 466.91C905.74 462.49 897.56 462.09 893.19 466.91C891.81 468.43 890.54 470.01 889.34 471.63C882.12 474.04 879.32 481.12 878.62 488.21C877.93 491.86 878.09 495.69 878.67 499.79C878.58 500.93 878.53 502.08 878.51 503.23C878.49 503.94 878.48 504.65 878.51 505.35C878.63 509.2 880.22 512.1 882.53 514.03C882.77 514.56 883.02 515.08 883.28 515.6C876.17 524.43 869.32 533.47 862.83 542.77C860.58 546 860.71 550.21 862.34 553.72C861.71 554.67 861.17 555.7 860.73 556.79C858.55 562.24 855.58 567.41 854.07 573.12C852.17 580.29 852.36 587.56 853.98 594.74C854.02 594.91 854.07 595.06 854.12 595.22C851.82 598.13 851.07 602.14 851.68 606.15C853.03 614.93 858 622.3 860.72 630.61C861.21 632.11 861.53 633.61 861.74 635.12C860.1 636.59 858.89 638.45 858.57 640.56C855.65 659.78 844.74 675.83 827.54 684.97C821.82 688.01 820.06 695.96 823.24 701.39C826.63 707.18 833.92 708.75 839.66 705.7C851.13 699.6 861.05 690.6 868.46 679.89C872.43 680.04 876.5 678.38 879.07 674.32C884.56 665.65 887.34 655.97 887.88 645.76C888 643.41 887.25 641.17 885.96 639.28C886.03 635.29 885.69 631.28 884.74 627.28C882.48 617.71 876.34 609.58 874.84 599.78C874.81 599.6 874.76 599.42 874.72 599.24C877.09 596.31 878.02 592.28 877.14 588.36C875.12 579.37 880.67 571.2 883.89 563.16C884.94 560.53 884.57 557.68 883.34 555.17C883.42 555.07 883.5 554.97 883.57 554.87C888.92 547.21 894.5 539.72 900.36 532.44C902.49 529.8 903.72 526.63 903.73 523.5C907.28 521.3 909.82 517.42 909.81 512.55C909.81 512.12 909.79 511.7 909.77 511.27C910.68 510.18 911.47 508.9 912.05 507.45C915.13 499.79 914.28 490.71 910.57 483.42H910.54Z" fill="#FFE1C4"/>
<path d="M955.47 454.49C955.4 452.89 954.92 451.41 954.05 450.03C953.3 448.63 952.27 447.51 950.96 446.66C949.8 445.6 948.44 444.88 946.88 444.51L943.69 444.08C943.35 444.08 943.02 444.12 942.69 444.15C941.36 444.06 940.03 444.17 938.69 444.52C936.66 445.09 934.89 446.12 933.39 447.61C933 448.07 932.6 448.53 932.21 448.99C931.47 449.68 930.89 450.45 930.42 451.3C929.5 451.56 928.56 451.93 927.62 452.46C919.99 456.68 912.12 459.57 903.61 461.49C902 461.85 900.54 462.63 899.28 463.68C897.74 463.83 896.14 464.31 894.51 465.19C879.95 473.14 874.43 489.55 878.72 503.99C878.34 505.74 878.42 507.59 879.12 509.44C879.45 510.31 879.8 511.16 880.15 512.02C880.25 512.83 880.42 513.65 880.66 514.45C880.66 514.56 880.65 514.66 880.65 514.76C880.65 514.87 880.65 514.99 880.65 515.1C880.62 519.15 882.92 523.56 886.59 525.46C886.68 525.51 886.78 525.54 886.87 525.59C887.26 525.93 887.65 526.27 888.04 526.6C891.97 530.01 896.57 530.76 900.61 529.2C901.05 529.28 901.48 529.37 901.92 529.45C904.11 529.88 906.3 530.3 908.49 530.73C913.91 531.79 918.37 529.74 920.95 526.33C936.21 520.44 947.46 506.14 946.01 488.52C945.56 483.05 944.36 477.7 939.59 474.37C939.27 474.14 938.94 473.94 938.62 473.74C938.99 473.54 939.36 473.35 939.73 473.15C941.75 472.03 943.19 470.61 944.15 469.03C945.8 468.84 947.37 468.34 948.84 467.48C950.02 466.98 951.05 466.08 951.91 465.13C952.54 464.32 953.16 463.51 953.79 462.7C953.85 462.61 953.91 462.52 953.95 462.42C954.35 461.46 954.76 460.51 955.16 459.55C955.2 459.45 955.23 459.35 955.25 459.24C955.75 457.64 955.82 456.05 955.46 454.45L955.47 454.49Z" fill="#D8A27E"/>
<path d="M156.34 626.32C148.39 630.8 139.93 632.48 130.86 631.82C130.52 631.8 130.18 631.8 129.85 631.82C129.44 631.67 129.03 631.53 128.62 631.37C125.62 629.9 122.56 628.59 119.44 627.39C117.08 626.48 114.91 626.76 113.11 627.76C112.82 627.45 112.51 627.15 112.18 626.87C111.51 625.98 110.62 625.18 109.49 624.53C108.67 624.06 107.87 623.58 107.08 623.09C105.39 621.85 103.69 620.61 102 619.37C99.0698 617.23 95.8397 617.61 93.2397 619.27C87.3497 616.37 82.0698 612.67 76.7998 608.76C76.1798 608.3 75.5698 607.96 74.9498 607.7L73.7398 606.56C65.2998 598.64 52.5397 611.34 61.0097 619.29C64.8597 622.9 68.6998 626.5 72.5498 630.11C74.8798 632.29 77.4798 632.95 79.8698 632.59C80.6298 633.02 81.3898 633.45 82.1698 633.85C84.1198 634.86 86.7398 635.69 88.8198 636.98C88.6898 640.88 90.6998 644.69 95.2498 645.37C105.41 646.89 115.58 648.4 125.74 649.92C126.38 650.01 127.01 650.06 127.63 650.07C128.01 650.19 128.38 650.33 128.76 650.45C131.28 651.24 133.47 650.94 135.23 649.97C145.82 649.95 156.15 647.09 165.42 641.86C175.51 636.17 166.45 620.62 156.34 626.32Z" fill="#FADBBF"/>
<path d="M231.27 539.27C229.16 534.05 226.8 528.97 224.04 524.07C223.87 523.04 223.5 522.04 222.86 521.11C220.68 517.97 218.5 514.83 216.32 511.68C215.8 510.92 215.17 510.24 214.47 509.64C214.28 508.74 213.93 507.87 213.39 507.07C209.78 501.68 205.59 496.12 200.66 491.62C200.73 491.55 200.82 491.48 200.89 491.4C202.43 489.72 203.72 487.4 203.53 485.04C203.33 482.58 203 480.13 202.54 477.71C202.4 476.95 202.05 476.18 201.58 475.45C202.3 473.71 202.49 471.73 201.99 469.69C201.35 467.07 200.29 464.53 199.04 462.15C198.71 461.53 198.29 460.97 197.8 460.46L197.77 460.22C197.34 458.7 196.57 457.37 195.46 456.25C195.12 455.91 194.78 455.57 194.44 455.23C193.63 454.35 192.66 453.73 191.54 453.37C190.47 452.81 189.31 452.55 188.07 452.6C188.03 452.6 187.99 452.6 187.95 452.6C187.92 452.37 187.89 452.15 187.86 451.92C187.43 450.4 186.66 449.07 185.55 447.95C185.5 447.9 185.45 447.85 185.4 447.8C184.58 446.92 183.62 446.3 182.5 445.94C181.43 445.38 180.27 445.12 179.03 445.16C178.87 445.16 178.71 445.18 178.55 445.18C177.48 444.7 176.23 444.43 174.81 444.43C169.72 444.43 166.86 447.91 166.25 451.81C165.05 456.94 167.85 463.16 174.67 463.16C175.4 463.16 176.09 463.09 176.73 462.95C177.51 463.21 178.33 463.34 179.19 463.3C179.23 463.3 179.27 463.3 179.31 463.3C179.34 463.53 179.37 463.75 179.4 463.98C179.83 465.5 180.6 466.83 181.71 467.95L182.61 468.85C182.8 469.65 183.09 470.45 183.5 471.23C183.64 471.49 183.75 471.76 183.88 472.02C184.17 472.82 184.43 473.64 184.64 474.47C184.83 475.26 185.16 476 185.58 476.69C184.87 478.55 184.79 480.42 185.18 482.49C185.27 482.95 185.33 483.42 185.41 483.88C185.45 484.27 185.5 484.65 185.53 485.04C185.55 485.25 185.57 485.46 185.6 485.66C184.8 485.87 184.02 486.18 183.27 486.6C179.65 488.66 178.33 491.78 177.54 495.37C176.79 496.66 176.37 498.13 176.48 499.64C176.83 504.48 179.33 506.69 182.76 509.58C185.97 512.29 189.78 514.65 193.28 512.46C194.68 514.16 196.62 514.3 197.86 516.15C198.38 516.93 198.99 517.61 199.68 518.21C199.88 519.1 200.23 519.96 200.79 520.77L206.77 529.39C206.97 530.18 207.27 530.95 207.69 531.68C209.64 535.01 211.66 538.87 213.15 542.23C213.13 543 213.18 543.78 213.3 544.56C213.76 547.39 213.95 550.42 213.84 553.39C213.23 554.38 212.81 555.55 212.66 556.91C211.79 557.89 211.07 559.08 210.57 560.44C210.27 561.25 210.05 561.83 209.85 562.35C207.75 564.79 205.64 567.23 203.54 569.67C202.84 570.48 202.27 571.41 201.84 572.39C201.84 572.39 201.84 572.39 201.83 572.39C188.6 574.95 179.35 584.35 174.86 596.34C172.04 601.6 169.6 607.01 167.42 612.57C166.88 613.95 166.87 615.42 167.23 616.83C167.23 616.94 167.23 617.05 167.23 617.16C166.23 617.59 165.25 618.15 164.36 618.86C164.12 619.05 163.89 619.25 163.65 619.44C162.03 619.82 160.54 620.57 159.32 621.79L155.09 626.02C154.77 626.34 154.48 626.71 154.21 627.09C153.73 627.4 153.23 627.7 152.73 627.99C151.69 628.6 150.87 629.32 150.23 630.11C147.58 630.89 144.92 631.53 142.25 632.02C140.93 629.39 138.41 627.35 134.66 627.14C128.8 626.81 122.8 627.66 116.9 627.69C114.9 626.13 112.79 624.73 110.5 623.58C110.11 623.38 109.71 623.22 109.31 623.08C105.84 620.38 101.8 620.84 98.81 622.86C94.87 619.9 90.95 616.92 87.06 613.9C89.47 613.51 91.7 612.31 93.63 610.63C96.7 609.55 99.53 607.72 101.76 605.38C105.14 601.83 106.94 597.31 107.63 592.58C108.05 592.07 108.43 591.51 108.74 590.92C109.22 590.25 109.66 589.51 110 588.68C110.66 587.1 110.78 585.4 110.51 583.74C111.04 583.48 111.57 583.17 112.1 582.79C123.96 588.98 138.26 583.1 145.94 572.87C154.36 561.66 154.45 545.64 145.89 534.45C145.01 533.3 143.96 532.32 142.81 531.56C143.85 531.21 144.89 530.84 145.92 530.43C147.78 530.83 149.87 530.63 152.03 529.57C152.91 529.14 153.77 528.66 154.61 528.17C163.22 525.91 169.1 517.47 171.32 508.78C172.11 505.71 171.13 502.91 169.31 500.84C168.96 496.84 167.65 492.87 165.35 489.29C155.41 473.79 123.98 463.34 110.55 479.8C110.18 480.26 109.86 480.75 109.57 481.25C109.06 481.54 108.56 481.85 108.07 482.19C102.78 485.86 98.97 492.03 98.95 498.6C98.94 501.6 99.77 504.72 101.31 507.29C101.94 508.35 102.71 509.33 103.49 510.29C102.67 510.66 101.83 510.99 100.99 511.29C99.48 511.1 97.97 511.03 96.52 511.12C91.34 511.43 86.69 514.57 84.37 518.79C74.67 521.89 66.9 529.26 67.34 540.18C67.46 543.12 68.15 545.93 68.82 548.76C67.74 548.64 66.64 548.75 65.59 549.17C56.17 552.97 47.04 558.67 46.78 569.83C41.89 573.84 40.21 580.41 42.5 586.39C45.67 594.66 54.81 600.64 63.39 604.48C63.24 604.61 63.08 604.75 62.93 604.89C59.78 608.04 59.12 614.56 62.93 617.62C73.22 625.89 83.68 633.96 94.3 641.81C96.25 643.26 98.25 643.6 100.08 643.21C100.27 643.29 100.47 643.36 100.67 643.44C101.05 648.11 104.25 652.49 110.29 652.49C112.63 652.49 114.54 651.82 116.03 650.74C116.26 650.81 116.5 650.87 116.75 650.91C127.05 652.72 137.06 652.8 147.32 651.22C147.94 651.54 148.59 651.82 149.28 652.01C150.17 652.13 151.05 652.25 151.94 652.37C153.74 652.37 155.43 651.91 156.99 651C157.03 650.98 157.07 650.96 157.11 650.94C158.17 650.6 159.12 650.07 159.93 649.32C161.02 648.61 161.88 647.68 162.51 646.51C163.15 645.5 163.52 644.41 163.65 643.26C166.65 644.77 170.38 644.65 173.47 641.49C175.29 639.64 177.1 637.78 178.92 635.93C180.18 634.64 180.95 633.25 181.31 631.86C185.18 626.29 188.33 620.29 190.89 613.84C191.55 612.16 192.03 610.68 191.4 609C191.89 608.14 192.03 607.29 192.5 606.42C194.94 606.52 197.11 605.33 198.83 603.47C203.44 598.52 208.3 593.82 213.4 589.37C214.12 588.75 214.67 588 215.08 587.19C224.48 585.8 228.96 573.59 230.22 563.94C230.55 563.32 230.78 562.64 230.88 561.91C231.69 555.88 231.83 550.22 231.24 544.35C231.86 542.73 231.97 540.95 231.27 539.22V539.27Z" fill="#EFC19F"/>
<path d="M158.39 490.14C158.39 490.14 158.46 490.14 158.49 490.14L157.16 489.96C157.16 489.96 157.23 489.98 157.26 489.99L156.07 489.49C156.14 489.52 156.2 489.56 156.25 489.61L155.24 488.83C155.62 489.14 156.01 489.45 156.41 489.74C156.45 489.77 156.49 489.79 156.53 489.82L156.57 489.84L157.76 490.34C157.99 490.39 158.23 490.43 158.47 490.44C158.7 490.49 158.93 490.52 159.16 490.53C159.17 490.53 159.19 490.53 159.2 490.53C159.65 490.49 160.1 490.43 160.55 490.35C160.58 490.35 160.61 490.33 160.63 490.33L161.82 489.83C161.82 489.83 161.86 489.81 161.88 489.8C162.06 489.69 162.46 489.36 162.44 489.37C162.82 489.08 162.82 489.11 163 488.92C163.15 488.77 163.7 488.06 163.8 487.88L164.3 486.69C164.3 486.69 164.31 486.66 164.31 486.65C164.34 486.42 164.37 486.2 164.4 485.97C164.52 485.53 164.52 485.08 164.4 484.64C164.37 484.41 164.34 484.18 164.31 483.95L163.81 482.76C163.72 482.61 163.14 481.85 163.02 481.72C162.87 481.56 162.69 481.42 162.49 481.31C162.32 481.15 162.14 481.02 161.95 480.9C161.38 480.53 160.76 480.34 160.09 480.31C159.43 480.16 158.76 480.19 158.1 480.4C157.45 480.55 156.88 480.85 156.4 481.29C155.86 481.64 155.43 482.11 155.11 482.69L154.61 483.88C154.37 484.77 154.37 485.65 154.61 486.54L155.11 487.73C155.55 488.48 156.15 489.08 156.9 489.52L156.93 489.54L155.92 488.76L155.94 488.78L155.16 487.77V487.8C155.01 487.4 154.84 487 154.67 486.61V486.64C154.67 485.75 154.67 484.87 154.67 483.98C154.67 484 154.67 484.02 154.65 484.04L155.15 482.85L155.13 482.88L155.91 481.87C155.91 481.87 155.88 481.91 155.86 481.93L156.87 481.15C156.87 481.15 156.8 481.2 156.76 481.22L157.95 480.72C157.95 480.72 157.9 480.74 157.87 480.74L159.2 480.56C159.2 480.56 159.14 480.56 159.12 480.56L160.45 480.74H160.41C160.81 480.9 161.21 481.07 161.6 481.23C161.53 481.2 161.48 481.16 161.42 481.12L162.43 481.9C162.01 481.56 161.61 481.19 161.15 480.91C160.94 480.8 160.73 480.71 160.51 480.63C160.3 480.53 160.08 480.44 159.86 480.36C159.39 480.21 158.87 480.12 158.38 480.17C157.69 480.14 157.05 480.29 156.45 480.6C155.83 480.8 155.29 481.15 154.84 481.63C154.35 482.08 154.01 482.62 153.81 483.24C153.5 483.84 153.35 484.48 153.38 485.17L153.56 486.5C153.8 487.35 154.23 488.08 154.85 488.71L155.86 489.49C156.64 489.94 157.48 490.17 158.38 490.17L158.39 490.14Z" fill="#EFC19F"/>
<path d="M181.81 489.78C170.23 489.78 170.21 507.78 181.81 507.78C193.41 507.78 193.41 489.78 181.81 489.78Z" fill="#EFC19F"/>
<path d="M170.16 503.7C170.16 501.85 169.47 500.08 168.38 498.59C168.04 496.56 167.58 494.52 167.04 492.48C166.54 490.6 165.64 489.19 164.49 488.16C164.3 487.24 163.97 486.36 163.49 485.62C162.65 484.31 161.43 483.2 160.03 482.4C159.32 481.34 158.45 480.45 157.46 479.77C155.68 477.55 153.05 476.29 149.97 476.16C147.45 476.05 144.49 477.52 142.74 479.7C141.69 480.42 140.78 481.33 140.18 482.47C138.98 484.74 138.87 486.88 139.27 489.41C139.55 491.18 139.84 492.95 140.12 494.72C140.42 496.57 141.94 498.31 143.35 499.4C144.87 500.57 146.83 501.42 148.8 501.33C149.47 501.3 150.12 501.2 150.75 501.05C150.88 501.56 151 502.07 151.1 502.6C150.57 503.7 150.08 504.87 149.58 506.15C148.12 509.95 146.52 513.82 147.91 517.91C149 521.1 151.82 523.51 154.94 524.29C154.97 524.29 154.99 524.3 155.02 524.31C155.27 524.37 155.51 524.42 155.76 524.46C155.85 524.47 155.94 524.48 156.03 524.49C158.16 524.75 160.34 524.22 162.17 522.63C168.37 518.65 170.18 511.21 170.15 503.7H170.16Z" fill="#EFC19F"/>
<path d="M166.03 475.83C165.95 476.04 165.87 476.26 165.79 476.47C165.41 477.67 165.36 478.86 165.63 480.06C165.68 481.26 166.04 482.37 166.7 483.41C167.27 484.46 168.04 485.3 169.02 485.93C169.89 486.73 170.91 487.26 172.08 487.54C172.44 487.59 172.8 487.64 173.15 487.68L174.12 490.6L177.58 490.14C179.78 489.52 181.69 488.41 183.32 486.8C184.37 485.76 185.27 484.53 186.07 483.3C186.17 483.14 186.27 482.98 186.35 482.81C186.4 482.72 186.44 482.62 186.48 482.53C186.97 481.44 187.46 480.31 187.88 479.19C188.42 477.46 188.5 475.73 188.11 474.01C188.03 472.28 187.52 470.67 186.57 469.18C185.75 467.67 184.64 466.45 183.22 465.53C181.96 464.38 180.49 463.61 178.8 463.2L175.34 462.74C172.99 462.74 170.81 463.34 168.78 464.51C167.9 465.19 167.03 465.87 166.15 466.54L168.03 472.22C167.09 473.26 166.42 474.46 166.03 475.83Z" fill="#D8A27E"/>
<path d="M310.59 308.54C310.61 308.49 310.62 308.43 310.64 308.38C310.64 308.38 310.64 308.39 310.64 308.4C310.63 308.45 310.62 308.49 310.6 308.54H310.59Z" fill="#FF9527"/>
<path d="M705.09 500.43C705.03 500.55 704.98 500.67 704.95 500.79C704.98 500.68 705.04 500.55 705.09 500.43Z" fill="#FF9527"/>
<path d="M814.25 397.47C814.29 397.34 814.34 397.21 814.39 397.08C815.91 392.21 818.96 388.26 820.07 383.25C831.62 361.52 833.16 334.41 826.92 310.45C825.75 305.95 823.33 302.09 820.14 299.07C830.43 256.38 817.6 209.72 788.49 177C785.28 173.39 780.57 171.06 775.55 170.09C774.68 169.14 773.78 168.22 772.88 167.3C770.14 162.2 765.49 157.96 760.34 155.21C758.79 151.78 757.14 148.4 755.37 145.07C754.87 144.12 754.26 143.37 753.59 142.78C751.55 135.17 748.8 127.81 745.63 120.46C735.88 97.8698 719.7 79.0898 700.16 64.4098C678.02 47.7798 650.83 39.0598 623.36 37.3698C619.53 37.1398 615.74 38.0598 612.31 39.7998C603.4 30.2598 591.72 23.5998 578.87 19.6098C559.89 13.7098 539.93 11.4398 520.29 14.8098C509.76 16.6198 498.66 21.1598 490.74 28.4898C489.51 29.6298 488.37 30.8598 487.31 32.1698C484.29 33.0198 481.37 34.5298 478.78 36.4898C477.98 36.3298 477.17 36.1798 476.36 36.0498C474.69 33.3098 473.31 30.2998 471.86 28.0798C471.86 28.0798 471.85 28.0698 471.84 28.0598C471.38 26.9298 470.91 25.7998 470.45 24.6698C468.81 20.6798 465.14 17.8398 460.61 19.0798C456.83 20.1198 453.37 24.8998 455.02 28.9198C455.79 30.7898 456.56 32.6598 457.33 34.5398C447.56 34.4598 437.75 35.6398 428.15 37.3698C409.17 40.8098 390.35 48.5498 374.16 58.9898C344.71 77.9798 322.76 104.91 307.48 135.87C307.27 136.06 307.08 136.25 306.89 136.47C303.13 140.98 299.67 145.72 296.64 150.75C296.37 151.2 296.16 151.67 295.99 152.15C294.7 153.35 293.4 154.56 292.11 155.76C289.82 157.89 288.09 160.42 286.88 163.16C283.49 166.55 280.22 170.06 277.07 173.69C273.68 174.87 270.5 176.82 267.78 179.61C262.34 185.19 257.48 191.47 253.34 198.06C251.43 201.1 250.37 204.56 250.04 208.13C246.91 211.16 244.42 215.05 242.76 219.61C231.93 249.3 231.23 282.77 239.87 313.11C240.58 315.59 241.64 317.88 242.98 319.95C241.84 321.06 240.86 322.37 240.13 323.86C236.81 330.59 234.25 337.66 232.66 344.92C225.95 361.56 226.42 379.94 232.78 396.86C237.45 409.29 244.32 420.41 251.1 431.64C249.24 434.34 248.19 437.61 248.43 441.35C249.78 462.14 253.06 482.83 258.5 502.95C259.15 505.34 260.29 507.47 261.76 509.29C267.06 522.94 275.5 535.01 285.78 545.64C286.54 548.48 288.02 551.1 290.35 553.1C304.91 565.67 319.93 577.53 337.51 584.84C337.65 584.94 338.81 583.16 338.96 583.26C344.11 586.86 349.16 587.93 354.9 587.63C355.31 589.11 355.93 590.53 356.83 591.86C379.16 624.59 411.89 648.84 450.03 659.92C452.46 660.63 454.97 660.72 457.39 660.33C461.43 663.7 465.72 666.74 470.87 668.22C474.43 669.24 478.35 669.55 482.04 669.64C483.29 669.67 484.55 669.67 485.8 669.69C485.12 669.72 487.21 669.94 488.4 670.41C492.39 671.97 497.27 671.2 501.38 669.05C506.7 671.22 512.09 673.64 517.55 675.69C517.59 675.88 517.63 676.06 517.67 676.25C518.23 678.59 519.3 680.63 520.89 682.37C522.16 684.33 523.84 685.87 525.94 687.01C527.37 687.61 528.81 688.22 530.24 688.82C532.63 689.57 535.03 689.68 537.42 689.14C539.04 689.14 540.56 688.73 541.96 687.91C544.19 687.18 546.12 685.94 547.75 684.19C548.69 682.98 549.63 681.76 550.56 680.55C550.92 679.93 551.23 679.29 551.52 678.65C556.27 677.53 560.97 675.88 565.76 673.87C570.75 671.77 575.74 669.67 580.73 667.57C583.08 666.58 585.43 665.59 587.78 664.61C588.29 664.4 588.8 664.18 589.3 663.97C591.58 664 593.84 663.82 595.97 663.42C600 662.66 603.58 660.77 606.55 658.14C607.24 657.77 607.93 657.39 608.6 657C609.87 657.61 611.18 658.15 612.53 658.59C619.44 660.83 625.9 658.7 632.18 656.02C633.16 655.6 634.09 655.08 634.99 654.52C637.22 654.54 639.48 654.27 641.73 653.68C650.47 651.39 657.3 646.45 664.46 641.28C668.12 638.64 671.77 636 675.43 633.36C680.22 630.77 684.69 627.48 688.75 623.48C693.08 619.22 695.44 613.65 695.93 607.93C696.89 607.14 697.84 606.33 698.76 605.52C702.01 602.64 704.12 598.93 705.21 594.91C712.85 594.13 720.04 590.19 724.06 582.98C724.74 583.44 725.54 583.72 726.38 583.75C727.45 585.64 729.77 586.85 731.81 585.32C735.16 582.81 738.52 580.32 741.91 577.86C742.34 577.76 742.78 577.59 743.23 577.3C747.2 574.76 751.04 572.05 754.75 569.18C760.59 565.06 766.44 560.95 772.28 556.83C774.07 555.57 774.37 553.57 773.79 551.94C774.31 551.39 774.82 550.83 775.33 550.28C776.9 550.88 778.81 550.53 780.05 548.63C787.08 537.83 794.04 526.97 799.9 515.54C800.41 514.85 800.93 514.15 801.44 513.46C802.02 512.66 802.19 511.85 802.11 511.09C804.2 506.74 806.11 502.3 807.8 497.75C808.18 497.27 808.55 496.78 808.93 496.31C811.46 493.15 808.44 488.92 805.48 489.31C813.61 467.92 817.73 444.6 820.89 422.27C821.89 415.18 822.09 409.07 818.32 402.62C817.27 400.83 815.88 399.08 814.27 397.48L814.25 397.47ZM459.85 182.55C458.84 183.42 457.82 184.29 456.81 185.15C456.48 185.24 456.14 185.33 455.81 185.42C457.15 184.56 458.48 183.6 459.85 182.55ZM718.44 470.71C716.64 475.69 714.76 480.64 712.8 485.56C712.34 486.72 711.87 487.87 711.4 489.03C711.29 489.3 709.05 494.86 710.67 490.83C712.09 487.3 710.57 490.94 710.24 491.65C709.64 492.92 709.03 494.19 708.37 495.43C707.75 496.6 705.73 498.89 705.09 500.44C705.77 498.99 707.73 497.76 705.09 500.69C705.04 500.74 704.99 500.79 704.94 500.85V500.87C704.94 500.87 704.94 500.86 704.94 500.85C704.21 501.65 703.47 502.43 702.71 503.2C699.26 506.71 695.64 510.03 692.37 513.71C686.07 520.79 680.38 528.48 675.66 536.71C665.43 543.21 655.69 550.46 646.37 558.2C645.61 558.5 644.86 558.83 644.11 559.19C635.06 563.55 625.93 567.75 616.72 571.75C615.5 572.28 607.71 575.75 614.15 572.88C612.43 573.65 610.67 574.33 608.93 575.05C604.28 576.96 599.62 578.82 594.94 580.63C586.16 584.03 577.31 587.27 568.41 590.33C562.54 592.35 556.38 594.89 550.19 596.82C549.12 596.66 548.04 596.54 546.93 596.51C542.53 596.38 538.49 597.37 534.94 599.17C533.44 598.2 531.75 597.49 529.87 597.11C520.82 595.31 512.08 594.69 503.16 595.25C494.72 589.95 485.5 586.11 475.48 584.41C472.35 583.88 469.06 583.93 465.98 584.66C463.46 583.35 460.95 582.02 458.45 580.67C450.66 576.45 442.84 572.22 435.28 567.61C426.79 562.43 422.64 559.51 416.43 553.64C412.38 549.81 406.56 547.98 401.1 548.61C396.38 543.22 391.42 538.04 386.17 533.15C383.28 530.46 379.77 528.78 376.13 528.22C375.69 527.14 375.23 526.05 374.74 524.95C372.68 520.33 368.13 517.57 363.21 516.62C359.14 510.18 355.08 503.75 351.01 497.31C346.85 484.14 342.66 470.97 338.46 457.82C338.46 457.36 338.46 456.9 338.46 456.44C338.46 456.44 338.46 456.43 338.46 456.42C338.56 449.26 338.69 442.12 337.86 434.98C337.34 430.53 335.6 426.14 332.79 422.8C332.88 422.16 333.01 421.21 333.06 420.81C333.82 415.54 334.69 410.29 335.67 405.07C336.76 399.33 338.5 393.32 338.07 387.45C337.53 380.19 334.33 374.53 331.24 368.19C331.15 367.96 331.04 367.68 330.94 367.39C330.58 366.31 330.22 365.24 329.91 364.15C329.13 361.41 328.61 358.63 328.23 355.82C327.93 353.66 327.06 351.72 325.81 350.04C325.8 349.95 325.79 349.86 325.78 349.76C325.67 348.82 325.57 347.87 325.49 346.93C325.17 343.52 324.98 340.11 324.9 336.7C324.94 336.44 324.99 336.19 325.02 335.92C325.56 331.55 325.7 327.27 325.44 322.87C325.44 322.81 325.43 322.76 325.42 322.7C326.34 321.26 327.08 319.68 327.59 317.96C329.72 310.77 331.58 303.51 333.18 296.19C335.25 292.14 337.5 288.19 339.91 284.32C340.98 282.59 341.66 280.67 342.02 278.68C345.33 275.83 348.64 272.99 351.95 270.14C353.33 268.96 354.4 267.55 355.21 266C356.77 264.24 357.88 262.37 358.58 260.43C364.41 258.67 369.55 255.01 372.01 249.32C372.91 247.23 373.73 245.2 374.46 243.18C374.5 243.2 374.54 243.21 374.58 243.23C376.57 238.44 378.55 233.65 380.54 228.86C381.16 228.13 381.76 227.36 382.37 226.56C384.88 223.25 386.65 218.7 387.4 214.18C388.19 212.15 388.98 210.13 389.78 208.1C390.09 207.31 390.31 206.47 390.48 205.59C391.98 203.69 393.48 201.8 394.98 199.9C399.75 196.33 404.52 192.77 409.28 189.2C409.5 189.04 409.71 188.87 409.92 188.71C413.35 190.45 417.2 191.45 421.25 191.56C422.75 191.6 424.19 191.52 425.59 191.36C432.79 192.72 439.4 193.26 446.59 191.32C453.67 189.4 458.83 185.8 464.53 181.37C465.57 180.56 466.49 179.6 467.3 178.54C474.37 174.89 480.81 169.92 485.89 164.17C487.39 162.47 488.68 160.59 489.75 158.58C490.73 158.99 491.75 159.3 492.78 159.52C494.73 160.67 496.81 161.32 499.05 161.42C500.27 161.69 501.48 161.8 502.7 161.74C518.65 188.65 548.33 204.86 579.49 209.88C595.13 212.4 612.89 214.17 627.36 208.2C630.47 212.02 634.25 215.32 638.47 217.84C646.01 222.36 656.59 222.33 664.36 217.84C666.43 217.94 668.5 217.96 670.56 217.84C674.57 217.62 678.67 217.09 682.71 216.2C683.12 216.28 683.52 216.36 683.93 216.43C685.67 217.34 687.51 218.05 689.43 218.53C689.45 220.42 689.63 222.34 689.99 224.3C691.16 230.71 693.61 236.39 696.22 242.36C697.09 244.34 698.38 246.12 699.97 247.69C700.33 253.15 701.9 258.61 704.28 263.81C706.44 268.52 710.67 271.98 715.59 274.05C715.62 274.23 715.76 274.66 716.09 275.46C717.18 278.08 718.28 280.71 719.34 283.35C721.24 288.03 723.07 292.74 724.78 297.49C728.4 307.53 731.51 317.79 733.51 328.29C733.73 329.43 733.93 330.57 734.12 331.72C734.14 331.82 734.16 331.98 734.19 332.17C734.26 332.73 734.33 333.34 734.36 333.6C734.48 334.76 734.58 335.92 734.66 337.08C735.01 342.01 735.08 346.96 734.8 351.9C734.7 353.73 734.4 355.57 734.26 357.4C734.22 357.59 734.18 357.79 734.15 357.98C733.05 359.22 732.06 360.58 731.23 362.09C726.12 371.46 723.94 380.26 722.77 390.75C722.22 395.7 724.79 401.82 727.99 406.15C727.76 406.81 727.55 407.49 727.39 408.17C725.55 415.81 725.85 421.62 727.12 429.29C727.48 431.46 726.52 433.45 727.51 435.29C725.66 438.79 726.19 442.83 725.85 447.21C725.8 447.83 725.75 448.46 725.71 449.08C723.45 456.33 721.05 463.53 718.46 470.67L718.44 470.71Z" fill="#FF9527"/>
<path d="M704.94 500.79C704.94 500.79 704.93 500.83 704.92 500.84C704.92 500.82 704.93 500.81 704.94 500.79Z" fill="#FF9527"/>
<path d="M310.23 309.54C310.26 309.46 310.3 309.37 310.33 309.28C310.3 309.37 310.26 309.45 310.23 309.54Z" fill="#FF9527"/>
<path d="M310.33 309.28C310.42 309.04 310.52 308.78 310.59 308.54C310.52 308.78 310.42 309.03 310.33 309.28Z" fill="#FF9527"/>
<path d="M247.64 205.12C247.64 205.12 197.88 159.2 251.41 110.29C251.41 110.29 282.74 75.9596 326.15 98.5596" stroke="#C28A69" stroke-width="10" stroke-miterlimit="10" stroke-linecap="round"/>
<path d="M264.89 140.299C274.87 142.299 278.68 149.139 281.65 158.169C283.25 163.039 290.98 160.949 289.36 156.039C285.55 144.469 279.75 135.139 267.01 132.589C261.98 131.579 259.83 139.289 264.88 140.299H264.89Z" fill="#C28A69"/>
<path d="M812.18 205.119C812.18 205.119 861.94 159.199 808.41 110.289C808.41 110.289 778.97 81.7695 738.6 100.559" stroke="#C28A69" stroke-width="10" stroke-miterlimit="10" stroke-linecap="round"/>
<path d="M792.81 132.589C780.07 135.139 774.27 144.479 770.46 156.039C768.85 160.939 776.57 163.039 778.17 158.169C781.15 149.129 784.95 142.299 794.93 140.299C799.97 139.289 797.84 131.579 792.8 132.589H792.81Z" fill="#C28A69"/>
<path d="M697.42 610.34C720.14 615.5 740.88 628.42 758.31 643.55C778.22 660.83 794.8 682.02 805.31 706.28C807.86 712.17 816.48 707.08 813.94 701.23C802.95 675.84 785.21 653.42 764.24 635.5C745.77 619.72 724 606.14 700.08 600.7C693.81 599.28 691.14 608.92 697.42 610.34Z" fill="#C28A69"/>
<path d="M312.21 604.05C327.5 600.59 343.2 600.94 358.77 600.12C365.17 599.78 365.21 589.78 358.77 590.12C342.29 590.99 325.74 590.75 309.56 594.41C303.29 595.83 305.94 605.47 312.22 604.05H312.21Z" fill="#C28A69"/>
<path d="M298.53 608.65C302.1 606.82 307.76 605.33 312.21 604.05C318.38 602.27 315.76 592.62 309.55 594.41C304.17 595.96 298.48 597.46 293.48 600.02C287.75 602.95 292.8 611.58 298.53 608.65Z" fill="#C28A69"/>
<path d="M332.91 394.63C332.11 419.21 332.27 443.83 337.59 467.96C342.14 488.63 353.77 507.14 368.48 522.16C395.17 549.41 428.43 571.24 463.77 585.36C484.14 593.5 505.48 598.89 527.27 601.47C535.79 602.48 544.71 600.45 553.06 598.88C563.74 596.87 574.27 594.11 584.58 590.66C622.84 577.84 656.07 555.75 685.97 529.01C701.66 514.97 715.43 497 721.76 476.72C729.97 450.44 729.61 421.84 728.72 394.63C728.51 388.21 718.51 388.18 718.72 394.63C719.49 418.3 719.51 442.05 714.4 465.3C710.08 484.93 699 502.24 684.86 516.32C659.54 541.52 628.79 562.59 595.64 575.96C576.49 583.68 556.06 589.35 535.49 591.54C527.5 592.39 519.28 590.5 511.47 588.99C501.48 587.06 491.62 584.5 481.95 581.35C444.82 569.25 412.48 548.29 383.42 522.54C368.73 509.52 355.45 493.04 349.53 474.07C341.58 448.61 342.06 421 342.92 394.64C343.13 388.2 333.13 388.21 332.92 394.64L332.91 394.63Z" fill="#C1671E"/>
<path d="M359.06 258.15C341.25 271.92 329.6 292.37 324.96 314.27C320.15 336.96 321.11 362.65 332.44 383.32C335.53 388.96 344.17 383.92 341.07 378.27C330.79 359.52 330.3 335.6 334.99 315.13C339.52 295.37 350.02 277.67 366.12 265.23C371.2 261.3 364.08 254.27 359.05 258.16L359.06 258.15Z" fill="#C1671E"/>
<path d="M698.53 267.851C714.98 280.321 722.66 300.661 725.15 320.571C727.59 340.051 727.06 361.681 717.45 379.201C714.35 384.851 722.99 389.901 726.08 384.251C736.99 364.361 737.81 340.241 734.83 318.161C731.73 295.201 722.42 273.511 703.58 259.231C698.45 255.341 693.46 264.021 698.53 267.861V267.851Z" fill="#C1671E"/>
<path d="M376.2 256.88C379.22 241.58 384.6 226.92 393.58 214.08C402.52 201.3 414.77 191.45 428.47 184.16C434.15 181.14 429.11 172.5 423.42 175.53C392.64 191.9 373.26 220.27 366.55 254.22C365.31 260.51 374.95 263.2 376.19 256.88H376.2Z" fill="#C1671E"/>
<path d="M701.16 290.5C708.37 273.95 707.97 256.33 700.89 239.8C698.39 233.97 695.22 228.49 691.38 223.44C689.33 220.75 686.67 216.8 683.43 215.37C677.6 212.8 672.5 221.41 678.38 224C678.71 224.15 679.44 224.78 678.5 223.98C678.98 224.39 679.45 224.81 679.87 225.26C681.05 226.52 682.2 227.79 683.25 229.15C686.43 233.28 689.1 237.89 691.27 242.62C697.47 256.17 698.54 271.63 692.52 285.44C689.97 291.28 698.59 296.38 701.15 290.49L701.16 290.5Z" fill="#C1671E"/>
<path d="M424.32 200.121C455.03 198.201 484.72 183.171 496.43 153.361C498.78 147.371 489.12 144.771 486.79 150.701C476.83 176.051 450.13 188.511 424.33 190.121C417.94 190.521 417.89 200.521 424.33 200.121H424.32Z" fill="#C1671E"/>
<path d="M497.38 163.611C506.37 186.311 528.03 203.621 550.38 212.121C574.46 221.281 602.32 223.391 626.81 214.881C632.85 212.781 630.25 203.121 624.15 205.241C602.14 212.891 578.22 211.151 556.34 203.671C536.32 196.831 515.05 181.221 507.02 160.961C504.68 155.051 495 157.621 497.38 163.621V163.611Z" fill="#C1671E"/>
<path d="M588.16 177.851C588.16 177.851 609.07 224.501 700.6 219.271" stroke="#C1671E" stroke-width="10" stroke-miterlimit="10" stroke-linecap="round"/>
<path d="M309.07 141.34C318.62 113.52 336.79 88.6002 360.71 71.4002C387.23 52.3302 419.27 42.8402 451.82 42.9402C458.26 42.9602 458.26 32.9602 451.82 32.9402C417.14 32.8402 382.46 43.0402 354.4 63.6902C328.86 82.4702 309.71 108.72 299.43 138.69C297.34 144.79 306.99 147.41 309.07 141.35V141.34Z" fill="#C1671E"/>
<path d="M455.52 5.15039C455.52 5.15039 449.36 39.4304 469.8 51.1804" stroke="#C1671E" stroke-width="10" stroke-miterlimit="10" stroke-linecap="round"/>
<path d="M451.92 8.6303C457.89 22.6703 466.81 34.8803 480.92 41.5303C495.03 48.1803 512.06 48.8003 527.62 44.7103C533.84 43.0803 531.2 33.4303 524.96 35.0703C511.59 38.5803 497.11 38.5503 484.56 32.2103C472.58 26.1603 465.68 15.6303 460.56 3.59029C458.05 -2.30971 449.43 2.78029 451.93 8.6403L451.92 8.6303Z" fill="#C1671E"/>
<path d="M485.82 34.7303C504.15 19.1703 528.38 13.5703 551.93 16.6303C575.13 19.6503 595.09 31.1203 613.55 44.9103C618.71 48.7603 623.7 40.0903 618.6 36.2803C598.07 20.9503 575.97 9.28034 550.19 6.43034C524.45 3.58034 498.6 10.8203 478.76 27.6603C473.85 31.8303 480.95 38.8703 485.83 34.7303H485.82Z" fill="#C1671E"/>
<path d="M618.76 45.5104C650.02 42.7204 682.17 51.8504 706.55 71.8704C729.69 90.8804 744.87 118.04 749.55 147.55C750.55 153.89 760.19 151.2 759.19 144.89C754.2 113.39 737.32 83.7804 712.39 63.8004C686.17 42.7904 652.23 32.5204 618.76 35.5004C612.4 36.0704 612.34 46.0704 618.76 45.5004V45.5104Z" fill="#C1671E"/>
<path d="M760.44 162.18C782.76 173.61 800.51 193.84 809.48 217.26C817.95 239.37 821.1 266.01 816.08 289.29C814.73 295.56 824.36 298.25 825.72 291.95C831.19 266.58 828.21 237.33 818.6 213.28C808.5 188.02 789.82 166.02 765.48 153.55C759.76 150.62 754.7 159.25 760.43 162.18H760.44Z" fill="#C1671E"/>
<path d="M804.26 283.111C836.51 315.401 833.03 374.891 802.26 406.741C797.79 411.371 804.85 418.451 809.33 413.811C843.86 378.061 847.46 312.211 811.33 276.031C806.78 271.471 799.7 278.541 804.26 283.101V283.111Z" fill="#C1671E"/>
<path d="M803.46 358.29C808.58 376.89 801.66 396.39 785.64 407.22C781.4 410.09 785.4 417.02 789.68 414.13C808.68 401.29 817.29 378.36 811.18 356.17C809.82 351.21 802.1 353.32 803.47 358.3L803.46 358.29Z" fill="#C1671E"/>
<path d="M357.91 591.66C329.98 581.24 303.15 566.17 284.09 542.75C268.66 523.79 260.3 500.46 255.86 476.67C253.21 462.46 251.9 448.05 251 433.64C250.6 427.25 240.6 427.2 241 433.64C242.67 460.25 245.64 487.4 255.42 512.41C265.31 537.73 281.93 558.9 303.92 574.86C319.58 586.23 337.19 594.55 355.26 601.3C361.3 603.55 363.9 593.89 357.92 591.66H357.91Z" fill="#C1671E"/>
<path d="M463.32 67.8405C460.03 77.7005 459.35 88.9905 460.62 99.2305C463.31 120.881 476.92 137.471 496.76 146.141C501.43 148.181 505.51 141.291 500.8 139.231C482.7 131.321 470.13 116.63 468.33 96.6105C467.54 87.8305 468.22 78.3805 471.03 69.9605C472.66 65.0605 464.94 62.9705 463.32 67.8305V67.8405Z" fill="#C1671E"/>
<path d="M487.8 102.34C486.49 117.81 494.96 132.29 509.19 138.55C513.86 140.6 517.93 133.71 513.23 131.64C501.34 126.41 494.7 115.31 495.81 102.33C496.25 97.2004 488.24 97.2304 487.81 102.33L487.8 102.34Z" fill="#C1671E"/>
<path d="M292.62 148.17C269.59 163.88 250.49 185.86 238.99 211.33C227.36 237.07 224.59 265.74 231.22 293.24C234.64 307.44 240.65 320.86 249.64 332.4C253.59 337.47 260.62 330.35 256.71 325.33C237.44 300.59 233.34 263.86 241.28 234.2C249.68 202.86 271.03 174.97 297.67 156.8C302.95 153.19 297.96 144.53 292.62 148.17Z" fill="#C1671E"/>
<path d="M257.04 273.041C246.72 289.831 251.29 314.271 263.25 329.011C266.49 333.011 272.12 327.321 268.91 323.351C259.2 311.381 255.64 290.601 263.96 277.071C266.66 272.671 259.75 268.651 257.05 273.031L257.04 273.041Z" fill="#C1671E"/>
<path d="M340.79 560.42C347.74 580.46 354.58 599.84 368.24 616.47C383.89 635.53 405.56 650.06 428.21 659.54C443.12 665.78 458.78 669.53 474.9 670.68C481.32 671.14 481.29 661.14 474.9 660.68C443.95 658.47 414.01 645.01 390.55 624.87C379.3 615.21 369.9 603.84 363.13 590.61C357.76 580.12 354.27 568.86 350.42 557.76C348.33 551.72 338.66 554.31 340.78 560.42H340.79Z" fill="#C1671E"/>
<path d="M236.35 313.841C209.18 355.671 219.1 419.241 257.26 451.431C262.15 455.561 269.26 448.521 264.33 444.361C229.43 414.911 220.07 357.241 244.99 318.891C248.51 313.481 239.85 308.461 236.36 313.841H236.35Z" fill="#C1671E"/>
<path d="M252.15 391.711C248.84 411.091 254.84 434.991 272.26 446.021C276.62 448.781 280.64 441.861 276.3 439.111C262.18 430.171 257.2 409.501 259.87 393.831C260.73 388.791 253.02 386.631 252.16 391.701L252.15 391.711Z" fill="#C1671E"/>
<path d="M272.81 405.5C271.02 418.75 271.7 433.41 282.79 442.6C286.73 445.86 292.42 440.23 288.45 436.94C279.67 429.67 279.09 418.19 280.52 407.63C281.2 402.6 273.49 400.42 272.81 405.5Z" fill="#C1671E"/>
<path d="M414.08 607.29C420.68 633.18 437.74 655.72 462.68 666.21C475.04 671.41 488.4 673.46 500.92 678.2C511.8 682.31 523.16 687.13 527.92 698.53C530.36 704.38 540.04 701.81 537.56 695.87C533.14 685.27 525.91 678.52 515.59 673.66C503.17 667.81 490.23 664.57 477.14 660.72C463.81 656.8 451.86 650.36 442.37 640.07C433.17 630.09 427.06 617.72 423.72 604.63C422.13 598.4 412.48 601.04 414.08 607.29Z" fill="#C1671E"/>
<path d="M320.79 548.8C326.04 568.6 334.73 589.76 354.73 598.59C360.56 601.17 365.66 592.55 359.78 589.96C342.07 582.14 335.07 563.64 330.43 546.15C328.78 539.94 319.13 542.57 320.79 548.81V548.8Z" fill="#C1671E"/>
<path d="M710.26 600.8C743.06 585.57 774.23 564.88 794.65 534.41C811.75 508.9 819.06 478.78 822.12 448.58C823.81 431.88 824.15 414.5 819.68 398.16C817.98 391.96 808.33 394.59 810.04 400.82C813.71 414.23 813.84 428.65 812.69 442.43C811.44 457.34 809.26 472.19 805.27 486.63C797.43 515.02 781.86 539.63 759.45 558.79C743.25 572.64 724.48 583.24 705.21 592.18C699.38 594.89 704.45 603.51 710.26 600.81V600.8Z" fill="#C1671E"/>
<path d="M713.89 557.761C710.04 568.861 706.55 580.121 701.18 590.611C694.41 603.831 685.01 615.201 673.76 624.871C650.31 645.021 620.36 658.471 589.41 660.681C583.03 661.141 582.98 671.141 589.41 670.681C638.41 667.181 689.98 637.611 711.46 592.301C716.34 582.001 719.8 571.161 723.52 560.421C725.63 554.331 715.98 551.711 713.88 557.761H713.89Z" fill="#C1671E"/>
<path d="M640.6 604.631C637.33 617.461 631.4 629.621 622.48 639.501C612.91 650.091 600.78 656.721 587.19 660.721C574.36 664.501 561.6 667.581 549.45 673.371C539.12 678.301 532.31 685.281 527.93 695.871C525.47 701.811 535.14 704.401 537.57 698.531C542.16 687.451 551.92 682.651 562.58 678.511C575.34 673.551 589.02 671.531 601.65 666.211C626.59 655.721 643.65 633.181 650.25 607.291C651.84 601.051 642.2 598.391 640.61 604.631H640.6Z" fill="#C1671E"/>
<path d="M733.89 546.151C729.25 563.651 722.25 582.141 704.54 589.961C698.67 592.551 703.75 601.171 709.59 598.591C729.59 589.761 738.28 568.601 743.53 548.801C745.18 542.571 735.54 539.921 733.89 546.141V546.151Z" fill="#C1671E"/>
<path d="M493.67 427.17C492.57 422.14 494.78 416.97 499.17 414.26C504.87 410.73 515.23 406.92 533.36 406.92C551.49 406.92 561.39 410.72 566.67 414.25C570.59 416.87 572.65 421.51 571.95 426.16C570.43 436.32 563.94 455.78 533.35 455.78C502.76 455.78 495.94 437.55 493.66 427.17H493.67Z" fill="#060001"/>
<path d="M524.24 417.389V499.319C524.24 510.259 541.24 510.279 541.24 499.319V417.389C541.24 406.449 524.24 406.429 524.24 417.389Z" fill="#060001"/>
<path d="M585.21 313.029C600.36 308.949 615.5 304.879 630.65 300.799C638.1 298.799 634.94 287.219 627.46 289.229C612.31 293.309 597.17 297.379 582.02 301.459C574.57 303.459 577.73 315.039 585.21 313.029Z" fill="#060001"/>
<path d="M483.46 301.46C468.31 297.38 453.17 293.31 438.02 289.23C430.55 287.22 427.37 298.79 434.83 300.8C449.98 304.88 465.12 308.95 480.27 313.03C487.74 315.04 490.92 303.47 483.46 301.46Z" fill="#060001"/>
<path d="M459.15 387.47C472.466 387.47 483.26 376.676 483.26 363.36C483.26 350.044 472.466 339.25 459.15 339.25C445.835 339.25 435.04 350.044 435.04 363.36C435.04 376.676 445.835 387.47 459.15 387.47Z" fill="#060001"/>
<path d="M470.26 360.27C473.016 360.27 475.25 358.036 475.25 355.28C475.25 352.524 473.016 350.29 470.26 350.29C467.504 350.29 465.27 352.524 465.27 355.28C465.27 358.036 467.504 360.27 470.26 360.27Z" fill="white"/>
<path d="M606.33 387.47C619.645 387.47 630.44 376.676 630.44 363.36C630.44 350.044 619.645 339.25 606.33 339.25C593.014 339.25 582.22 350.044 582.22 363.36C582.22 376.676 593.014 387.47 606.33 387.47Z" fill="#060001"/>
<path d="M617.44 360.27C620.196 360.27 622.43 358.036 622.43 355.28C622.43 352.524 620.196 350.29 617.44 350.29C614.684 350.29 612.45 352.524 612.45 355.28C612.45 358.036 614.684 360.27 617.44 360.27Z" fill="white"/>
<path d="M561.36 426.2C563.624 426.2 565.46 424.364 565.46 422.1C565.46 419.836 563.624 418 561.36 418C559.095 418 557.26 419.836 557.26 422.1C557.26 424.364 559.095 426.2 561.36 426.2Z" fill="white"/>
<path d="M210.22 531.73C209.25 530.3 208.05 529.1 206.7 528.15C205.41 525.33 203.87 522.62 202.19 520.08C199.53 516.04 195.46 514.31 191.42 514.32C186.34 509.89 180.65 506.45 173.78 505.89C173.9 507.11 173.82 508.34 173.53 509.5C172.52 513.5 170.7 517.41 167.5 520.12C166.27 521.16 164.81 521.88 163.25 522.31C162.43 523.6 161.54 524.84 160.52 526C159.76 527.24 158.67 528.32 157.22 529.11C154.02 531.56 150.15 533.36 146.16 534.08C146.75 534.61 147.32 535.18 147.87 535.78C143.92 540.84 146.01 550.31 154.18 550.65C154.49 553.16 154.53 555.72 154.3 558.23C155.47 559.52 156.39 561.1 156.92 562.9C160.47 574.84 147.92 584.28 138.3 588.04C133.04 590.1 127.72 590.72 122.33 589.48C122.37 589.79 122.39 590.11 122.4 590.43C121.77 590.06 121.07 589.76 120.31 589.55C115.89 588.33 110.18 591.04 109.24 595.83C108.33 600.44 105.07 604.61 102.19 608.99C100.02 612.3 100.88 617.18 103.59 619.9C103.77 620.08 103.98 620.23 104.18 620.4C104.18 620.42 104.2 620.44 104.21 620.47C105.01 621.82 106.09 622.9 107.44 623.7C107.61 623.81 109.44 624.57 109.64 624.64C110.26 624.84 110.91 624.93 111.56 624.95C113.43 626.41 115.41 627.77 117.51 628.98C120 630.42 122.62 630.78 125.11 630.37C125.28 630.42 125.46 630.47 125.63 630.52C127.48 630.93 129.51 631.16 131.41 631.21C133.98 631.27 136.63 630.89 139.13 630.18C140.39 630.21 141.67 630.09 142.93 629.81C151.09 628.02 157.58 621.51 161 614.1C163.66 608.32 166.82 605.18 168.72 596.69C170.28 589.75 177.29 588.55 181.8 583.76C183.7 581.74 185.19 579.39 186.19 576.88C188.72 576.64 191.01 575.78 193.11 574.53C200.79 571.47 207.84 566.36 211.53 558.79C215.73 550.17 215.7 539.84 210.23 531.76L210.22 531.73Z" fill="#D8A27E"/>
<path d="M128.28 470.36C129.11 471.09 129.29 468.48 130.21 469.09C131.31 469.82 133.2 470.03 134.45 469.62C134.45 469.62 134.46 469.62 134.47 469.62C134.48 469.62 134.5 469.62 134.51 469.62C135.7 470.3 136.87 471.01 138.02 471.77C138.71 472.23 139.65 472.45 140.57 472.47C142.37 471.95 144.24 471.67 146.12 471.67C153.11 471.67 159.03 475.01 162.86 480.08C163.04 479.22 163.05 478.28 162.87 477.39C162.96 475.22 162.84 473.03 162.51 470.88C162.55 469.04 162.09 467.19 161.15 465.66C161.11 465.6 161.07 465.56 161.03 465.5C161.15 462.67 161.27 459.84 161.38 457.02C161.66 450.23 161.95 443.43 162.23 436.64C162.87 430.56 163.26 424.46 163.38 418.35C163.45 414.94 163.43 411.53 163.33 408.12C163.27 406.21 165.14 402.43 163.42 401.51C163.15 400.64 161.7 398.84 161.07 398.27C160.01 397.3 156.56 399.36 155.07 399.45C154.81 399.47 154.55 399.5 154.28 399.54C153.89 399.32 153.49 399.13 153.05 399.04C151.82 398.78 150.27 398.77 149.14 399.45C149.01 399.22 148.87 398.99 148.71 398.77C147.99 397.84 146.96 397.04 145.78 396.79C144.29 396.47 142.99 396.71 141.61 397.37C140.79 397.77 139.99 398.21 139.21 398.68C137.54 398.32 135.85 398.07 134.13 397.9C130.68 397.55 127.28 397.82 123.87 398.4C122.65 398.6 121.15 399.87 120.6 400.94C119.9 402.29 119.72 403.69 120.07 405.18C120.44 406.79 120.79 408.41 121.14 410.02C120.51 410.63 119.87 411.23 119.25 411.85C117.59 413.52 117.09 416.48 118.4 418.52C118.84 419.2 119.42 419.78 120.08 420.23C119.92 426.89 119.83 433.55 119.82 440.21C119.55 441.13 119.3 442.05 119.11 443C118.59 445.58 118.29 448.21 118.07 450.83C117.98 451.96 117.9 453.1 117.84 454.23C117.77 455.5 117.63 456.78 117.82 458.05C117.87 458.37 117.94 458.67 118.02 458.96C118.1 460.57 118.64 462.3 119.54 463.59C120.68 465.24 120.54 468.76 122.61 468.73C123.11 468.73 125.7 470.01 126.17 469.86C126.73 470.22 127.68 470.03 128.28 470.35V470.36Z" fill="white"/>
<path d="M160.93 545.53C160.7 544.32 160.39 543.13 160 541.96C160.23 541.21 160.35 540.43 160.25 539.63C160.27 539.16 160.17 538.73 159.96 538.32C159.96 538.3 159.94 538.28 159.94 538.26C159.78 536.24 159.35 534.24 158.67 532.35C158.36 531.51 157.91 530.79 157.11 530.32C156.38 529.89 155.31 529.71 154.5 529.98C153.68 530.25 152.89 530.75 152.47 531.54C152.06 532.31 151.82 533.3 152.13 534.15C152.4 534.91 152.63 535.68 152.81 536.46C152.56 536.68 152.35 536.93 152.18 537.23C152.05 537.46 151.92 537.69 151.8 537.93C151.47 538 151.17 538.13 150.9 538.32C150.34 538.73 149.85 539.08 149.52 539.72C149.21 540.33 149.02 540.99 149.02 541.68C149.02 542.2 149.14 542.64 149.29 543.08C148.95 543.44 148.59 543.76 148.21 544.07C147.26 544.78 146.24 545.37 145.18 545.88C145.77 546.95 146.27 548.08 146.68 549.26C149.43 552.89 151.11 557.41 151.32 562.24C151.32 562.38 151.32 562.52 151.32 562.65C152.09 562.55 152.86 562.41 153.61 562.23C154.84 561.94 155.58 572.18 156.66 571.53C161.88 568.37 161.91 550.71 160.93 545.51V545.53Z" fill="white"/>
<path d="M167.97 463.869C186.35 460.829 189.63 478.429 186.73 484.699C183.82 490.969 175.67 493.359 168.51 490.039" stroke="#B48568" stroke-width="6" stroke-miterlimit="10"/>
<path d="M231.6 566.57C242.91 577.63 254.71 588.3 267.98 596.99C280.61 605.27 294.4 611.43 308.32 617.2C314.26 619.66 316.85 609.99 310.98 607.56C297.87 602.12 284.93 596.15 273.03 588.36C260.47 580.13 249.38 569.97 238.68 559.5C234.08 555 227 562.06 231.61 566.57H231.6Z" fill="#C28A69"/>
<path d="M168.72 445.85C166.8 445.35 165.04 445.7 163.38 446.77C160.56 448.58 159.7 453.83 163.38 455.4C166.67 456.81 168.71 455 171.86 454.21C175.01 453.42 178.62 453.44 181.89 454.16C190.08 455.96 194.66 461.09 195.95 469.3C196.85 474.99 196.2 480.91 197.62 486.51C199.87 495.39 204.62 504.01 209.74 511.52C214.84 519 220.96 525.73 224.98 533.92C228.25 540.59 229.91 548.76 230.11 556.19C230.33 564.24 227.59 572.42 222.74 578.87C219.09 583.73 212.69 586.5 207.65 589.7C200.81 594.04 196.36 598.59 192.46 605.78C188.71 612.69 186.02 621.95 178.12 625.21C172.25 627.63 174.82 637.31 180.78 634.85C188.45 631.69 193.14 626.35 196.91 619.07C200.69 611.79 203.56 604.38 210.59 599.7C216.57 595.72 223.6 592.53 228.68 587.35C234.5 581.42 238.38 572.06 239.6 563.93C242.34 545.73 234.74 528.25 223.98 514.06C217.53 505.55 211.49 496.72 208.08 486.5C205.96 480.15 206.67 473.24 205.6 466.65C202.43 447.15 180.52 438.61 163.43 446.8H168.48L168.43 446.78V455.41L166.07 455.5C172.3 457.12 174.96 447.48 168.73 445.86L168.72 445.85Z" fill="#B48568"/>
<path d="M169.9 451.99C171.55 450.45 173.2 448.91 174.86 447.36C175.59 446.67 176.33 445.99 177.06 445.3L178.16 444.27C178.86 443.62 178.89 443.58 178.27 444.17C177.24 444.04 176.22 443.9 175.19 443.77C178.45 445.8 181.32 449.18 184.17 451.75C187.99 455.18 193.67 449.54 189.83 446.09C187.56 444.05 185.29 442.01 183.02 439.97C181.18 438.32 179.38 436.16 176.68 436.39C174.41 436.58 172.99 438.17 171.41 439.65C169.02 441.88 166.64 444.11 164.25 446.33C160.48 449.85 166.14 455.5 169.91 451.99H169.9Z" fill="#B48568"/>
<path d="M162.7 531.76C162.7 531.76 162.6 558.07 162.85 559.37C162.85 559.37 162.39 571.45 147.88 576.27" stroke="#A5A5A5" stroke-width="9" stroke-miterlimit="10" stroke-linecap="round"/>
<path d="M105.18 592.45C102.97 601.94 95.7698 611.11 85.6298 612.71C74.2398 614.5 62.4998 602.78 54.9298 595.67C47.2198 588.44 44.0898 579.32 47.5198 569.09C50.3898 560.53 62.6398 553.85 71.3698 557.45C77.3098 559.9 79.8998 550.23 74.0298 547.81C64.4798 543.87 51.0898 549.04 43.9798 555.82C36.8798 562.59 34.5398 575.52 36.7298 584.79C39.5098 596.56 49.3598 604.55 58.3998 611.65C67.7098 618.97 78.8398 625.47 90.9998 621.66C103.12 617.86 112 607.31 114.84 595.11C116.3 588.85 106.66 586.18 105.2 592.45H105.18Z" fill="#B48568"/>
<path d="M90.2498 622.16C92.9398 622.54 95.6398 622.89 98.3498 623.11C100.89 623.32 103.6 623.64 105.64 621.75C109.07 618.58 108.6 612.33 109.08 608.08C109.38 605.39 106.57 603.08 104.08 603.08C101.13 603.08 99.3798 605.38 99.0798 608.08C98.9098 609.56 98.7498 611.04 98.5798 612.52C98.5198 613.05 97.8198 615.49 98.5798 614.68L102.12 613.22C99.1798 613.57 95.8498 612.93 92.9298 612.52C90.2598 612.15 87.5598 613.17 86.7798 616.01C86.1398 618.35 87.5798 621.78 90.2698 622.16H90.2498Z" fill="#B48568"/>
<path d="M142.12 587.82C146.73 587 151.3 586.12 155.73 584.57C157.23 584.05 158.89 582.5 158.67 580.71C158.11 576.21 157.28 571.81 156.03 567.45C154.78 563.09 147.96 563.89 148.17 568.51C148.31 571.56 148.69 574.57 149.28 577.57C150.27 582.62 157.98 580.48 156.99 575.44C156.54 573.14 156.28 570.85 156.17 568.51C153.55 568.86 150.93 569.22 148.31 569.57C149.36 573.22 150.2 576.93 150.67 580.71C151.65 579.42 152.63 578.14 153.61 576.85C149.18 578.4 144.61 579.28 140 580.1C134.94 581 137.08 588.71 142.13 587.81L142.12 587.82Z" fill="#B48568"/>
<path d="M45.9598 603.45C47.4698 614.5 53.5398 622.08 62.2398 628.65C66.8298 632.11 72.2998 633.6 76.4598 637.67C80.6198 641.74 85.4297 645.5 90.7397 648.49C100.89 654.2 112.38 658.51 123.99 659.79C130.73 660.53 137.8 660.21 144.55 659.65C150.86 659.12 154.82 658.59 160.55 661.6C166.24 664.59 171.3 655.96 165.6 652.97C161.59 650.87 157.59 649.09 152.99 648.93C147 648.72 140.79 649.93 134.76 650.06C122.47 650.32 111.25 647.55 100.2 642.17C95.1698 639.72 90.0597 636.85 85.9297 633.03C81.9897 629.39 78.7498 626.22 73.8598 623.86C64.0798 619.14 57.0998 611.76 55.5998 600.81C54.7298 594.46 45.0898 597.16 45.9598 603.47V603.45Z" fill="#B48568"/>
<path d="M110.45 628.38C121.6 636.59 137.72 638.43 150.09 632.08C155.52 629.29 160.97 625.93 165.02 621.3C170.18 615.4 171.65 609.05 173.98 601.76C176.06 595.23 179.43 588.14 184.73 583.58C188.03 580.74 192.12 579.23 196.02 577.43C207.65 572.08 217.51 562.77 218.15 549.36C218.94 532.77 207.54 518.32 193.42 510.82C188.87 508.41 184.83 515.31 189.38 517.73C202.54 524.72 216.91 542.73 207.68 558.15C201.16 569.04 187.92 570.1 179.07 577.92C173.98 582.42 170.65 588.62 168.07 594.8C164.66 602.97 164.09 611.33 157.36 617.74C145.55 629 127.91 631.34 114.48 621.46C110.33 618.41 106.33 625.35 110.44 628.37L110.45 628.38Z" fill="#B48568"/>
<path d="M229.96 711.01C309.61 712.44 389.28 713.15 468.95 713.33C551.14 713.51 633.33 713.13 715.51 712.12C759.35 711.58 803.19 710.86 847.02 709.9C853.45 709.76 853.47 699.76 847.02 699.9C767.37 701.64 687.71 702.63 608.04 703.09C528.37 703.55 443.66 703.47 361.47 702.75C317.63 702.37 273.79 701.8 229.95 701.02C223.51 700.9 223.51 710.9 229.95 711.02L229.96 711.01Z" fill="#C28A69"/>
<path d="M815.84 706.109C841.01 686.029 870.42 660.099 866.58 624.319C865.66 615.779 862.02 608.639 859.17 600.689C856.08 592.029 855.49 582.779 857.16 573.749C860.52 555.649 871.69 540.609 884.54 527.959C889.13 523.439 882.06 516.369 877.47 520.889C865.1 533.059 854.26 547.339 849.21 564.169C846.71 572.489 845.66 581.399 846.57 590.049C847.5 598.859 850.98 606.249 854.01 614.449C867.29 650.419 833.62 679.199 808.77 699.029C803.74 703.039 810.86 710.079 815.84 706.099V706.109Z" fill="#C28A69"/>
<path d="M850.55 708.43C862.13 697.91 874.8 688.57 883.64 675.44C892.87 661.74 895.66 645.22 892.76 629.06C891.21 620.42 887.4 613.04 883.98 605.08C880.36 596.65 879.3 587.41 880.43 578.32C882.42 562.22 890.23 547.63 901.14 535.9C905.52 531.19 898.46 524.1 894.07 528.83C883.55 540.14 876 553.17 872.21 568.24C870.11 576.58 869.46 585.26 870.61 593.79C871.85 602.95 875.85 610.49 879.37 618.87C885.96 634.51 885.67 653.07 876.73 667.71C868.39 681.38 855.14 690.77 843.47 701.37C838.7 705.71 845.78 712.76 850.54 708.44L850.55 708.43Z" fill="#C28A69"/>
<path d="M885.83 522.389C881.62 511.529 877.64 499.549 880.41 487.819C883.05 476.649 892.64 468.049 902.56 463.029C913.4 457.539 926.23 456.829 937.52 452.309C946.93 448.549 958 443.939 962.93 434.459C965.9 428.759 957.27 423.699 954.3 429.409C951.56 434.679 946.22 437.349 941.08 439.869C934.99 442.869 928.59 445.159 922.02 446.879C909.73 450.099 898.38 452.459 888.13 460.469C879.01 467.599 871.98 476.759 870.14 488.419C868.14 501.039 871.65 513.379 876.18 525.049C878.48 530.989 888.15 528.409 885.82 522.389H885.83Z" fill="#B48568"/>
<path d="M954.52 430.34C949.95 440.69 948.26 452.23 942.95 462.24C938 471.58 930.48 479.05 922.21 485.5C917.14 489.45 924.26 496.48 929.28 492.57C937.76 485.96 945.46 478.13 950.8 468.72C956.72 458.27 958.34 446.27 963.15 435.39C965.73 429.56 957.11 424.46 954.52 430.34Z" fill="#B48568"/>
<path d="M947.18 457.49C945.4 476.23 935.97 493.3 921.5 505.24C917.52 508.52 923.21 514.15 927.16 510.9C943.33 497.57 953.21 478.29 955.19 457.5C955.68 452.38 947.67 452.41 947.19 457.5L947.18 457.49Z" fill="#B48568"/>
<path d="M896.28 537.18C914.36 543.62 933.59 532.01 943.51 517.29C949.01 509.13 952.72 499.52 955.07 490C957.75 479.15 958.39 467.91 962.51 457.43C964.86 451.44 955.2 448.84 952.87 454.77C949.4 463.61 948.38 472.95 946.56 482.2C944.89 490.67 942.31 499.03 938.23 506.66C930.94 520.3 915.43 533.41 898.96 527.54C892.89 525.38 890.27 535.03 896.3 537.18H896.28Z" fill="#B48568"/>
<path d="M156.16 658.61C169.48 668.44 183.66 677.7 195.46 689.42C200.47 694.4 204.6 700 210.39 704.18C216.31 708.45 223.06 710.58 230.31 711.05C236.74 711.46 236.71 701.46 230.31 701.05C215.61 700.11 209.07 687.88 199.03 679.12C187 668.62 174.03 659.46 161.2 649.99C156.02 646.16 151.03 654.84 156.15 658.62L156.16 658.61Z" fill="#B48568"/>
<path d="M74.1097 546.08C71.3397 536.72 74.7197 527.31 81.8797 520.89C85.1197 517.98 89.2397 515.47 93.4697 514.32C98.9297 512.83 103.97 514.87 108.92 517.07C114.75 519.66 119.84 511.05 113.97 508.44C107.57 505.59 101.14 502.97 93.9997 504.03C87.3797 505.01 81.0897 508.53 76.0097 512.79C65.5597 521.56 60.5497 535.5 64.4697 548.75C66.2897 554.91 75.9397 552.29 74.1097 546.09V546.08Z" fill="#B48568"/>
<path d="M155.42 658.029C162.29 655.659 169.52 651.119 173.3 644.779C176.61 639.239 167.97 634.209 164.67 639.729C162.28 643.739 157.11 646.879 152.77 648.379C146.72 650.469 149.32 660.129 155.43 658.019L155.42 658.029Z" fill="#B48568"/>
<path d="M117.46 470.86C117.21 469.56 118.46 396.31 118.46 396.31" stroke="#A5A5A5" stroke-width="9" stroke-miterlimit="10" stroke-linecap="round"/>
<path d="M164.02 480.23C163.77 478.93 165.02 396.3 165.02 396.3" stroke="#A5A5A5" stroke-width="9" stroke-miterlimit="10" stroke-linecap="round"/>
<path d="M133.9 538.4C143.4 540.07 153.42 540.19 162.02 535.23C168.32 531.6 172.9 525.66 175.67 519.02C184.42 498.09 171.8 473.05 148.91 469.61C142.61 468.66 139.9 478.3 146.25 479.25C163.82 481.89 173.71 500.52 165.83 516.64C160.17 528.23 148.59 530.86 136.55 528.75C130.26 527.64 127.55 537.28 133.89 538.39L133.9 538.4Z" fill="#B48568"/>
<path d="M172.13 523.82C176.36 521.11 180.51 518.32 184.27 514.97C185.59 513.79 185.74 511.6 184.9 510.12C182.66 506.19 180.1 502.54 177.29 499C174.28 495.22 169.2 500.03 171.01 503.85C172.17 506.29 173.47 508.61 174.97 510.87C177.8 515.15 184.73 511.14 181.88 506.83C180.39 504.57 179.08 502.26 177.92 499.81C175.83 501.43 173.73 503.04 171.64 504.66C174.02 507.65 176.11 510.84 178 514.16L178.63 509.31C175.38 512.21 171.77 514.57 168.11 516.91C163.79 519.68 167.8 526.61 172.15 523.82H172.13Z" fill="#B48568"/>
<path d="M102.96 503.04C101.42 492.23 105.11 483.62 115.5 479.29C125.89 474.96 136.92 477.72 147.27 479.46C153.56 480.52 156.27 470.88 149.93 469.82C135.79 467.45 121.04 464.59 107.82 471.95C102.7 474.8 98.1198 479.02 95.4098 484.26C91.8998 491.04 92.2598 498.37 93.3098 505.7C94.2098 512.05 103.85 509.35 102.95 503.04H102.96Z" fill="#B48568"/>
<path d="M105.47 589.82C121.63 598.72 141.93 594.16 151.97 578.45C161.34 563.8 157.25 544.34 144.54 533.03C139.74 528.77 132.65 535.809 137.47 540.099C146.49 548.119 150.3 561.289 144.09 572.159C137.29 584.059 122.36 587.699 110.52 581.179C104.88 578.069 99.8296 586.709 105.47 589.809V589.82Z" fill="#B48568"/>
<path d="M248.51 184.81H32.5698C18.0502 184.81 6.27979 196.58 6.27979 211.1V369.35C6.27979 383.869 18.0502 395.64 32.5698 395.64H248.51C263.029 395.64 274.8 383.869 274.8 369.35V211.1C274.8 196.58 263.029 184.81 248.51 184.81Z" fill="white" stroke="#A5A5A5" stroke-width="11" stroke-miterlimit="10" stroke-linecap="round"/>
<path d="M134.26 241.61L83.9199 328.79C81.7799 332.49 84.4499 337.11 88.7299 337.11H189.4C193.67 337.11 196.34 332.49 194.21 328.79L143.87 241.61C141.73 237.91 136.39 237.91 134.26 241.61Z" stroke="#FFC715" stroke-width="27" stroke-miterlimit="10" stroke-linecap="round"/>
</svg>
