<svg width="103" height="102" viewBox="0 0 103 102" fill="none" xmlns="http://www.w3.org/2000/svg">
<ellipse cx="80.1513" cy="83" rx="14.0265" ry="14" fill="#1C1B1A"/>
<mask id="path-2-inside-1_637_352" fill="white">
<path d="M90.4849 69.8473C86.108 78.9803 77.8355 86.7496 68.6295 91L68 90L67.5 89L67.3102 88.6203C67.1037 88.2073 66.9267 87.7801 66.7807 87.3421C66.594 86.7819 66.4585 86.2059 66.3759 85.6212L66.3213 85.2347L66.1248 83.4516L66.1248 82.5817C66.1248 81.5341 66.2939 80.4935 66.6257 79.5C66.6257 79.5 76.899 71.6249 80.1221 64.8997C83.3452 58.1744 84.1166 50.5375 82.3035 43.3054C80.4904 36.0733 76.2063 29.6991 70.1897 25.2815C64.1731 20.8639 56.8009 18.6797 49.3439 19.1054C41.887 19.5311 34.8124 22.54 29.3396 27.6135C23.8669 32.687 20.3389 39.5072 19.3637 46.8984C18.3886 54.2897 20.0274 61.789 23.9977 68.1036C27.968 74.4183 28.9076 76.662 36 79L36 91.5C26.3685 88.325 19.6593 82.7736 14.2676 74.1983C8.8759 65.623 6.65037 55.439 7.97462 45.4015C9.29887 35.3641 14.0899 26.1023 21.522 19.2124C28.954 12.3226 38.5613 8.23647 48.688 7.65837C58.8146 7.08027 68.8261 10.0464 76.9967 16.0455C85.1673 22.0447 90.9851 30.7009 93.4474 40.5222C95.9096 50.3434 94.8619 60.7143 90.4849 69.8473Z"/>
</mask>
<path d="M68.6295 91L51.7024 101.643L61.0693 116.523L77.026 109.156L68.6295 91ZM90.4849 69.8473L108.525 78.4975L108.525 78.4975L90.4849 69.8473ZM93.4474 40.5222L112.85 35.6726L93.4474 40.5222ZM76.9967 16.0455L65.1633 32.1603L65.1633 32.1603L76.9967 16.0455ZM48.688 7.65837L47.5344 -12.3064L47.5344 -12.3064L48.688 7.65837ZM21.522 19.2124L7.91589 4.54508L7.91589 4.54509L21.522 19.2124ZM7.97462 45.4015L-11.8564 42.7737L-11.8564 42.7737L7.97462 45.4015ZM36 91.5L29.7475 110.491L56.0027 119.146L56.0027 91.5132L36 91.5ZM36 79L56.0027 79.0132L56.0027 64.5416L42.2525 60.0089L36 79ZM19.3637 46.8984L39.1947 49.5263L39.1947 49.5263L19.3637 46.8984ZM70.1897 25.2815L82.0232 9.16679L82.0232 9.16679L70.1897 25.2815ZM80.1221 64.8997L62.0819 56.2494L62.0819 56.2494L80.1221 64.8997ZM66.6257 79.5L54.4478 63.6278L49.5907 67.3511L47.6522 73.1557L66.6257 79.5ZM66.1248 82.5817L86.1275 82.595L86.1275 82.5949L66.1248 82.5817ZM66.1248 83.4516L46.1221 83.4383L46.1221 84.5369L46.2424 85.629L66.1248 83.4516ZM66.3213 85.2347L46.439 87.4121L46.4724 87.7152L46.515 88.0171L66.3213 85.2347ZM67.5 89L85.3908 80.0684L85.3907 80.0683L67.5 89ZM68 90L50.1092 98.9316L50.549 99.8111L51.0729 100.643L68 90ZM66.3759 85.6212L86.1822 82.8389L86.1822 82.8387L66.3759 85.6212ZM67.3102 88.6203L49.4194 97.5519L49.4195 97.5521L67.3102 88.6203ZM66.7807 87.3421L85.7571 81.0314L85.757 81.0312L66.7807 87.3421ZM77.026 109.156C90.1098 103.115 101.98 92.1555 108.525 78.4975L72.4448 61.1971C70.2364 65.805 65.5613 70.3842 60.2331 72.8442L77.026 109.156ZM108.525 78.4975C114.915 65.1648 116.446 50.0191 112.85 35.6726L74.045 45.3717C75.3727 50.6677 74.809 56.2639 72.4448 61.1971L108.525 78.4975ZM112.85 35.6726C109.253 21.3262 100.756 8.68705 88.8302 -0.0691656L65.1633 32.1603C69.5788 35.4023 72.7172 40.0756 74.045 45.3717L112.85 35.6726ZM88.8302 -0.0691644C76.9053 -8.82479 62.3005 -13.1493 47.5344 -12.3064L49.8415 27.6231C55.3287 27.3099 60.7469 28.9176 65.1633 32.1603L88.8302 -0.0691644ZM47.5344 -12.3064C32.7686 -11.4635 18.7575 -5.50563 7.91589 4.54508L35.128 33.8798C39.1504 30.1508 44.3541 27.9364 49.8415 27.6231L47.5344 -12.3064ZM7.91589 4.54509C-2.92642 14.5964 -9.92237 28.1145 -11.8564 42.7737L27.8056 48.0294C28.5201 42.6137 31.1063 37.6081 35.128 33.8798L7.91589 4.54509ZM-11.8564 42.7737C-13.7905 57.4335 -10.5397 72.3085 -2.66541 84.8323L31.2006 63.5643C28.2915 58.9375 27.0912 53.4444 27.8056 48.0294L-11.8564 42.7737ZM-2.66541 84.8323C5.00694 97.0349 15.3502 105.745 29.7475 110.491L42.2525 72.5089C37.3868 70.905 34.3116 68.5123 31.2006 63.5643L-2.66541 84.8323ZM56.0027 91.5132L56.0027 79.0132L15.9973 78.9867L15.9973 91.4867L56.0027 91.5132ZM42.2525 60.0089C41.1979 59.6613 41.0791 59.5436 41.4017 59.7229C41.5886 59.8268 41.8698 59.9997 42.2001 60.2497C42.5343 60.5027 42.831 60.7681 43.0765 61.0174C43.5302 61.4781 43.6208 61.6997 43.1887 61.0521C42.9765 60.7341 42.711 60.3188 42.3171 59.6894C42.1218 59.3774 41.9223 59.0567 41.6854 58.6766C41.4553 58.3073 41.2014 57.9002 40.9307 57.4696L7.06469 78.7376C8.22853 80.5887 10.9904 85.4245 14.5796 89.0687C19.2695 93.8304 24.5681 96.2837 29.7475 97.9911L42.2525 60.0089ZM40.9307 57.4696C39.443 55.1035 38.8294 52.2952 39.1947 49.5263L-0.467271 44.2706C-2.05226 56.2843 0.611789 68.4745 7.06469 78.7376L40.9307 57.4696ZM39.1947 49.5263C39.5601 46.7568 40.8832 44.1929 42.9457 42.2809L15.7335 12.9462C6.85053 21.1811 1.11763 32.2576 -0.467271 44.2706L39.1947 49.5263ZM42.9457 42.2809C45.0088 40.3683 47.6797 39.231 50.4975 39.0702L48.1904 -0.859354C36.0942 -0.16882 24.6159 4.71179 15.7335 12.9462L42.9457 42.2809ZM50.4975 39.0702C53.315 38.9093 56.0939 39.7351 58.3563 41.3962L82.0232 9.16679C72.2523 1.9927 60.2868 -1.5499 48.1904 -0.859354L50.4975 39.0702ZM58.3563 41.3962C60.6178 43.0567 62.2225 45.448 62.9011 48.1549L101.706 38.4559C98.7583 26.6986 91.7948 16.3415 82.0232 9.16679L58.3563 41.3962ZM62.9011 48.1549C63.5797 50.8618 63.2922 53.7239 62.0819 56.2494L98.1623 73.5499C103.398 62.6248 104.654 50.2132 101.706 38.4559L62.9011 48.1549ZM62.0819 56.2494C62.2949 55.8049 62.2162 56.1011 61.3401 57.1427C60.561 58.069 59.5458 59.1203 58.4154 60.1891C57.3093 61.235 56.2549 62.1454 55.4785 62.7914C55.0965 63.1093 54.7974 63.3502 54.6125 63.4973C54.5204 63.5706 54.4579 63.6196 54.4289 63.6422C54.4144 63.6535 54.4084 63.6582 54.4113 63.6559C54.4128 63.6547 54.4165 63.6518 54.4226 63.6472C54.4256 63.6448 54.4292 63.6421 54.4334 63.6388C54.4355 63.6372 54.4378 63.6355 54.4402 63.6337C54.4414 63.6327 54.4433 63.6313 54.4439 63.6308C54.4458 63.6293 54.4478 63.6278 66.6257 79.5C78.8036 95.3722 78.8057 95.3706 78.8078 95.369C78.8086 95.3684 78.8107 95.3668 78.8122 95.3656C78.8152 95.3633 78.8184 95.3609 78.8218 95.3583C78.8284 95.3531 78.8358 95.3475 78.8438 95.3414C78.8597 95.3291 78.8783 95.3148 78.8993 95.2985C78.9413 95.266 78.9934 95.2256 79.0549 95.1776C79.1779 95.0816 79.3393 94.9549 79.5344 94.7996C79.9239 94.4898 80.4526 94.0629 81.0841 93.5375C82.3347 92.4968 84.05 91.0181 85.9151 89.2545C89.0511 86.2893 94.8351 80.4923 98.1623 73.5499L62.0819 56.2494ZM46.1221 82.5684L46.1221 83.4383L86.1275 83.4649L86.1275 82.595L46.1221 82.5684ZM46.2424 85.629L46.439 87.4121L86.2037 83.0573L86.0071 81.2742L46.2424 85.629ZM49.6092 97.9316L50.1092 98.9316L85.8908 81.0684L85.3908 80.0684L49.6092 97.9316ZM51.0729 100.643L51.7024 101.643L85.5567 80.3567L84.9271 79.3567L51.0729 100.643ZM46.515 88.0171L46.5696 88.4037L86.1822 82.8387L86.1276 82.4522L46.515 88.0171ZM49.4195 97.5521L49.6093 97.9317L85.3907 80.0683L85.2009 79.6886L49.4195 97.5521ZM47.8043 93.6528C48.2498 94.9892 48.7895 96.2921 49.4194 97.5519L85.201 79.6888C85.4178 80.1225 85.6037 80.5711 85.7571 81.0314L47.8043 93.6528ZM47.6522 73.1557C46.6387 76.1903 46.1221 79.3687 46.1221 82.5685L86.1275 82.5949C86.1275 83.6995 85.9492 84.7967 85.5993 85.8443L47.6522 73.1557ZM46.5696 88.4035C46.8214 90.187 47.2347 91.944 47.8044 93.6529L85.757 81.0312C85.9532 81.6197 86.0955 82.2247 86.1822 82.8389L46.5696 88.4035Z" fill="#989595" mask="url(#path-2-inside-1_637_352)"/>
</svg>
