<svg width="127" height="123" viewBox="0 0 127 123" fill="none" xmlns="http://www.w3.org/2000/svg">
<path d="M43 123H84.5L126.5 0H84.5L43 123Z" fill="#B1B1B1"/>
<path d="M9 113C9 107.477 13.4772 103 19 103H107C112.523 103 117 107.477 117 113C117 118.523 112.523 123 107 123H19C13.4772 123 9 118.523 9 113Z" fill="#1C1B1A"/>
<path d="M0 0H41.5L83.5 123H41.5L0 0Z" fill="#D9D9D9"/>
<path d="M83.5643 123L91.2999 103H76.668L83.5643 123Z" fill="#B1B1B1" fill-opacity="0.81"/>
<path d="M99.8609 78L91.2999 103H76.5L68 78H99.8609Z" fill="#3B3B3B" fill-opacity="0.1"/>
</svg>
