<svg width="126" height="123" viewBox="0 0 126 123" fill="none" xmlns="http://www.w3.org/2000/svg">
<path d="M41.5 123H83.5L126 0H85L41.5 123Z" fill="#B5B5B5"/>
<path d="M8 113C8 107.477 12.4772 103 18 103H106C111.523 103 116 107.477 116 113V113C116 118.523 111.523 123 106 123H18C12.4772 123 8 118.523 8 113V113Z" fill="#1C1B1A"/>
<path d="M82.9945 123L90.5 103H76L82.9945 123Z" fill="#B5B5B5"/>
<path d="M75.1542 103L66 78H99.5L91 103H75.1542Z" fill="#3B3B3B"/>
<path d="M0 0H41L83 123H41.5L0 0Z" fill="#D9D9D9"/>
</svg>
