<svg width="964" height="714" viewBox="0 0 964 714" fill="none" xmlns="http://www.w3.org/2000/svg">
<path d="M910.54 483.271C914.52 478.471 914.75 471.351 910.16 466.761C905.74 462.341 897.56 461.941 893.19 466.761C891.81 468.281 890.54 469.861 889.34 471.481C882.12 473.891 879.32 480.971 878.62 488.061C877.93 491.711 878.09 495.541 878.67 499.641C878.58 500.781 878.53 501.931 878.51 503.081C878.49 503.791 878.48 504.501 878.51 505.201C878.63 509.051 880.22 511.951 882.53 513.881C882.77 514.411 883.02 514.931 883.28 515.451C876.17 524.281 869.32 533.321 862.83 542.621C860.58 545.851 860.71 550.061 862.34 553.571C861.71 554.521 861.17 555.551 860.73 556.641C858.55 562.091 855.58 567.261 854.07 572.971C852.17 580.141 852.36 587.411 853.98 594.591C854.02 594.761 854.07 594.911 854.12 595.071C851.82 597.981 851.07 601.991 851.68 606.001C853.03 614.781 858 622.151 860.72 630.461C861.21 631.961 861.53 633.461 861.74 634.971C860.1 636.441 858.89 638.301 858.57 640.411C855.65 659.631 844.74 675.681 827.54 684.821C821.82 687.861 820.06 695.811 823.24 701.241C826.63 707.031 833.92 708.601 839.66 705.551C851.13 699.451 861.05 690.451 868.46 679.741C872.43 679.891 876.5 678.231 879.07 674.171C884.56 665.501 887.34 655.821 887.88 645.611C888 643.261 887.25 641.021 885.96 639.131C886.03 635.141 885.69 631.131 884.74 627.131C882.48 617.561 876.34 609.431 874.84 599.631C874.81 599.451 874.76 599.271 874.72 599.091C877.09 596.161 878.02 592.131 877.14 588.211C875.12 579.221 880.67 571.051 883.89 563.011C884.94 560.381 884.57 557.531 883.34 555.021C883.42 554.921 883.5 554.821 883.57 554.721C888.92 547.061 894.5 539.571 900.36 532.291C902.49 529.651 903.72 526.481 903.73 523.351C907.28 521.151 909.82 517.271 909.81 512.401C909.81 511.971 909.79 511.551 909.77 511.121C910.68 510.031 911.47 508.751 912.05 507.301C915.13 499.641 914.28 490.561 910.57 483.271H910.54Z" fill="#FFE1C4"/>
<path d="M955.47 454.33C955.4 452.73 954.92 451.25 954.05 449.87C953.3 448.47 952.27 447.35 950.96 446.5C949.8 445.44 948.44 444.72 946.88 444.35L943.69 443.92C943.35 443.92 943.02 443.96 942.69 443.99C941.36 443.9 940.03 444.01 938.69 444.36C936.66 444.93 934.89 445.96 933.39 447.45C933 447.91 932.6 448.37 932.21 448.83C931.47 449.52 930.89 450.29 930.42 451.14C929.5 451.4 928.56 451.77 927.62 452.3C919.99 456.52 912.12 459.41 903.61 461.33C902 461.69 900.54 462.47 899.28 463.52C897.74 463.67 896.14 464.15 894.51 465.03C879.95 472.98 874.43 489.39 878.72 503.83C878.34 505.58 878.42 507.43 879.12 509.28C879.45 510.15 879.8 511 880.15 511.86C880.25 512.67 880.42 513.49 880.66 514.29C880.66 514.4 880.65 514.5 880.65 514.6C880.65 514.71 880.65 514.83 880.65 514.94C880.62 518.99 882.92 523.4 886.59 525.3C886.68 525.35 886.78 525.38 886.87 525.43C887.26 525.77 887.65 526.11 888.04 526.44C891.97 529.85 896.57 530.6 900.61 529.04C901.05 529.12 901.48 529.21 901.92 529.29C904.11 529.72 906.3 530.14 908.49 530.57C913.91 531.63 918.37 529.58 920.95 526.17C936.21 520.28 947.46 505.98 946.01 488.36C945.56 482.89 944.36 477.54 939.59 474.21C939.27 473.98 938.94 473.78 938.62 473.58C938.99 473.38 939.36 473.19 939.73 472.99C941.75 471.87 943.19 470.45 944.15 468.87C945.8 468.68 947.37 468.18 948.84 467.32C950.02 466.82 951.05 465.92 951.91 464.97C952.54 464.16 953.16 463.35 953.79 462.54C953.85 462.45 953.91 462.36 953.95 462.26C954.35 461.3 954.76 460.35 955.16 459.39C955.2 459.29 955.23 459.19 955.25 459.08C955.75 457.48 955.82 455.89 955.46 454.29L955.47 454.33Z" fill="#D8A27E"/>
<path d="M731.74 334.34C731.7 334.25 731.65 334.16 731.61 334.07C733.57 329.79 734.13 324.86 732.71 319.88C728.7 305.8 722.9 292.11 715.55 279.45C712.27 273.79 706.15 269.99 699.69 269.03C699.43 268.3 699.11 267.58 698.77 266.88C698.62 265.12 698.26 263.43 697.71 261.81C697.27 250.2 694.3 239.59 689.25 229.09C684.62 219.46 671.53 216.44 662.4 220.29C662.29 220.34 662.18 220.4 662.07 220.45C660.71 220.29 659.35 220.18 657.97 220.15C657.58 220.15 657.27 220.15 657.03 220.15C656.83 220.08 656.67 220.02 656.52 219.97C654.05 218.48 651.6 216.99 649.15 215.44C641.58 210.65 633.09 207.43 624.02 207.42C615.47 207.41 606.62 209.82 598.24 211.38C594.12 212.15 590 212.95 585.87 213.65C585.45 213.72 585.03 213.79 584.61 213.85C584.44 213.86 584.21 213.88 583.88 213.92C581.67 213.91 579.31 214 577.1 214.11C576.63 214.08 576.16 214.05 575.7 214.02C575.64 214.01 575.58 214 575.52 213.99C573.72 213.56 571.92 213.21 570.14 212.72C566.57 211.75 563.06 210.54 559.56 209.33C551.99 206.71 544.45 203.99 536.93 201.21C536.3 200.98 535.66 200.79 535.01 200.64C533.84 199.18 532.67 197.74 531.52 196.27C527.95 191.7 521.93 189.76 515.94 190.01C514.98 186.5 514.06 182.98 513.22 179.43C513.03 178.24 512.76 177.04 512.36 175.8C508.91 165.12 497.3 157.1 485.91 160.78C477.89 163.38 472.47 169.5 470.82 176.95L469.83 178.13C468.14 180.13 466.45 182.13 464.76 184.13C464.45 184.12 464.15 184.1 463.83 184.1H463.24C459.18 183.95 455.39 184.79 451.87 186.64C448.43 187.76 445.42 189.64 442.85 192.26C440.73 191.35 438.55 190.67 436.33 190.18C435.71 190.43 435.09 190.67 434.45 190.88C431.72 192.31 428.85 193.21 425.84 193.61C425.8 193.58 425.78 193.53 425.74 193.5C424.27 192.15 422.7 191.53 420.81 191.25C418.18 189.89 414.66 190.5 412.32 192.36C410.55 192.94 408.7 194.3 407.84 195.94C407.77 196.08 407.71 196.22 407.64 196.37C406.45 197.26 405.3 198.22 404.2 199.29C396.04 207.21 388.79 216.44 383.1 226.35C380.52 229.93 378.55 233.89 377.72 237.52C377.51 238.44 377.34 239.35 377.19 240.27C375.82 244.42 374.93 248.62 374.65 252.84C371.36 253.97 369.25 253.65 366.66 255.41C366.13 255.69 364.84 257.72 364.32 258.02C353.52 264.36 345.34 276.28 344.13 288.92C343.7 290.02 343.29 291.13 342.9 292.25C334.98 306.2 329.91 321.4 328.89 337.56C328.02 351.32 332.52 363.3 337.8 375.27C336.83 377.74 336.33 380.34 336.32 383.08C336.32 383.67 336.32 384.25 336.32 384.84C336.14 387.5 336.36 390.37 337.09 392.46C337.76 395.26 339.04 397.7 340.94 399.77C341.05 399.94 341.18 400.08 341.29 400.24C341.52 407.55 341.58 414.87 341.43 422.2C339.99 434.61 340.79 446.88 343.73 458.82C343.14 465.91 344.16 473.5 348.3 479.1C349.82 481.16 351.36 483.2 352.92 485.22C354.04 489.16 355.74 493.01 358.06 496.64C362.27 503.25 368.03 509.24 373.38 514.98C381.76 523.98 390.61 532.53 399.89 540.6C420.02 558.12 441.8 573.93 465 587.12C472.24 591.23 482.39 593.2 490.69 591.01C496.62 592.71 503.04 593.1 509.36 593.2C511.92 593.24 514.44 593.17 516.93 592.99C519.51 594.16 522.38 594.73 525.44 594.43C535.52 593.45 545.21 592.25 554.63 589.62C558.94 591.59 563.93 592.15 569.02 590.83C572.25 589.99 575.46 589.06 578.65 588.04C588.15 585.33 597.33 581.52 606 576.77C606.52 576.5 607.05 576.25 607.57 575.98C624.3 570.67 639.05 559.81 652.59 549.02C665.35 538.84 678.3 528.11 689.86 516.58C704 502.47 719.25 481.36 717.07 460.34C718.21 455.27 719.11 450.15 719.87 445.01C721.33 435.1 722.46 425.16 723.49 415.2C724.26 407.78 724.88 400.4 724.54 392.99C724.74 391.91 724.85 390.8 724.87 389.69C724.91 389.32 724.92 388.96 724.94 388.6C725.25 386.5 725.22 384.4 724.89 382.37C725.92 380.07 726.83 377.71 727.52 375.31C728.63 371.5 729.19 367.52 729.64 363.56C730.92 361.69 731.9 359.58 732.45 357.26C733.41 353.18 733.93 348.97 734.31 344.8C734.64 341.15 733.62 337.56 731.75 334.38L731.74 334.34Z" fill="#FFE1C4"/>
<path d="M306.62 133.55C319.44 118.16 326.71 102.17 311.79 89.8201C279.71 82.5201 239.87 116.43 232.02 147.68C219.21 182.78 246.87 224.62 265.66 177.95C268.06 172.18 276.88 163.84 286.74 154.29C287.83 154.59 288.96 154.74 290.14 154.69C291.42 154.52 292.71 154.34 293.99 154.17C294.47 154.04 294.92 153.86 295.37 153.69C295.47 153.66 295.56 153.62 295.65 153.59C295.7 153.57 295.76 153.55 295.81 153.53C296.58 153.25 297.33 152.9 298.05 152.45C300.23 151.46 302.59 148.86 303.79 146.83C303.96 146.55 304.1 146.27 304.25 146C304.51 145.65 304.76 145.31 305.02 144.96C306.08 143.3 306.65 141.5 306.74 139.57C306.89 138.9 306.95 138.23 306.98 137.56C307.11 136.22 306.98 134.89 306.62 133.55Z" fill="#FFE1C4"/>
<path d="M818.96 123.89C813.82 116.81 807.92 110.88 800.57 106.06C797.11 103.79 793.38 102.03 789.58 100.4C784.69 98.3 779.9 95.78 774.47 95.73C772.84 95.71 771.24 96.02 769.72 96.56C765.83 94.69 761.4 93.98 756.89 94.37C747.56 95.18 740.34 102.98 742.91 112.72C743.88 116.38 745.98 119.66 749.11 121.8C749.16 122.86 749.33 123.92 749.66 124.96C751.95 132.27 752.47 138.25 751.65 146.14C751 152.37 756.61 158.56 762.3 160.12C765.62 161.03 769.28 160.62 772.42 159.15C772.62 159.28 772.83 159.39 773.04 159.51C773.51 160.17 774.03 160.79 774.63 161.35C779.3 165.8 783.76 170.46 787.92 175.4C790.95 178.98 794.91 182.95 796.11 187.5C796.53 189.08 797.2 190.51 798.07 191.77C800.05 196.27 804.08 199.64 809.3 200.26C816.24 201.09 823.44 197 825.21 189.87C825.54 188.53 825.84 187.19 826.13 185.84C829.85 183.54 832.55 179.48 832.75 173.91C833.38 156.47 829.34 138.16 818.97 123.87L818.96 123.89Z" fill="#FFE1C4"/>
<path d="M267.96 537.55C269.38 538.01 270.79 538.82 272.1 540.08C273.49 541.42 274.8 542.8 275.94 544.32C278.01 544.53 280.1 545.44 281.99 547.31C286.46 551.71 291.19 555.83 295.65 560.23C296.13 558.88 296.62 557.53 297.14 556.19C299.05 551.28 297.29 546.88 293.98 543.88C294.02 542.84 294.04 541.8 294.03 540.77C293.97 534.89 293.6 529.02 292.92 523.18C291.77 513.32 289.97 503.63 287.34 494.1C285.85 495.78 284.1 497.21 281.95 498.16C276.56 500.53 270.98 499.62 267.61 494.4C264.92 490.23 266.2 483.04 270.66 480.44C271.54 479.24 272.41 478.03 273.24 476.78C271.86 476.68 270.44 476.8 269 477.2C262.47 478.99 257.72 486.49 259.92 493.19C263.61 504.42 266.34 516.01 267.38 527.8C267.67 531.04 267.85 534.3 267.94 537.55H267.96Z" fill="#FADBBF"/>
<path d="M804.69 692.601C805.25 686.191 803.3 679.661 798.19 674.941C794.92 671.921 791.66 668.911 788.39 665.891C785.56 662.431 782.1 659.471 778.22 657.201C777.14 656.571 776.03 656.061 774.9 655.631C773.88 653.631 772.54 651.721 770.89 649.971C752.99 630.961 731.18 615.231 707.28 604.691C701.42 602.111 695.99 600.601 689.56 602.371C684.22 603.841 678.44 607.961 675.81 612.941C673.33 617.631 672.41 623.701 673.34 629.351C673.07 629.701 672.8 630.041 672.53 630.391C672.46 630.461 672.38 630.531 672.27 630.631C671.51 631.351 670.85 632.191 670.11 632.941C669.36 633.681 668.58 634.371 667.79 635.061C667.27 635.361 666.42 636.111 666.16 636.291C664.61 637.331 663.03 638.311 661.42 639.251C658.41 641.011 655.3 642.611 652.17 644.161C650.6 644.941 649.02 645.711 647.43 646.441C647.26 646.521 646.92 646.721 646.54 646.931C646.32 646.991 646.04 647.091 645.67 647.221C642.06 648.531 638.45 649.721 634.68 650.531C634.38 650.591 633.53 650.761 632.67 650.931C633.17 650.821 631.35 651.131 630.91 651.151C629.4 651.231 627.89 651.371 626.37 651.431C618.42 651.771 610.46 651.321 602.51 651.021C592.1 650.631 582 650.941 571.66 652.391C567.34 653.001 563.11 653.921 558.87 654.901C556.43 655.461 553.99 655.991 551.54 656.471C551.01 656.581 548.06 657.351 550.91 656.601C553.95 655.791 548.91 656.571 548.39 656.581C540.91 656.741 533.61 660.731 529.3 666.761C526.9 665.881 524.3 665.391 521.54 665.371C516.26 665.341 510.98 665.141 505.72 664.691C504.17 664.561 502.63 664.381 501.08 664.241C499.79 664.121 499.44 664.121 499.62 664.161C497.52 663.871 495.41 663.401 493.37 663.021C482.66 661.041 472.19 658.101 461.96 654.361C457.15 652.601 451.79 653.181 447.02 655.301C445.25 655.171 443.49 655.051 441.72 654.931C441.22 653.511 440.54 652.121 439.63 650.811C434.78 643.791 429.07 640.111 420.98 638.191C417.45 637.361 413.96 636.341 410.54 635.161C409.08 634.661 407.65 634.091 406.2 633.571C405.64 633.321 405.08 633.071 404.52 632.811C401.47 631.381 398.49 629.811 395.58 628.111C392.67 626.411 389.83 624.591 387.08 622.651C386.49 622.241 385.92 621.811 385.34 621.391C384.22 620.441 383.08 619.521 381.98 618.551C379.26 616.151 376.65 613.631 374.18 610.981C373.12 609.841 372.08 608.691 371.07 607.511C370.2 606.501 365.82 600.821 369.81 606.101C364.75 599.411 358.81 594.711 349.95 594.711C345.99 594.711 341.96 595.801 338.45 597.781C334.06 597.801 329.26 598.521 325.11 600.391C324.72 600.551 324.34 600.731 323.97 600.921C322.76 599.301 321.08 597.901 319.08 597.491C318.23 597.321 317.38 597.111 316.51 597.141C316.01 597.161 314.49 597.341 314 597.471C313.94 597.471 313.89 597.491 313.83 597.521C313.11 597.821 312.4 598.121 311.68 598.431C311.28 598.681 310.97 598.951 310.57 599.261C309.7 599.931 309.68 599.901 309.35 600.331C309.01 599.601 309 599.611 309.32 600.361C309.3 600.391 309.27 600.421 309.25 600.451C309.03 599.721 308.81 598.871 308.61 598.021C307.17 598.911 305.46 599.441 303.5 599.441H299.7C298.07 599.441 296.46 603.711 295.22 603.171C293.47 603.121 291.89 598.521 290.19 598.301C288.74 598.111 287.38 597.761 286.15 597.241C283.88 597.771 281.45 597.411 279.2 595.731C277.42 594.401 275.63 593.071 273.85 591.741C264.97 586.601 257.35 579.741 249.31 573.171C247.38 571.591 246.43 569.251 246.29 566.811C244.21 567.741 242.16 568.751 240.19 569.901C236.73 571.921 233.47 574.351 230.38 576.911C229.15 577.931 227.97 578.981 226.82 580.081C226.69 580.211 226.56 580.341 226.43 580.471C224.29 580.401 222.17 580.731 219.89 581.971C217.91 583.041 216.41 584.501 215.1 586.151C212.31 586.261 209.7 587.311 207.47 589.131C202.57 588.781 197.25 590.821 195.22 595.411C193.46 599.391 192.15 604.101 192.11 608.531C188.85 610.061 185.91 612.341 183.65 615.271C179.91 620.111 178.06 627.371 179.06 633.941C178.72 634.081 178.38 634.241 178.06 634.441C176.43 635.421 174.86 636.481 173.38 637.651C173.33 637.691 173.28 637.721 173.23 637.761C173.18 637.801 173.13 637.851 173.07 637.901C170.88 639.651 168.87 641.601 167.09 643.811C164.09 647.531 163.43 652.661 166.92 656.351C168.32 660.481 172.72 663.441 177.06 662.721C177.48 663.651 178.1 664.481 178.95 665.141C188.43 672.511 197.01 680.831 204.66 690.081C205.98 691.681 207.91 692.491 209.93 692.661C210.02 692.861 210.13 693.061 210.22 693.261C214.51 698.431 221.28 702.351 228.02 701.771C229.2 701.671 230.38 701.581 231.56 701.481C233.54 706.241 238.24 710.011 243.57 709.691C282.71 707.321 322.12 703.381 361.36 704.021C400.5 704.651 439.66 706.661 478.79 708.061C479.97 708.101 481.12 707.941 482.22 707.641C495.2 710.091 508.41 711.341 521.57 711.421C527.12 711.451 532.55 709.191 536.75 705.541C539.04 707.421 541.98 708.581 545.14 708.781C572.21 710.491 599.32 711.261 626.44 711.091C632.8 711.051 637.6 710.171 639.13 705.501C658.65 705.501 677 704.471 696.51 704.791C708.69 704.991 721.2 702.301 733.34 703.391C736.53 703.681 739.72 704.001 742.9 704.361C744.49 704.541 746.08 704.751 747.67 704.931C747.74 704.931 747.79 704.941 747.85 704.951C747.97 704.971 748.09 704.991 748.22 705.011C749.06 705.131 749.89 705.271 750.73 705.401C752.46 704.471 754.21 703.681 755.93 703.051C757.05 706.131 759.74 708.571 764.01 708.571C775.15 708.571 786.24 707.921 797.31 706.611C802.14 706.041 806.31 702.881 806.31 697.611C806.31 695.941 805.72 694.171 804.73 692.641L804.69 692.601Z" fill="#FFE1C4"/>
<path d="M156.34 626.32C148.39 630.8 139.93 632.48 130.86 631.82C130.52 631.8 130.18 631.8 129.85 631.82C129.44 631.67 129.03 631.53 128.62 631.37C125.62 629.9 122.56 628.59 119.44 627.39C117.08 626.48 114.91 626.76 113.11 627.76C112.82 627.45 112.51 627.15 112.18 626.87C111.51 625.98 110.62 625.18 109.49 624.53C108.67 624.06 107.87 623.58 107.08 623.09C105.39 621.85 103.69 620.61 102 619.37C99.0698 617.23 95.8397 617.61 93.2397 619.27C87.3497 616.37 82.0698 612.67 76.7998 608.76C76.1798 608.3 75.5698 607.96 74.9498 607.7L73.7398 606.56C65.2998 598.64 52.5397 611.34 61.0097 619.29C64.8597 622.9 68.6998 626.5 72.5498 630.11C74.8798 632.29 77.4798 632.95 79.8698 632.59C80.6298 633.02 81.3898 633.45 82.1698 633.85C84.1198 634.86 86.7398 635.69 88.8198 636.98C88.6898 640.88 90.6998 644.69 95.2498 645.37C105.41 646.89 115.58 648.4 125.74 649.92C126.38 650.01 127.01 650.06 127.63 650.07C128.01 650.19 128.38 650.33 128.76 650.45C131.28 651.24 133.47 650.94 135.23 649.97C145.82 649.95 156.15 647.09 165.42 641.86C175.51 636.17 166.45 620.62 156.34 626.32Z" fill="#FADBBF"/>
<path d="M231.27 539.27C229.16 534.05 226.8 528.97 224.04 524.07C223.87 523.04 223.5 522.04 222.86 521.12C220.68 517.98 218.5 514.84 216.32 511.69C215.8 510.93 215.17 510.25 214.47 509.65C214.28 508.75 213.93 507.87 213.39 507.08C209.78 501.69 205.59 496.13 200.66 491.63C200.73 491.56 200.82 491.49 200.89 491.41C202.43 489.73 203.72 487.4 203.53 485.05C203.33 482.59 203 480.14 202.54 477.72C202.4 476.96 202.05 476.19 201.58 475.46C202.3 473.72 202.49 471.74 201.99 469.7C201.35 467.09 200.29 464.54 199.04 462.16C198.71 461.54 198.29 460.98 197.8 460.47L197.77 460.23C197.34 458.71 196.57 457.38 195.46 456.26C195.12 455.92 194.78 455.58 194.44 455.24C193.63 454.36 192.66 453.74 191.54 453.38C190.47 452.82 189.31 452.56 188.07 452.6C188.03 452.6 187.99 452.6 187.95 452.6C187.92 452.37 187.89 452.15 187.86 451.92C187.43 450.4 186.66 449.07 185.55 447.95C185.5 447.9 185.45 447.85 185.4 447.8C184.58 446.92 183.62 446.3 182.5 445.94C181.43 445.38 180.27 445.12 179.03 445.16C178.87 445.16 178.71 445.18 178.55 445.18C177.48 444.7 176.23 444.43 174.81 444.43C169.72 444.43 166.86 447.91 166.25 451.81C165.05 456.94 167.85 463.16 174.67 463.16C175.4 463.16 176.09 463.09 176.73 462.95C177.51 463.21 178.33 463.34 179.19 463.3C179.23 463.3 179.27 463.3 179.31 463.3C179.34 463.53 179.37 463.75 179.4 463.98C179.83 465.5 180.6 466.83 181.71 467.95L182.61 468.85C182.8 469.65 183.09 470.45 183.5 471.23C183.64 471.49 183.75 471.76 183.88 472.02C184.17 472.82 184.43 473.64 184.64 474.47C184.83 475.26 185.16 476 185.58 476.69C184.87 478.55 184.79 480.42 185.18 482.49C185.27 482.95 185.33 483.42 185.41 483.88C185.45 484.27 185.5 484.65 185.53 485.04C185.55 485.25 185.57 485.46 185.6 485.66C184.8 485.87 184.02 486.18 183.27 486.6C179.65 488.66 178.33 491.78 177.54 495.37C176.79 496.66 176.37 498.13 176.48 499.64C176.83 504.48 179.33 506.69 182.76 509.58C185.97 512.29 189.78 514.65 193.28 512.46C194.68 514.16 196.62 514.3 197.86 516.15C198.38 516.93 198.99 517.61 199.68 518.21C199.88 519.1 200.23 519.96 200.79 520.77L206.77 529.39C206.97 530.18 207.27 530.95 207.69 531.68C209.64 535.01 211.66 538.87 213.15 542.23C213.13 543 213.18 543.78 213.3 544.56C213.76 547.39 213.95 550.42 213.84 553.39C213.23 554.38 212.81 555.55 212.66 556.91C211.79 557.89 211.07 559.08 210.57 560.44C210.27 561.25 210.05 561.83 209.85 562.35C207.75 564.79 205.64 567.23 203.54 569.67C202.84 570.48 202.27 571.41 201.84 572.39C201.84 572.39 201.84 572.39 201.83 572.39C188.6 574.95 179.35 584.35 174.86 596.34C172.04 601.6 169.6 607.01 167.42 612.57C166.88 613.95 166.87 615.42 167.23 616.83C167.23 616.94 167.23 617.05 167.23 617.16C166.23 617.59 165.25 618.15 164.36 618.86C164.12 619.05 163.89 619.25 163.65 619.44C162.03 619.82 160.54 620.57 159.32 621.79L155.09 626.02C154.77 626.34 154.48 626.71 154.21 627.09C153.73 627.4 153.23 627.7 152.73 627.99C151.69 628.6 150.87 629.32 150.23 630.11C147.58 630.89 144.92 631.53 142.25 632.02C140.93 629.39 138.41 627.35 134.66 627.14C128.8 626.81 122.8 627.66 116.9 627.69C114.9 626.13 112.79 624.73 110.5 623.58C110.11 623.38 109.71 623.22 109.31 623.08C105.84 620.38 101.8 620.84 98.81 622.86C94.87 619.9 90.95 616.92 87.06 613.9C89.47 613.51 91.7 612.31 93.63 610.63C96.7 609.55 99.53 607.72 101.76 605.38C105.14 601.83 106.94 597.31 107.63 592.58C108.05 592.07 108.43 591.51 108.74 590.92C109.22 590.25 109.66 589.51 110 588.68C110.66 587.1 110.78 585.4 110.51 583.74C111.04 583.48 111.57 583.17 112.1 582.79C123.96 588.98 138.26 583.1 145.94 572.87C154.36 561.66 154.45 545.64 145.89 534.45C145.01 533.3 143.96 532.32 142.81 531.56C143.85 531.21 144.89 530.84 145.92 530.43C147.78 530.83 149.87 530.63 152.03 529.57C152.91 529.14 153.77 528.66 154.61 528.17C163.22 525.91 169.1 517.47 171.32 508.78C172.11 505.71 171.13 502.91 169.31 500.84C168.96 496.84 167.65 492.87 165.35 489.29C155.41 473.79 123.98 463.34 110.55 479.8C110.18 480.26 109.86 480.75 109.57 481.25C109.06 481.54 108.56 481.85 108.07 482.19C102.78 485.86 98.97 492.03 98.95 498.6C98.94 501.6 99.77 504.72 101.31 507.29C101.94 508.35 102.71 509.33 103.49 510.29C102.67 510.66 101.83 510.99 100.99 511.29C99.48 511.1 97.97 511.03 96.52 511.12C91.34 511.43 86.69 514.57 84.37 518.79C74.67 521.89 66.9 529.26 67.34 540.18C67.46 543.12 68.15 545.93 68.82 548.76C67.74 548.64 66.64 548.75 65.59 549.17C56.17 552.97 47.04 558.67 46.78 569.83C41.89 573.84 40.21 580.41 42.5 586.39C45.67 594.66 54.81 600.64 63.39 604.48C63.24 604.62 63.08 604.75 62.93 604.89C59.78 608.04 59.12 614.56 62.93 617.62C73.22 625.89 83.68 633.96 94.3 641.81C96.25 643.26 98.25 643.6 100.08 643.21C100.34 643.32 100.61 643.43 100.89 643.52C103.57 644.4 106.27 644.9 108.97 645.17C109.95 647.45 111.91 649.04 114.28 649.93C115.02 650.4 115.84 650.76 116.75 650.92C127.7 652.84 138.32 652.84 149.27 650.92C151.25 650.57 152.87 649.36 154.01 647.75C155.58 647.3 157.15 646.81 158.7 646.28C160.72 645.59 162.18 644.42 163.19 643.02C166.26 644.79 170.22 644.82 173.47 641.5C175.29 639.65 177.1 637.79 178.92 635.94C180.18 634.65 180.95 633.26 181.31 631.87C185.18 626.3 188.33 620.3 190.89 613.85C191.55 612.17 191.43 610.35 190.8 608.67C191.29 607.81 191.75 606.93 192.22 606.06C194.66 606.16 197.12 605.33 198.84 603.48C203.45 598.53 208.31 593.83 213.41 589.38C214.13 588.76 214.68 588.01 215.09 587.2C224.49 585.81 228.97 573.6 230.23 563.95C230.56 563.33 230.79 562.65 230.89 561.92C231.7 555.89 231.84 550.23 231.25 544.36C231.87 542.74 231.98 540.96 231.28 539.23L231.27 539.27Z" fill="#EFC19F" stroke="white" stroke-miterlimit="10"/>
<path d="M158.39 490.14C158.39 490.14 158.46 490.14 158.49 490.14L157.16 489.96C157.16 489.96 157.23 489.98 157.26 489.99L156.07 489.49C156.14 489.52 156.2 489.56 156.25 489.61L155.24 488.83C155.62 489.14 156.01 489.45 156.41 489.74C156.45 489.77 156.49 489.79 156.53 489.82L156.57 489.84L157.76 490.34C157.99 490.39 158.23 490.43 158.47 490.44C158.7 490.49 158.93 490.52 159.16 490.53C159.17 490.53 159.19 490.53 159.2 490.53C159.65 490.49 160.1 490.43 160.55 490.35C160.58 490.35 160.61 490.33 160.63 490.33L161.82 489.83C161.82 489.83 161.86 489.81 161.88 489.8C162.06 489.69 162.46 489.36 162.44 489.37C162.82 489.08 162.82 489.11 163 488.92C163.15 488.77 163.7 488.06 163.8 487.88L164.3 486.69C164.3 486.69 164.31 486.66 164.31 486.65C164.34 486.42 164.37 486.2 164.4 485.97C164.52 485.53 164.52 485.08 164.4 484.64C164.37 484.41 164.34 484.18 164.31 483.95L163.81 482.76C163.72 482.61 163.14 481.85 163.02 481.72C162.87 481.56 162.69 481.42 162.49 481.31C162.32 481.15 162.14 481.02 161.95 480.9C161.38 480.53 160.76 480.34 160.09 480.31C159.43 480.16 158.76 480.19 158.1 480.4C157.45 480.55 156.88 480.85 156.4 481.29C155.86 481.64 155.43 482.11 155.11 482.69L154.61 483.88C154.37 484.77 154.37 485.65 154.61 486.54L155.11 487.73C155.55 488.48 156.15 489.08 156.9 489.52L156.93 489.54L155.92 488.76L155.94 488.78L155.16 487.77V487.8C155.01 487.4 154.84 487 154.67 486.61V486.64C154.67 485.75 154.67 484.87 154.67 483.98C154.67 484 154.67 484.02 154.65 484.04L155.15 482.85L155.13 482.88L155.91 481.87C155.91 481.87 155.88 481.91 155.86 481.93L156.87 481.15C156.87 481.15 156.8 481.2 156.76 481.22L157.95 480.72C157.95 480.72 157.9 480.74 157.87 480.74L159.2 480.56C159.2 480.56 159.14 480.56 159.12 480.56L160.45 480.74H160.41C160.81 480.9 161.21 481.07 161.6 481.23C161.53 481.2 161.48 481.16 161.42 481.12L162.43 481.9C162.01 481.56 161.61 481.19 161.15 480.91C160.94 480.8 160.73 480.71 160.51 480.63C160.3 480.53 160.08 480.44 159.86 480.36C159.39 480.21 158.87 480.12 158.38 480.17C157.69 480.14 157.05 480.29 156.45 480.6C155.83 480.8 155.29 481.15 154.84 481.63C154.35 482.08 154.01 482.62 153.81 483.24C153.5 483.84 153.35 484.48 153.38 485.17L153.56 486.5C153.8 487.35 154.23 488.08 154.85 488.71L155.86 489.49C156.64 489.94 157.48 490.17 158.38 490.17L158.39 490.14Z" fill="#EFC19F"/>
<path d="M111.88 525.34C111.26 523.87 110.64 522.39 110.02 520.92C108.38 518.14 106.16 515.93 103.38 514.28L98.9601 512.42C98.0201 512.17 97.0801 512 96.1501 511.89C94.6401 511.43 93.0702 511.22 91.4102 511.28C88.8602 511.18 86.4902 511.71 84.2802 512.87C81.9902 513.62 80.0002 514.89 78.3302 516.7C77.3702 517.95 76.4002 519.2 75.4402 520.44C73.7702 523.33 72.9202 526.44 72.9102 529.78L73.5702 534.7C74.4502 537.83 76.0302 540.55 78.3302 542.86C80.9102 545.3 84.2101 547.49 87.7401 548.26C91.0601 548.98 95.7101 549.47 98.9601 548.1C101.37 547.53 103.46 546.42 105.25 544.79C107.26 543.49 108.85 541.76 110.01 539.6C111.36 537.48 112.09 535.18 112.21 532.72C112.76 530.26 112.65 527.8 111.88 525.34Z" fill="#EFC19F"/>
<path d="M122.2 637.37C120.75 635.11 118.79 633.63 116.22 632.77C115 632.36 113.78 631.96 112.55 631.55C111.22 631.13 109.89 631.07 108.56 631.37C108.48 631.37 108.4 631.39 108.32 631.4C108.97 624.47 104.82 617 95.8297 617C79.0997 617 79.0697 643 95.8297 643C97.3497 643 98.7198 642.78 99.9698 642.39C100.1 643.75 100.5 645.08 101.25 646.25C102.71 648.51 104.66 649.99 107.23 650.85C108.45 651.26 109.67 651.66 110.9 652.07C112.23 652.49 113.56 652.55 114.89 652.25C116.22 652.19 117.46 651.79 118.61 651.06C120.68 649.85 122.66 647.47 123.21 645.08C123.79 642.52 123.67 639.65 122.2 637.37Z" fill="#EFC19F"/>
<path d="M182.39 625.12C180.77 621.29 177.32 619.26 173.25 618.97C168.7 618.64 165.8 621.51 163.08 624.56C162.07 625.69 160.98 626.75 159.84 627.75C159.56 627.65 159.28 627.56 158.99 627.5C158.1 627.38 157.22 627.26 156.33 627.14C154.73 627.14 153.24 627.52 151.83 628.23C150.11 628.86 148.34 629.36 146.53 629.71C144.18 630.16 141.73 632.3 140.55 634.31C139.3 636.45 138.76 639.61 139.54 642.02C140.8 645.91 143.7 648.33 147.24 649.02C148.29 649.86 149.48 650.47 150.8 650.84C151.69 650.96 152.57 651.08 153.46 651.2C155.26 651.2 156.95 650.74 158.51 649.83C159.26 649.42 160 649.02 160.75 648.61C161.24 648.34 161.68 648.03 162.09 647.68C164.36 648.17 166.76 647.89 168.83 646.48C173.15 643.54 177.1 640.17 180.3 636.04C182.85 632.75 184.1 629.21 182.37 625.12H182.39Z" fill="#EFC19F"/>
<path d="M200.39 601.071C199.75 598.751 197.96 596.241 195.79 595.091C193.47 593.861 190.66 593.251 188.08 594.081C185.73 594.841 183.19 596.351 182.1 598.681C181.08 600.851 180.06 603.021 179.05 605.201C177.89 607.681 177.29 610.171 178.04 612.911C178.68 615.231 180.47 617.741 182.64 618.891C184.96 620.121 187.77 620.731 190.35 619.901C192.7 619.141 195.24 617.631 196.33 615.301C197.35 613.131 198.37 610.961 199.38 608.781C200.54 606.301 201.14 603.811 200.39 601.071Z" fill="#EFC19F"/>
<path d="M310.59 308.54C310.61 308.49 310.62 308.43 310.64 308.38C310.64 308.38 310.64 308.39 310.64 308.4C310.63 308.45 310.62 308.49 310.6 308.54H310.59Z" fill="#FF9527"/>
<path d="M705.09 500.43C705.03 500.55 704.98 500.67 704.95 500.79C704.98 500.68 705.04 500.55 705.09 500.43Z" fill="#FF9527"/>
<path d="M814.25 397.47C814.29 397.34 814.34 397.21 814.39 397.08C815.91 392.21 819.26 388.06 820.37 383.05C831.92 361.32 833.15 334.42 826.91 310.46C825.74 305.96 823.32 302.1 820.13 299.08C830.42 256.39 817.59 209.73 788.48 177.01C785.27 173.4 780.56 171.07 775.54 170.1C774.67 169.15 773.77 168.23 772.87 167.31C770.13 162.21 765.48 157.97 760.33 155.22C758.78 151.79 757.13 148.41 755.36 145.08C754.86 144.13 754.25 143.38 753.58 142.79C751.54 135.18 748.79 127.82 745.62 120.47C735.87 97.8796 719.69 79.0996 700.15 64.4196C678.01 47.7896 650.82 39.0696 623.35 37.3796C619.52 37.1496 615.73 38.0696 612.3 39.8096C603.39 30.2696 591.71 23.6096 578.86 19.6196C559.88 13.7196 539.92 11.4496 520.28 14.8196C509.75 16.6296 498.65 21.1696 490.73 28.4996C489.5 29.6396 488.36 30.8696 487.3 32.1796C484.28 33.0296 481.36 34.5396 478.77 36.4996C477.97 36.3396 477.16 36.1896 476.35 36.0596C474.68 33.3196 473.3 30.3096 471.85 28.0896C471.85 28.0896 471.84 28.0796 471.83 28.0696C471.37 26.9396 470.9 25.8096 470.44 24.6796C468.8 20.6896 465.13 17.8496 460.6 19.0896C456.82 20.1296 453.36 24.9096 455.01 28.9296C455.78 30.7996 456.55 32.6696 457.32 34.5496C447.55 34.4696 437.74 35.6496 428.14 37.3796C409.16 40.8196 390.34 48.5596 374.15 58.9996C344.7 77.9896 322.75 104.92 307.47 135.88C307.26 136.07 307.07 136.26 306.88 136.48C303.12 140.99 299.66 145.73 296.63 150.76C296.36 151.21 296.15 151.68 295.98 152.16C294.69 153.36 293.39 154.57 292.1 155.77C289.81 157.9 288.08 160.43 286.87 163.17C283.48 166.56 280.21 170.07 277.06 173.7C273.67 174.88 270.49 176.83 267.77 179.62C262.33 185.2 257.47 191.48 253.33 198.07C251.42 201.11 250.36 204.57 250.03 208.14C246.9 211.17 244.41 215.06 242.75 219.62C231.92 249.31 231.22 282.78 239.86 313.12C240.57 315.6 241.63 317.89 242.97 319.96C241.83 321.07 240.85 322.38 240.12 323.87C236.8 330.6 234.24 337.67 232.65 344.93C225.94 361.57 226.41 379.95 232.77 396.87C237.44 409.3 244.31 420.42 251.09 431.65C249.23 434.35 248.18 437.62 248.42 441.36C249.77 462.15 253.05 482.84 258.49 502.96C259.14 505.35 260.28 507.48 261.75 509.3C267.05 522.95 275.49 535.02 285.77 545.65C286.53 548.49 288.01 551.11 290.34 553.11C304.9 565.68 319.92 577.54 337.5 584.85C337.64 584.95 338.8 583.17 338.95 583.27C344.1 586.87 349.15 587.94 354.89 587.64C355.3 589.12 355.92 590.54 356.82 591.87C379.15 624.6 411.88 648.85 450.02 659.93C452.45 660.64 454.96 660.73 457.38 660.34C461.42 663.71 465.71 666.75 470.86 668.23C474.42 669.25 478.34 669.56 482.03 669.65C483.28 669.68 484.54 669.68 485.79 669.7C485.11 669.73 487.2 669.95 488.39 670.42C492.38 671.98 497.26 671.21 501.37 669.06C506.69 671.23 512.08 673.65 517.54 675.7C517.58 675.89 517.62 676.07 517.66 676.26C518.22 678.6 519.29 680.64 520.88 682.38C522.15 684.34 523.83 685.88 525.93 687.02C527.36 687.62 528.8 688.23 530.23 688.83C532.62 689.58 535.02 689.69 537.41 689.15C539.03 689.15 540.55 688.74 541.95 687.92C544.18 687.19 546.11 685.95 547.74 684.2C548.68 682.99 549.62 681.77 550.55 680.56C550.91 679.94 551.22 679.3 551.51 678.66C556.26 677.54 560.96 675.89 565.75 673.88C570.74 671.78 575.73 669.68 580.72 667.58C583.07 666.59 585.42 665.6 587.77 664.62C588.28 664.41 588.79 664.19 589.29 663.98C591.57 664.01 593.83 663.83 595.96 663.43C599.99 662.67 603.57 660.78 606.54 658.15C607.23 657.78 607.92 657.4 608.59 657.01C609.86 657.62 611.17 658.16 612.52 658.6C619.43 660.84 625.89 658.71 632.17 656.03C633.15 655.61 634.08 655.09 634.98 654.53C637.21 654.55 639.47 654.28 641.72 653.69C650.46 651.4 657.29 646.46 664.45 641.29C668.11 638.65 671.76 636.01 675.42 633.37C680.21 630.78 684.68 627.49 688.74 623.49C693.07 619.23 695.43 613.66 695.92 607.94C696.88 607.15 697.83 606.34 698.75 605.53C702 602.65 704.11 598.94 705.2 594.92C712.84 594.14 720.03 590.2 724.05 582.99C724.73 583.45 725.53 583.73 726.37 583.76C727.44 585.65 729.76 586.86 731.8 585.33C735.15 582.82 738.51 580.33 741.9 577.87C742.33 577.77 742.77 577.6 743.22 577.31C747.19 574.77 751.03 572.06 754.74 569.19C760.58 565.07 766.43 560.96 772.27 556.84C774.06 555.58 774.36 553.58 773.78 551.95C774.3 551.4 774.81 550.84 775.32 550.29C776.89 550.89 778.8 550.54 780.04 548.64C787.07 537.84 794.03 526.98 799.89 515.55C800.4 514.86 800.92 514.16 801.43 513.47C802.01 512.67 802.18 511.86 802.1 511.1C804.19 506.75 806.1 502.31 807.79 497.76C808.17 497.28 808.54 496.79 808.92 496.32C811.45 493.16 808.43 488.93 805.47 489.32C813.6 467.93 817.72 444.61 820.88 422.28C821.88 415.19 822.08 409.08 818.31 402.63C817.26 400.84 815.87 399.09 814.26 397.49L814.25 397.47ZM459.85 182.55C458.84 183.42 457.82 184.29 456.81 185.15C456.48 185.24 456.14 185.33 455.81 185.42C457.15 184.56 458.48 183.6 459.85 182.55ZM718.44 470.71C716.64 475.69 714.76 480.64 712.8 485.56C712.34 486.72 711.87 487.87 711.4 489.03C711.29 489.3 709.05 494.86 710.67 490.83C712.09 487.3 710.57 490.94 710.24 491.65C709.64 492.92 709.03 494.19 708.37 495.43C707.75 496.6 705.73 498.89 705.09 500.44C705.77 498.99 707.73 497.76 705.09 500.69C705.04 500.74 704.99 500.79 704.94 500.85V500.87C704.94 500.87 704.94 500.86 704.94 500.85C704.21 501.65 703.47 502.43 702.71 503.2C699.26 506.71 695.64 510.03 692.37 513.71C686.07 520.79 680.38 528.48 675.66 536.71C665.43 543.21 655.69 550.46 646.37 558.2C645.61 558.5 644.86 558.83 644.11 559.19C635.06 563.55 625.93 567.75 616.72 571.75C615.5 572.28 607.71 575.75 614.15 572.88C612.43 573.65 610.67 574.33 608.93 575.05C604.28 576.96 599.62 578.82 594.94 580.63C586.16 584.03 577.31 587.27 568.41 590.33C562.54 592.35 556.38 594.89 550.19 596.82C549.12 596.66 548.04 596.54 546.93 596.51C542.53 596.38 538.49 597.37 534.94 599.17C533.44 598.2 531.75 597.49 529.87 597.11C520.82 595.31 512.08 594.69 503.16 595.25C494.72 589.95 485.5 586.11 475.48 584.41C472.35 583.88 469.06 583.93 465.98 584.66C463.46 583.35 460.95 582.02 458.45 580.67C450.66 576.45 442.84 572.22 435.28 567.61C426.79 562.43 422.64 559.51 416.43 553.64C412.38 549.81 406.56 547.98 401.1 548.61C396.38 543.22 391.42 538.04 386.17 533.15C383.28 530.46 379.77 528.78 376.13 528.22C375.69 527.14 375.23 526.05 374.74 524.95C372.68 520.33 368.13 517.57 363.21 516.62C359.14 510.18 355.08 503.75 351.01 497.31C346.85 484.14 342.66 470.97 338.46 457.82C338.46 457.36 338.46 456.9 338.46 456.44C338.46 456.44 338.46 456.43 338.46 456.42C338.56 449.26 338.69 442.12 337.86 434.98C337.34 430.53 335.6 426.14 332.79 422.8C332.88 422.16 333.01 421.21 333.06 420.81C333.82 415.54 334.69 410.29 335.67 405.07C336.76 399.33 338.5 393.32 338.07 387.45C337.53 380.19 334.33 374.53 331.24 368.19C331.15 367.96 331.04 367.68 330.94 367.39C330.58 366.31 330.22 365.24 329.91 364.15C329.13 361.41 328.61 358.63 328.23 355.82C327.93 353.66 327.06 351.72 325.81 350.04C325.8 349.95 325.79 349.86 325.78 349.76C325.67 348.82 325.57 347.87 325.49 346.93C325.17 343.52 324.98 340.11 324.9 336.7C324.94 336.44 324.99 336.19 325.02 335.92C325.56 331.55 325.7 327.27 325.44 322.87C325.44 322.81 325.43 322.76 325.42 322.7C326.34 321.26 327.08 319.68 327.59 317.96C329.72 310.77 331.58 303.51 333.18 296.19C335.25 292.14 337.5 288.19 339.91 284.32C340.98 282.59 341.66 280.67 342.02 278.68C345.33 275.83 348.64 272.99 351.95 270.14C353.33 268.96 354.4 267.55 355.21 266C356.77 264.24 357.88 262.37 358.58 260.43C364.41 258.67 369.55 255.01 372.01 249.32C372.91 247.23 373.73 245.2 374.46 243.18C374.5 243.2 374.54 243.21 374.58 243.23C376.57 238.44 378.55 233.65 380.54 228.86C381.16 228.13 381.76 227.36 382.37 226.56C384.88 223.25 386.65 218.7 387.4 214.18C388.19 212.15 388.98 210.13 389.78 208.1C390.09 207.31 390.31 206.47 390.48 205.59C391.98 203.69 393.48 201.8 394.98 199.9C399.75 196.33 404.52 192.77 409.28 189.2C409.5 189.04 409.71 188.87 409.92 188.71C413.35 190.45 417.2 191.45 421.25 191.56C422.75 191.6 424.19 191.52 425.59 191.36C432.79 192.72 439.4 193.26 446.59 191.32C453.67 189.4 458.83 185.8 464.53 181.37C465.57 180.56 466.49 179.6 467.3 178.54C474.37 174.89 480.81 169.92 485.89 164.17C487.39 162.47 488.68 160.59 489.75 158.58C490.73 158.99 491.75 159.3 492.78 159.52C494.73 160.67 496.81 161.32 499.05 161.42C500.27 161.69 501.48 161.8 502.7 161.74C518.65 188.65 548.33 204.86 579.49 209.88C595.13 212.4 612.89 214.17 627.36 208.2C630.47 212.02 634.25 215.32 638.47 217.84C646.01 222.36 656.59 222.33 664.36 217.84C666.43 217.94 668.5 217.96 670.56 217.84C674.57 217.62 678.67 217.09 682.71 216.2C683.12 216.28 683.52 216.36 683.93 216.43C685.67 217.34 687.51 218.05 689.43 218.53C689.45 220.42 689.63 222.34 689.99 224.3C691.16 230.71 693.61 236.39 696.22 242.36C697.09 244.34 698.38 246.12 699.97 247.69C700.33 253.15 701.9 258.61 704.28 263.81C706.44 268.52 710.67 271.98 715.59 274.05C715.62 274.23 715.76 274.66 716.09 275.46C717.18 278.08 718.28 280.71 719.34 283.35C721.24 288.03 723.07 292.74 724.78 297.49C728.4 307.53 731.51 317.79 733.51 328.29C733.73 329.43 733.93 330.57 734.12 331.72C734.14 331.82 734.16 331.98 734.19 332.17C734.26 332.73 734.33 333.34 734.36 333.6C734.48 334.76 734.58 335.92 734.66 337.08C735.01 342.01 735.08 346.96 734.8 351.9C734.7 353.73 734.4 355.57 734.26 357.4C734.22 357.59 734.18 357.79 734.15 357.98C733.05 359.22 732.06 360.58 731.23 362.09C726.12 371.46 723.94 380.26 722.77 390.75C722.22 395.7 724.79 401.82 727.99 406.15C727.76 406.81 727.55 407.49 727.39 408.17C725.55 415.81 725.85 421.62 727.12 429.29C727.48 431.46 722.12 434.15 723.12 435.99C721.27 439.49 726.19 442.83 725.85 447.2C725.8 447.82 725.75 448.45 725.71 449.07C723.45 456.32 721.05 463.52 718.46 470.66L718.44 470.71Z" fill="#FF9527"/>
<path d="M704.94 500.79C704.94 500.79 704.93 500.83 704.92 500.84C704.92 500.82 704.93 500.81 704.94 500.79Z" fill="#FF9527"/>
<path d="M310.23 309.539C310.26 309.459 310.3 309.369 310.33 309.279C310.3 309.369 310.26 309.449 310.23 309.539Z" fill="#FF9527"/>
<path d="M310.33 309.28C310.42 309.04 310.52 308.78 310.59 308.54C310.52 308.78 310.42 309.03 310.33 309.28Z" fill="#FF9527"/>
<path d="M247.64 205.12C247.64 205.12 197.88 159.2 251.41 110.29C251.41 110.29 282.74 75.9596 326.15 98.5596" stroke="#C28A69" stroke-width="10" stroke-miterlimit="10" stroke-linecap="round"/>
<path d="M264.89 140.299C274.87 142.299 278.68 149.139 281.65 158.169C283.25 163.039 290.98 160.949 289.36 156.039C285.55 144.469 279.75 135.139 267.01 132.589C261.98 131.579 259.83 139.289 264.88 140.299H264.89Z" fill="#C28A69"/>
<path d="M812.18 205.119C812.18 205.119 861.94 159.199 808.41 110.289C808.41 110.289 778.97 81.7695 738.6 100.559" stroke="#C28A69" stroke-width="10" stroke-miterlimit="10" stroke-linecap="round"/>
<path d="M792.81 132.589C780.07 135.139 774.27 144.479 770.46 156.039C768.85 160.939 776.57 163.039 778.17 158.169C781.15 149.129 784.95 142.299 794.93 140.299C799.97 139.289 797.84 131.579 792.8 132.589H792.81Z" fill="#C28A69"/>
<path d="M697.42 610.34C720.14 615.5 740.88 628.42 758.31 643.55C778.22 660.83 794.8 682.02 805.31 706.28C807.86 712.17 816.48 707.08 813.94 701.23C802.95 675.84 785.21 653.42 764.24 635.5C745.77 619.72 724 606.14 700.08 600.7C693.81 599.28 691.14 608.92 697.42 610.34Z" fill="#C28A69"/>
<path d="M312.21 604.05C327.5 600.59 343.2 600.94 358.77 600.12C365.17 599.78 365.21 589.78 358.77 590.12C342.29 590.99 325.74 590.75 309.56 594.41C303.29 595.83 305.94 605.47 312.22 604.05H312.21Z" fill="#C28A69"/>
<path d="M298.53 608.65C302.1 606.82 307.76 605.33 312.21 604.05C318.38 602.27 315.76 592.62 309.55 594.41C304.17 595.96 298.48 597.46 293.48 600.02C287.75 602.95 292.8 611.58 298.53 608.65Z" fill="#C28A69"/>
<path d="M332.91 394.63C332.11 419.21 332.27 443.83 337.59 467.96C342.14 488.63 353.77 507.14 368.48 522.16C395.17 549.41 428.43 571.24 463.77 585.36C484.14 593.5 505.48 598.89 527.27 601.47C535.79 602.48 544.71 600.45 553.06 598.88C563.74 596.87 574.27 594.11 584.58 590.66C622.84 577.84 656.07 555.75 685.97 529.01C701.66 514.97 715.43 497 721.76 476.72C729.97 450.44 729.61 421.84 728.72 394.63C728.51 388.21 718.51 388.18 718.72 394.63C719.49 418.3 719.51 442.05 714.4 465.3C710.08 484.93 699 502.24 684.86 516.32C659.54 541.52 628.79 562.59 595.64 575.96C576.49 583.68 556.06 589.35 535.49 591.54C527.5 592.39 519.28 590.5 511.47 588.99C501.48 587.06 491.62 584.5 481.95 581.35C444.82 569.25 412.48 548.29 383.42 522.54C368.73 509.52 355.45 493.04 349.53 474.07C341.58 448.61 342.06 421 342.92 394.64C343.13 388.2 333.13 388.21 332.92 394.64L332.91 394.63Z" fill="#C1671E"/>
<path d="M359.06 258.15C341.25 271.92 329.6 292.37 324.96 314.27C320.15 336.96 321.11 362.65 332.44 383.32C335.53 388.96 344.17 383.92 341.07 378.27C330.79 359.52 330.3 335.6 334.99 315.13C339.68 294.66 350.02 277.67 366.12 265.23C371.2 261.3 364.08 254.27 359.05 258.16L359.06 258.15Z" fill="#C1671E"/>
<path d="M698.53 267.851C714.98 280.321 722.66 300.661 725.15 320.571C727.59 340.051 727.06 361.681 717.45 379.201C714.35 384.851 722.99 389.901 726.08 384.251C736.99 364.361 737.81 340.241 734.83 318.161C731.73 295.201 722.42 273.511 703.58 259.231C698.45 255.341 693.46 264.021 698.53 267.861V267.851Z" fill="#C1671E"/>
<path d="M376.2 256.88C379.22 241.58 384.6 226.92 393.58 214.08C402.52 201.3 414.77 191.45 428.47 184.16C434.15 181.14 429.11 172.5 423.42 175.53C392.64 191.9 373.26 220.27 366.55 254.22C365.31 260.51 374.95 263.2 376.19 256.88H376.2Z" fill="#C1671E"/>
<path d="M701.16 290.5C708.37 273.95 707.97 256.33 700.89 239.8C698.39 233.97 695.22 228.49 691.38 223.44C689.33 220.75 686.67 216.8 683.43 215.37C677.6 212.8 672.5 221.41 678.38 224C678.71 224.15 679.44 224.78 678.5 223.98C678.98 224.39 679.45 224.81 679.87 225.26C681.05 226.52 682.2 227.79 683.25 229.15C686.43 233.28 689.1 237.89 691.27 242.62C697.47 256.17 698.54 271.63 692.52 285.44C689.97 291.28 698.59 296.38 701.15 290.49L701.16 290.5Z" fill="#C1671E"/>
<path d="M424.32 200.121C455.03 198.201 484.72 183.171 496.43 153.361C498.78 147.371 489.12 144.771 486.79 150.701C476.83 176.051 450.13 188.511 424.33 190.121C417.94 190.521 417.89 200.521 424.33 200.121H424.32Z" fill="#C1671E"/>
<path d="M497.38 163.611C506.37 186.311 528.03 203.621 550.38 212.121C574.46 221.281 602.32 223.391 626.81 214.881C632.85 212.781 630.25 203.121 624.15 205.241C602.14 212.891 578.22 211.151 556.34 203.671C536.32 196.831 515.05 181.221 507.02 160.961C504.68 155.051 495 157.621 497.38 163.621V163.611Z" fill="#C1671E"/>
<path d="M588.16 177.851C588.16 177.851 609.07 224.501 700.6 219.271" stroke="#C1671E" stroke-width="10" stroke-miterlimit="10" stroke-linecap="round"/>
<path d="M309.07 141.34C318.62 113.52 336.79 88.6002 360.71 71.4002C387.23 52.3302 419.27 42.8402 451.82 42.9402C458.26 42.9602 458.26 32.9602 451.82 32.9402C417.14 32.8402 382.46 43.0402 354.4 63.6902C328.86 82.4702 309.71 108.72 299.43 138.69C297.34 144.79 306.99 147.41 309.07 141.35V141.34Z" fill="#C1671E"/>
<path d="M455.52 5.15039C455.52 5.15039 449.36 39.4304 469.8 51.1804" stroke="#C1671E" stroke-width="10" stroke-miterlimit="10" stroke-linecap="round"/>
<path d="M451.92 8.6303C457.89 22.6703 466.81 34.8803 480.92 41.5303C495.03 48.1803 512.06 48.8003 527.62 44.7103C533.84 43.0803 531.2 33.4303 524.96 35.0703C511.59 38.5803 497.11 38.5503 484.56 32.2103C472.58 26.1603 465.68 15.6303 460.56 3.59029C458.05 -2.30971 449.43 2.78029 451.93 8.6403L451.92 8.6303Z" fill="#C1671E"/>
<path d="M485.82 34.7303C504.15 19.1703 528.38 13.5703 551.93 16.6303C575.13 19.6503 595.09 31.1203 613.55 44.9103C618.71 48.7603 623.7 40.0903 618.6 36.2803C598.07 20.9503 575.97 9.28034 550.19 6.43034C524.45 3.58034 498.6 10.8203 478.76 27.6603C473.85 31.8303 480.95 38.8703 485.83 34.7303H485.82Z" fill="#C1671E"/>
<path d="M618.76 45.5104C650.02 42.7204 682.17 51.8504 706.55 71.8704C729.69 90.8804 744.87 118.04 749.55 147.55C750.55 153.89 760.19 151.2 759.19 144.89C754.2 113.39 737.32 83.7804 712.39 63.8004C686.17 42.7904 652.23 32.5204 618.76 35.5004C612.4 36.0704 612.34 46.0704 618.76 45.5004V45.5104Z" fill="#C1671E"/>
<path d="M760.44 162.18C782.76 173.61 800.51 193.84 809.48 217.26C817.95 239.37 821.1 266.01 816.08 289.29C814.73 295.56 824.36 298.25 825.72 291.95C831.19 266.58 828.21 237.33 818.6 213.28C808.5 188.02 789.82 166.02 765.48 153.55C759.76 150.62 754.7 159.25 760.43 162.18H760.44Z" fill="#C1671E"/>
<path d="M804.26 283.111C836.51 315.401 833.03 374.891 802.26 406.741C797.79 411.371 804.85 418.451 809.33 413.811C843.86 378.061 847.46 312.211 811.33 276.031C806.78 271.471 799.7 278.541 804.26 283.101V283.111Z" fill="#C1671E"/>
<path d="M803.46 358.29C808.58 376.89 801.66 396.39 785.64 407.22C781.4 410.09 785.4 417.02 789.68 414.13C808.68 401.29 817.29 378.36 811.18 356.17C809.82 351.21 802.1 353.32 803.47 358.3L803.46 358.29Z" fill="#C1671E"/>
<path d="M357.91 591.66C329.98 581.24 303.15 566.17 284.09 542.75C268.66 523.79 260.3 500.46 255.86 476.67C253.21 462.46 251.9 448.05 251 433.64C250.6 427.25 240.6 427.2 241 433.64C242.67 460.25 245.64 487.4 255.42 512.41C265.31 537.73 281.93 558.9 303.92 574.86C319.58 586.23 337.19 594.55 355.26 601.3C361.3 603.55 363.9 593.89 357.92 591.66H357.91Z" fill="#C1671E"/>
<path d="M463.32 67.8405C460.03 77.7005 459.35 88.9905 460.62 99.2305C463.31 120.881 476.92 137.471 496.76 146.141C501.43 148.181 505.51 141.291 500.8 139.231C482.7 131.321 470.13 116.63 468.33 96.6105C467.54 87.8305 468.22 78.3805 471.03 69.9605C472.66 65.0605 464.94 62.9705 463.32 67.8305V67.8405Z" fill="#C1671E"/>
<path d="M487.8 102.34C486.49 117.81 494.96 132.29 509.19 138.55C513.86 140.6 517.93 133.71 513.23 131.64C501.34 126.41 494.7 115.31 495.81 102.33C496.25 97.2004 488.24 97.2304 487.81 102.33L487.8 102.34Z" fill="#C1671E"/>
<path d="M292.62 148.17C269.59 163.88 250.49 185.86 238.99 211.33C227.49 236.8 224.59 265.74 231.22 293.24C234.64 307.44 240.65 320.86 249.64 332.4C253.59 337.47 260.62 330.35 256.71 325.33C237.44 300.59 233.34 263.86 241.28 234.2C249.68 202.86 271.03 174.97 297.67 156.8C302.95 153.19 297.96 144.53 292.62 148.17Z" fill="#C1671E"/>
<path d="M257.04 273.041C246.72 289.831 251.29 314.271 263.25 329.011C266.49 333.011 272.12 327.321 268.91 323.351C259.2 311.381 255.64 290.601 263.96 277.071C266.66 272.671 259.75 268.651 257.05 273.031L257.04 273.041Z" fill="#C1671E"/>
<path d="M340.79 560.42C347.74 580.46 354.58 599.84 368.24 616.47C383.89 635.53 405.56 650.06 428.21 659.54C443.12 665.78 458.78 669.53 474.9 670.68C481.32 671.14 481.29 661.14 474.9 660.68C443.95 658.47 414.01 645.01 390.55 624.87C379.3 615.21 369.9 603.84 363.13 590.61C357.76 580.12 354.27 568.86 350.42 557.76C348.33 551.72 338.66 554.31 340.78 560.42H340.79Z" fill="#C1671E"/>
<path d="M236.35 313.841C209.18 355.671 219.1 419.241 257.26 451.431C262.15 455.561 269.26 448.521 264.33 444.361C229.43 414.911 220.07 357.241 244.99 318.891C248.51 313.481 239.85 308.461 236.36 313.841H236.35Z" fill="#C1671E"/>
<path d="M252.15 391.711C248.84 411.091 254.84 434.991 272.26 446.021C276.62 448.781 280.64 441.861 276.3 439.111C262.18 430.171 257.2 409.501 259.87 393.831C260.73 388.791 253.02 386.631 252.16 391.701L252.15 391.711Z" fill="#C1671E"/>
<path d="M272.81 405.5C271.02 418.75 271.7 433.41 282.79 442.6C286.73 445.86 292.42 440.23 288.45 436.94C279.67 429.67 279.09 418.19 280.52 407.63C281.2 402.6 273.49 400.42 272.81 405.5Z" fill="#C1671E"/>
<path d="M414.08 607.29C420.68 633.18 437.74 655.72 462.68 666.21C475.04 671.41 488.4 673.46 500.92 678.2C511.8 682.31 523.16 687.13 527.92 698.53C530.36 704.38 540.04 701.81 537.56 695.87C533.14 685.27 525.91 678.52 515.59 673.66C503.17 667.81 490.23 664.57 477.14 660.72C463.81 656.8 451.86 650.36 442.37 640.07C433.17 630.09 427.06 617.72 423.72 604.63C422.13 598.4 412.48 601.04 414.08 607.29Z" fill="#C1671E"/>
<path d="M320.79 548.8C326.04 568.6 334.73 589.76 354.73 598.59C360.56 601.17 365.66 592.55 359.78 589.96C342.07 582.14 335.07 563.64 330.43 546.15C328.78 539.94 319.13 542.57 320.79 548.81V548.8Z" fill="#C1671E"/>
<path d="M710.26 600.8C743.06 585.57 774.23 564.88 794.65 534.41C811.75 508.9 819.06 478.78 822.12 448.58C823.81 431.88 824.15 414.5 819.68 398.16C817.98 391.96 808.33 394.59 810.04 400.82C813.71 414.23 813.84 428.65 812.69 442.43C811.44 457.34 809.26 472.19 805.27 486.63C797.43 515.02 781.86 539.63 759.45 558.79C743.25 572.64 724.48 583.24 705.21 592.18C699.38 594.89 704.45 603.51 710.26 600.81V600.8Z" fill="#C1671E"/>
<path d="M713.89 557.761C710.04 568.861 706.55 580.121 701.18 590.611C694.41 603.831 685.01 615.201 673.76 624.871C650.31 645.021 620.36 658.471 589.41 660.681C583.03 661.141 582.98 671.141 589.41 670.681C638.41 667.181 689.98 637.611 711.46 592.301C716.34 582.001 719.8 571.161 723.52 560.421C725.63 554.331 715.98 551.711 713.88 557.761H713.89Z" fill="#C1671E"/>
<path d="M640.6 604.631C637.33 617.461 631.4 629.621 622.48 639.501C612.91 650.091 600.78 656.721 587.19 660.721C574.36 664.501 561.6 667.581 549.45 673.371C539.12 678.301 532.31 685.281 527.93 695.871C525.47 701.811 535.14 704.401 537.57 698.531C542.16 687.451 551.92 682.651 562.58 678.511C575.34 673.551 589.02 671.531 601.65 666.211C626.59 655.721 643.65 633.181 650.25 607.291C651.84 601.051 642.2 598.391 640.61 604.631H640.6Z" fill="#C1671E"/>
<path d="M733.89 546.151C729.25 563.651 722.25 582.141 704.54 589.961C698.67 592.551 703.75 601.171 709.59 598.591C729.59 589.761 738.28 568.601 743.53 548.801C745.18 542.571 735.54 539.921 733.89 546.141V546.151Z" fill="#C1671E"/>
<path d="M493.67 427.17C492.57 422.14 494.78 416.97 499.17 414.26C504.87 410.73 515.23 406.92 533.36 406.92C551.49 406.92 561.39 410.72 566.67 414.25C570.59 416.87 572.65 421.51 571.95 426.16C570.43 436.32 563.94 455.78 533.35 455.78C502.76 455.78 495.94 437.55 493.66 427.17H493.67Z" fill="#060001"/>
<path d="M524.24 417.389V499.319C524.24 510.259 541.24 510.279 541.24 499.319V417.389C541.24 406.449 524.24 406.429 524.24 417.389Z" fill="#060001"/>
<path d="M585.21 313.029C600.36 308.949 615.5 304.879 630.65 300.799C638.1 298.799 634.94 287.219 627.46 289.229C612.31 293.309 597.17 297.379 582.02 301.459C574.57 303.459 577.73 315.039 585.21 313.029Z" fill="#060001"/>
<path d="M483.46 301.46C468.31 297.38 453.17 293.31 438.02 289.23C430.55 287.22 427.37 298.79 434.83 300.8C449.98 304.88 465.12 308.95 480.27 313.03C487.74 315.04 490.92 303.47 483.46 301.46Z" fill="#060001"/>
<path d="M459.15 387.47C472.466 387.47 483.26 376.676 483.26 363.36C483.26 350.044 472.466 339.25 459.15 339.25C445.835 339.25 435.04 350.044 435.04 363.36C435.04 376.676 445.835 387.47 459.15 387.47Z" fill="#060001"/>
<path d="M470.26 360.27C473.016 360.27 475.25 358.036 475.25 355.28C475.25 352.524 473.016 350.29 470.26 350.29C467.504 350.29 465.27 352.524 465.27 355.28C465.27 358.036 467.504 360.27 470.26 360.27Z" fill="white"/>
<path d="M606.33 387.47C619.645 387.47 630.44 376.676 630.44 363.36C630.44 350.044 619.645 339.25 606.33 339.25C593.014 339.25 582.22 350.044 582.22 363.36C582.22 376.676 593.014 387.47 606.33 387.47Z" fill="#060001"/>
<path d="M617.44 360.27C620.196 360.27 622.43 358.036 622.43 355.28C622.43 352.524 620.196 350.29 617.44 350.29C614.684 350.29 612.45 352.524 612.45 355.28C612.45 358.036 614.684 360.27 617.44 360.27Z" fill="white"/>
<path d="M561.36 426.2C563.624 426.2 565.46 424.364 565.46 422.1C565.46 419.836 563.624 418 561.36 418C559.095 418 557.26 419.836 557.26 422.1C557.26 424.364 559.095 426.2 561.36 426.2Z" fill="white"/>
<path d="M207.14 530.501C206.17 529.071 204.97 527.871 203.62 526.921C202.33 524.101 200.79 521.401 199.11 518.851C196.45 514.821 192.38 513.081 188.34 513.101C183.25 508.671 177.57 505.241 170.69 504.681C170.81 505.901 170.73 507.131 170.44 508.291C169.43 512.291 167.61 516.201 164.41 518.921C163.18 519.961 161.72 520.691 160.16 521.111C159.34 522.401 158.45 523.641 157.43 524.811C156.67 526.061 155.58 527.131 154.13 527.921C150.94 530.371 147.06 532.181 143.07 532.901C143.66 533.431 144.23 534.001 144.78 534.601C140.83 539.661 142.93 549.131 151.1 549.461C151.41 551.971 151.45 554.531 151.22 557.041C152.39 558.331 153.31 559.911 153.84 561.701C157.4 573.631 144.85 583.081 135.23 586.851C129.97 588.911 124.65 589.541 119.26 588.301C119.3 588.611 119.32 588.931 119.33 589.251C118.7 588.881 118 588.581 117.24 588.371C112.82 587.161 107.11 589.861 106.17 594.661C105.27 599.271 102 603.441 99.1301 607.831C96.9601 611.141 97.8201 616.021 100.54 618.741C100.72 618.921 100.93 619.071 101.13 619.241C101.13 619.261 101.15 619.281 101.16 619.311C101.96 620.661 103.04 621.741 104.39 622.541C104.56 622.651 106.39 623.411 106.59 623.471C107.21 623.671 107.86 623.751 108.51 623.781C110.38 625.241 112.36 626.591 114.46 627.811C116.95 629.251 119.57 629.611 122.06 629.201C122.23 629.251 122.41 629.301 122.58 629.351C124.43 629.761 126.46 629.991 128.36 630.041C130.93 630.101 133.58 629.721 136.08 629.011C137.34 629.041 138.62 628.921 139.88 628.641C148.04 626.851 158.11 624.461 161.53 617.041C164.19 611.251 167.68 602.871 171.2 597.671C175.19 591.781 174.22 587.351 178.73 582.561C180.63 580.541 182.12 578.191 183.12 575.681C185.65 575.431 187.94 574.581 190.04 573.321C197.72 570.251 204.77 565.141 208.45 557.571C212.65 548.941 212.61 538.621 207.14 530.541V530.501Z" fill="#D8A27E"/>
<path d="M162.51 470.88C162.55 469.04 162.09 467.19 161.15 465.66C161.11 465.6 161.07 465.56 161.03 465.5C161.15 462.67 161.27 459.84 161.38 457.02C161.66 450.23 161.95 443.43 162.23 436.64C162.87 430.56 163.26 424.46 163.38 418.35C163.45 414.94 163.43 411.53 163.33 408.12C163.27 406.21 162.12 404.26 160.4 403.33C160.13 402.46 159.66 401.62 159.04 401.05C157.98 400.08 156.56 399.36 155.08 399.44C154.82 399.46 154.56 399.49 154.29 399.53C153.9 399.31 153.5 399.12 153.06 399.03C151.83 398.77 150.28 398.76 149.15 399.44C149.02 399.21 148.88 398.98 148.72 398.76C148 397.83 146.97 397.03 145.79 396.78C144.3 396.46 143 396.7 141.62 397.36C140.8 397.76 140 398.2 139.22 398.67C137.55 398.31 135.86 398.06 134.14 397.89C130.69 397.54 127.29 397.81 123.87 398.39C122.65 398.59 121.15 399.86 120.6 400.93C119.9 402.28 119.72 403.68 120.07 405.17C120.44 406.78 120.79 408.4 121.14 410.01C120.51 410.62 119.87 411.22 119.25 411.84C117.59 413.51 117.09 416.47 118.4 418.51C118.84 419.19 119.42 419.77 120.08 420.22C119.92 426.88 119.83 433.54 119.82 440.2C119.55 441.12 119.3 442.04 119.11 442.99C118.59 445.57 118.29 448.2 118.07 450.82C117.98 451.95 117.9 453.09 117.84 454.22C117.77 455.49 117.63 456.77 117.82 458.04C117.87 458.36 117.94 458.66 118.02 458.95C118.1 460.56 118.64 462.29 119.54 463.58C120.68 465.23 122.28 466.33 124.36 466.3C124.86 466.3 125.35 466.21 125.83 466.07C126.39 466.43 126.98 466.76 127.57 467.07C128.4 467.8 129.29 468.46 130.21 469.07C131.31 469.8 133.2 470.01 134.45 469.6C134.45 469.6 134.46 469.6 134.47 469.6C134.48 469.6 134.5 469.6 134.51 469.6C135.7 470.28 136.87 470.99 138.02 471.75C139.04 472.43 140.58 472.61 141.82 472.38C144.24 473.82 146.62 475.34 148.94 476.95L149.56 477.2C149.42 480.61 151.92 481.68 151.78 485.09C151.73 486.37 153.71 487.72 154.65 488.57C155.58 489.42 153.81 491.9 155.07 492.06C156.23 492.2 156.42 492.74 157.42 492.09C158.59 491.34 159.72 490.16 159.96 488.73C160.24 487.09 160.43 485.45 160.58 483.8C160.66 483.73 160.75 483.68 160.83 483.61C161.77 482.8 162.5 481.53 162.81 480.33C163.05 479.39 163.08 478.35 162.87 477.36C162.96 475.19 162.84 473 162.51 470.85" fill="white"/>
<path d="M183.96 533.911C183.59 531.951 183.08 530.021 182.45 528.121C182.83 526.901 183.02 525.641 182.85 524.341C182.88 523.581 182.72 522.881 182.38 522.221C182.37 522.191 182.36 522.161 182.34 522.131C182.07 518.861 181.38 515.611 180.27 512.561C179.77 511.191 179.03 510.031 177.74 509.271C176.56 508.581 174.82 508.291 173.5 508.721C172.17 509.151 170.89 509.981 170.21 511.251C169.55 512.501 169.15 514.111 169.66 515.491C170.11 516.721 170.47 517.961 170.77 519.231C170.37 519.581 170.02 520.001 169.75 520.481C169.54 520.851 169.34 521.231 169.13 521.611C168.6 521.731 168.1 521.931 167.68 522.251C166.78 522.921 165.98 523.481 165.44 524.531C164.93 525.511 164.63 526.601 164.64 527.711C164.64 528.551 164.83 529.271 165.08 529.971C164.54 530.551 163.94 531.071 163.32 531.581C161.52 532.921 159.59 534.051 157.55 534.961C156.41 535.401 155.26 535.811 154.16 536.341C154.08 536.381 154 536.431 153.92 536.481C152.16 535.831 149.9 536.661 148.65 537.921C147.42 539.151 146.79 541.031 147.12 542.761C147.1 543.311 147.12 543.881 147.24 544.471C147.65 546.531 148.66 548.441 150.01 550.061C149.97 550.181 149.93 550.311 149.88 550.441C149.72 551.001 149.63 551.601 149.63 552.191C149.63 553.111 149.85 554.081 150.27 554.931C150.38 555.511 150.52 556.091 150.72 556.641C151.37 558.431 152.28 560.221 153.77 561.471C154.96 562.471 156.28 563.251 157.74 563.651C158.13 564.101 158.57 564.481 159.06 564.731C161.61 566.081 165.14 565.471 166.58 562.761C166.73 562.471 166.88 562.181 167.03 561.901C168.73 561.791 170.44 561.441 172.09 561.051C174.09 560.581 176.12 559.891 177.88 558.821C186.33 553.691 185.55 542.371 183.96 533.941V533.911Z" fill="white"/>
<path d="M181.81 489.78C170.23 489.78 170.21 507.78 181.81 507.78C193.41 507.78 193.41 489.78 181.81 489.78Z" fill="#EFC19F"/>
<path d="M189.83 524.721C189.96 515.251 177.76 513.861 173.37 520.331C171.55 521.341 170.04 522.951 169.25 524.851C165.83 525.351 163.18 527.991 161.81 531.391C160.67 534.211 160.22 537.311 160.28 540.341C160.33 542.641 161.08 544.511 162.25 545.921C162.17 547.221 162.06 548.511 161.93 549.811C161.57 553.151 163.86 556.171 166.79 557.721C166.6 558.711 166.33 559.651 165.87 560.071C157.31 567.911 170.07 580.611 178.6 572.801C182.32 569.391 184.12 564.121 185.02 558.691C187.87 557.891 190.29 555.861 190.9 552.651C192 546.781 193.11 540.901 194.21 535.031C194.98 530.931 193.44 526.711 189.84 524.741L189.83 524.721Z" fill="#D8A27E"/>
<path d="M170.16 503.7C170.16 501.85 169.47 500.08 168.38 498.59C168.04 496.56 167.58 494.52 167.04 492.48C166.54 490.6 165.64 489.19 164.49 488.16C164.3 487.24 163.97 486.36 163.49 485.62C162.65 484.31 161.43 483.2 160.03 482.4C159.32 481.34 158.45 480.45 157.46 479.77C155.68 477.55 153.05 476.29 149.97 476.16C147.45 476.05 144.49 477.52 142.74 479.7C141.69 480.42 140.78 481.33 140.18 482.47C138.98 484.74 138.87 486.88 139.27 489.41C139.55 491.18 139.84 492.95 140.12 494.72C140.42 496.57 141.94 498.31 143.35 499.4C144.87 500.57 146.83 501.42 148.8 501.33C149.47 501.3 150.12 501.2 150.75 501.05C150.88 501.56 151 502.07 151.1 502.6C150.57 503.7 150.08 504.87 149.58 506.15C148.12 509.95 146.52 513.82 147.91 517.91C149 521.1 151.82 523.51 154.94 524.29C154.97 524.29 154.99 524.3 155.02 524.31C155.27 524.37 155.51 524.42 155.76 524.46C155.85 524.47 156.36 528.06 156.45 528.07C158.58 528.33 160.34 524.23 162.17 522.64C168.37 518.66 170.18 511.22 170.15 503.71L170.16 503.7Z" fill="#EFC19F"/>
<path d="M158.54 554.021C146.96 554.021 146.94 572.021 158.54 572.021C170.14 572.021 170.14 554.021 158.54 554.021Z" fill="white"/>
<path d="M173.02 551.68C167.81 550.49 163.83 553.28 161.95 557.97C161.12 560.03 160.29 562.091 159.82 564.271C159.5 565.771 159.29 567.311 159.16 568.841C159.14 569.141 159.12 569.44 159.1 569.74C159.06 569.81 158.97 570.05 158.85 570.47C157.25 574.9 160.65 580.52 165.14 581.54C170.21 582.69 174.49 580.001 176.21 575.251C176.76 573.721 176.92 572.1 177.05 570.48C177.07 570.07 177.1 569.671 177.13 569.261C177.14 569.201 177.16 569.13 177.17 569.04C177.91 566.95 178.47 564.82 179.3 562.74C181.06 558.36 177.38 552.66 173.01 551.67L173.02 551.68Z" fill="#D8A27E"/>
<path d="M229.96 710.85C309.61 712.28 389.28 712.99 468.95 713.17C551.14 713.35 633.33 712.97 715.51 711.96C759.35 711.42 803.19 710.7 847.02 709.74C853.45 709.6 853.47 699.6 847.02 699.74C767.37 701.48 687.71 702.47 608.04 702.93C525.85 703.4 443.66 703.31 361.47 702.59C317.63 702.21 273.79 701.64 229.95 700.86C223.51 700.74 223.51 710.74 229.95 710.86L229.96 710.85Z" fill="#C28A69"/>
<path d="M815.84 705.95C841.01 685.87 870.42 659.94 866.58 624.16C865.66 615.62 862.02 608.48 859.17 600.53C856.08 591.87 855.49 582.62 857.16 573.59C860.52 555.49 871.69 540.45 884.54 527.8C889.13 523.28 882.06 516.21 877.47 520.73C865.1 532.9 854.26 547.18 849.21 564.01C846.71 572.33 845.66 581.24 846.57 589.89C847.5 598.7 850.98 606.09 854.01 614.29C867.29 650.26 833.62 679.04 808.77 698.87C803.74 702.88 810.86 709.92 815.84 705.94V705.95Z" fill="#C28A69"/>
<path d="M850.55 708.28C862.13 697.76 874.8 688.42 883.64 675.29C892.48 662.16 895.66 645.07 892.76 628.91C891.21 620.27 887.4 612.89 883.98 604.93C880.36 596.5 879.3 587.26 880.43 578.17C882.42 562.07 890.23 547.48 901.14 535.75C905.52 531.04 898.46 523.95 894.07 528.68C883.55 539.99 876 553.02 872.21 568.09C870.11 576.43 869.46 585.11 870.61 593.64C871.85 602.8 875.85 610.34 879.37 618.72C885.96 634.36 885.67 652.92 876.73 667.56C868.39 681.23 855.14 690.62 843.47 701.22C838.7 705.56 845.78 712.61 850.54 708.29L850.55 708.28Z" fill="#C28A69"/>
<path d="M885.83 522.24C881.62 511.38 877.64 499.4 880.41 487.67C883.18 475.94 892.64 467.9 902.56 462.88C913.4 457.39 926.23 456.68 937.52 452.16C946.93 448.4 958 443.79 962.93 434.31C965.9 428.61 957.27 423.55 954.3 429.26C951.56 434.53 946.22 437.2 941.08 439.72C934.99 442.72 928.59 445.01 922.02 446.73C909.73 449.95 898.38 452.31 888.13 460.32C879.01 467.45 871.98 476.61 870.14 488.27C868.14 500.89 871.65 513.23 876.18 524.9C878.48 530.84 888.15 528.26 885.82 522.24H885.83Z" fill="#B48568"/>
<path d="M954.52 430.18C949.95 440.53 948.26 452.07 942.95 462.08C938 471.42 930.48 478.89 922.21 485.34C917.14 489.29 924.26 496.32 929.28 492.41C937.76 485.8 945.46 477.97 950.8 468.56C956.72 458.11 958.34 446.11 963.15 435.23C965.73 429.4 957.11 424.3 954.52 430.18Z" fill="#B48568"/>
<path d="M947.18 457.34C945.4 476.08 935.97 493.15 921.5 505.09C917.52 508.37 923.21 514 927.16 510.75C943.33 497.42 953.21 478.14 955.19 457.35C955.68 452.23 947.67 452.26 947.19 457.35L947.18 457.34Z" fill="#B48568"/>
<path d="M896.28 537.03C914.36 543.47 933.59 531.86 943.51 517.14C949.01 508.98 952.72 499.37 955.07 489.85C957.75 479 958.39 467.76 962.51 457.28C964.86 451.29 955.2 448.69 952.87 454.62C949.4 463.46 948.38 472.8 946.56 482.05C944.89 490.52 942.31 498.88 938.23 506.51C930.94 520.15 915.43 533.26 898.96 527.39C892.89 525.23 890.27 534.88 896.3 537.03H896.28Z" fill="#B48568"/>
<path d="M166.03 475.83C165.95 476.04 165.87 476.26 165.79 476.47C165.41 477.67 165.36 478.86 165.63 480.06C165.68 481.26 166.04 482.37 166.7 483.41C167.27 484.46 168.04 485.3 169.02 485.93C169.89 486.73 170.91 487.26 172.08 487.54C172.44 487.59 172.8 487.64 173.15 487.68L174.12 490.6L177.58 490.14C179.78 489.52 181.69 488.41 183.32 486.8C184.37 485.76 185.27 484.53 186.07 483.3C186.17 483.14 186.27 482.98 186.35 482.81C186.4 482.72 186.44 482.62 186.48 482.53C186.97 481.44 187.46 480.31 187.88 479.19C188.42 477.46 188.5 475.73 188.11 474.01C188.03 472.28 187.52 470.67 186.57 469.18C185.75 467.67 184.64 466.45 183.22 465.53C181.96 464.38 180.49 463.61 178.8 463.2L175.34 462.74C172.99 462.74 170.81 463.34 168.78 464.51C167.9 465.19 167.03 465.87 166.15 466.54L168.03 472.22C167.09 473.26 166.42 474.46 166.03 475.83Z" fill="#D8A27E"/>
<path d="M167.97 463.869C186.35 460.829 189.63 478.429 186.73 484.699C183.82 490.969 175.67 493.359 168.51 490.039" stroke="#B48568" stroke-width="6" stroke-miterlimit="10"/>
<path d="M231.6 566.57C242.91 577.63 254.71 588.3 267.98 596.99C280.61 605.27 294.4 611.43 308.32 617.2C314.26 619.66 316.85 609.99 310.98 607.56C297.87 602.12 284.93 596.15 273.03 588.36C260.47 580.13 249.38 569.97 238.68 559.5C234.08 555 227 562.06 231.61 566.57H231.6Z" fill="#C28A69"/>
<path d="M168.72 445.85C166.8 445.35 165.04 445.7 163.38 446.77C160.56 448.58 159.7 453.83 163.38 455.4C166.67 456.81 168.71 455 171.86 454.21C175.01 453.42 178.62 453.44 181.89 454.16C190.08 455.96 194.66 461.09 195.95 469.3C196.85 474.99 196.2 480.91 197.62 486.51C199.87 495.39 204.62 504.01 209.74 511.52C214.86 519.03 220.96 525.73 224.98 533.92C228.25 540.59 229.91 548.76 230.11 556.19C230.33 564.24 227.59 572.42 222.74 578.87C219.09 583.73 212.69 586.5 207.65 589.7C200.81 594.04 196.36 598.59 192.46 605.78C188.71 612.69 186.02 621.95 178.12 625.21C172.25 627.63 174.82 637.31 180.78 634.85C188.45 631.69 193.14 626.35 196.91 619.07C200.68 611.79 203.56 604.38 210.59 599.7C216.57 595.72 223.6 592.53 228.68 587.35C234.5 581.42 238.38 572.06 239.6 563.93C242.34 545.73 234.74 528.25 223.98 514.06C217.53 505.55 211.49 496.72 208.08 486.5C205.96 480.15 206.67 473.24 205.6 466.65C202.43 447.15 180.52 438.61 163.43 446.8H168.48L168.43 446.78V455.41L166.07 455.5C172.3 457.12 174.96 447.48 168.73 445.86L168.72 445.85Z" fill="#B48568"/>
<path d="M169.9 451.99C171.55 450.45 173.2 448.91 174.86 447.36L177.06 445.3L178.16 444.27C178.86 443.62 178.89 443.58 178.27 444.17L175.19 443.77C178.45 445.8 181.32 449.18 184.17 451.75C187.99 455.18 193.67 449.54 189.83 446.09C187.56 444.05 185.29 442.01 183.02 439.97C181.18 438.32 179.38 436.16 176.68 436.39C174.41 436.58 172.99 438.17 171.41 439.65C169.02 441.88 166.64 444.11 164.25 446.33C160.48 449.85 166.14 455.5 169.91 451.99H169.9Z" fill="#B48568"/>
<path d="M162.7 531.76C162.7 531.76 162.6 558.07 162.85 559.37C162.85 559.37 162.39 571.45 147.88 576.27" stroke="#A5A5A5" stroke-width="9" stroke-miterlimit="10" stroke-linecap="round"/>
<path d="M105.18 592.45C102.97 601.94 95.7698 611.11 85.6298 612.71C74.2398 614.5 62.4998 602.78 54.9298 595.67C47.2198 588.44 44.0898 579.32 47.5198 569.09C50.3898 560.53 62.6398 553.85 71.3698 557.45C77.3098 559.9 79.8998 550.23 74.0298 547.81C64.4798 543.87 51.0898 549.04 43.9798 555.82C36.8798 562.59 34.5398 575.52 36.7298 584.79C39.5098 596.56 49.3598 604.55 58.3998 611.65C67.4398 618.75 78.8398 625.47 90.9998 621.66C103.16 617.85 112 607.31 114.84 595.11C116.3 588.85 106.66 586.18 105.2 592.45H105.18Z" fill="#B48568"/>
<path d="M90.2498 622.16C92.9398 622.54 95.6398 622.89 98.3498 623.11C100.89 623.32 103.6 623.64 105.64 621.75C109.07 618.58 108.6 612.33 109.08 608.08C109.38 605.39 106.57 603.08 104.08 603.08C101.13 603.08 99.3798 605.38 99.0798 608.08C98.9098 609.56 98.7498 611.04 98.5798 612.52C98.5198 613.05 97.8198 615.49 98.5798 614.68L102.12 613.22C99.1798 613.57 95.8498 612.93 92.9298 612.52C90.2598 612.15 87.5598 613.17 86.7798 616.01C86.1398 618.35 87.5798 621.78 90.2698 622.16H90.2498Z" fill="#B48568"/>
<path d="M142.12 587.82C146.73 587 151.3 586.12 155.73 584.57C157.23 584.05 158.89 582.5 158.67 580.71C158.11 576.21 157.28 571.81 156.03 567.45C154.78 563.09 147.96 563.89 148.17 568.51C148.31 571.56 148.69 574.57 149.28 577.57C150.27 582.62 157.98 580.48 156.99 575.44C156.54 573.14 156.28 570.85 156.17 568.51C153.55 568.86 150.93 569.22 148.31 569.57C149.36 573.22 150.2 576.93 150.67 580.71L153.61 576.85C149.18 578.4 144.61 579.28 140 580.1C134.94 581 137.08 588.71 142.13 587.81L142.12 587.82Z" fill="#B48568"/>
<path d="M45.9598 603.45C47.4698 614.5 53.5398 622.08 62.2398 628.65C66.8298 632.11 72.2998 633.6 76.4598 637.67C80.6198 641.74 85.4297 645.5 90.7397 648.49C100.89 654.2 112.38 658.51 123.99 659.79C130.73 660.53 137.8 660.21 144.55 659.65C150.86 659.12 154.82 658.59 160.55 661.6C166.28 664.61 171.3 655.96 165.6 652.97C161.59 650.87 157.59 649.09 152.99 648.93C147 648.72 140.79 649.93 134.76 650.06C122.47 650.32 111.25 647.55 100.2 642.17C95.1698 639.72 90.0597 636.85 85.9297 633.03C81.7997 629.21 78.7498 626.22 73.8598 623.86C64.0798 619.14 57.0998 611.76 55.5998 600.81C54.7298 594.46 45.0898 597.16 45.9598 603.47V603.45Z" fill="#B48568"/>
<path d="M110.45 628.38C121.6 636.59 137.72 638.43 150.09 632.08C155.52 629.29 160.97 625.93 165.02 621.3C170.18 615.4 171.65 609.05 173.98 601.76C176.06 595.23 179.43 588.14 184.73 583.58C188.03 580.74 192.12 579.23 196.02 577.43C207.65 572.08 217.51 562.77 218.15 549.36C218.94 532.77 207.54 518.32 193.42 510.82C188.87 508.41 184.83 515.31 189.38 517.73C202.54 524.72 216.91 542.73 207.68 558.15C201.16 569.04 187.92 570.1 179.07 577.92C173.98 582.42 170.65 588.62 168.07 594.8C164.66 602.97 164.09 611.33 157.36 617.74C145.55 629 127.91 631.34 114.48 621.46C110.33 618.41 106.33 625.35 110.44 628.37L110.45 628.38Z" fill="#B48568"/>
<path d="M156.16 658.61C169.48 668.44 183.66 677.7 195.46 689.42C200.47 694.4 204.6 700 210.39 704.18C216.18 708.36 223.06 710.58 230.31 711.05C236.74 711.46 236.71 701.46 230.31 701.05C215.61 700.11 209.07 687.88 199.03 679.12C187 668.62 174.03 659.46 161.2 649.99C156.02 646.16 151.03 654.84 156.15 658.62L156.16 658.61Z" fill="#B48568"/>
<path d="M74.1097 546.08C71.3397 536.72 74.7197 527.31 81.8797 520.89C85.1197 517.98 89.2397 515.47 93.4697 514.32C98.9297 512.83 103.97 514.87 108.92 517.07C114.75 519.66 119.84 511.05 113.97 508.44C107.57 505.59 101.14 502.97 93.9997 504.03C87.3797 505.01 81.0897 508.53 76.0097 512.79C65.5597 521.56 60.5497 535.5 64.4697 548.75C66.2897 554.91 75.9397 552.29 74.1097 546.09V546.08Z" fill="#B48568"/>
<path d="M155.42 658.029C162.29 655.659 169.52 651.119 173.3 644.779C176.61 639.239 167.97 634.209 164.67 639.729C162.28 643.739 157.11 646.879 152.77 648.379C146.72 650.469 149.32 660.129 155.43 658.019L155.42 658.029Z" fill="#B48568"/>
<path d="M117.46 470.86C117.21 469.56 118.46 396.31 118.46 396.31" stroke="#A5A5A5" stroke-width="9" stroke-miterlimit="10" stroke-linecap="round"/>
<path d="M164.02 480.23C163.77 478.93 165.02 396.3 165.02 396.3" stroke="#A5A5A5" stroke-width="9" stroke-miterlimit="10" stroke-linecap="round"/>
<path d="M133.9 538.4C143.4 540.07 153.42 540.19 162.02 535.23C168.32 531.6 172.9 525.66 175.67 519.02C184.42 498.09 171.8 473.05 148.91 469.61C142.61 468.66 139.9 478.3 146.25 479.25C163.82 481.89 173.71 500.52 165.83 516.64C160.17 528.23 148.59 530.86 136.55 528.75C130.26 527.64 127.55 537.28 133.89 538.39L133.9 538.4Z" fill="#B48568"/>
<path d="M172.13 523.82C176.36 521.11 180.51 518.32 184.27 514.97C185.59 513.79 185.74 511.6 184.9 510.12C182.66 506.19 180.1 502.54 177.29 499C174.28 495.22 169.2 500.03 171.01 503.85C172.17 506.29 173.47 508.61 174.97 510.87C177.8 515.15 184.73 511.14 181.88 506.83C180.39 504.57 179.08 502.26 177.92 499.81L171.64 504.66C174.02 507.65 176.11 510.84 178 514.16L178.63 509.31C175.38 512.21 171.77 514.57 168.11 516.91C163.79 519.68 167.8 526.61 172.15 523.82H172.13Z" fill="#B48568"/>
<path d="M102.96 503.04C101.42 492.23 105.11 483.62 115.5 479.29C125.89 474.96 136.92 477.72 147.27 479.46C153.56 480.52 156.27 470.88 149.93 469.82C135.79 467.45 121.04 464.59 107.82 471.95C102.7 474.8 98.1198 479.02 95.4098 484.26C91.8998 491.04 92.2598 498.37 93.3098 505.7C94.2098 512.05 103.85 509.35 102.95 503.04H102.96Z" fill="#B48568"/>
<path d="M105.47 589.82C121.63 598.72 141.93 594.16 151.97 578.45C161.34 563.8 157.25 544.34 144.54 533.03C139.74 528.77 132.65 535.809 137.47 540.099C146.49 548.119 150.3 561.289 144.09 572.159C137.29 584.059 122.36 587.699 110.52 581.179C104.88 578.069 99.8296 586.709 105.47 589.809V589.82Z" fill="#B48568"/>
<path d="M248.51 184.81H32.5698C18.0502 184.81 6.27979 196.58 6.27979 211.1V369.35C6.27979 383.869 18.0502 395.64 32.5698 395.64H248.51C263.029 395.64 274.8 383.869 274.8 369.35V211.1C274.8 196.58 263.029 184.81 248.51 184.81Z" fill="white" stroke="#A5A5A5" stroke-width="11" stroke-miterlimit="10" stroke-linecap="round"/>
<path d="M140.54 350.17C173.649 350.17 200.49 323.329 200.49 290.22C200.49 257.11 173.649 230.27 140.54 230.27C107.43 230.27 80.5898 257.11 80.5898 290.22C80.5898 323.329 107.43 350.17 140.54 350.17Z" stroke="#299B29" stroke-width="24" stroke-miterlimit="10"/>
</svg>
