<svg width="38" height="32" viewBox="0 0 38 32" fill="current" xmlns="http://www.w3.org/2000/svg">
<path d="M3.8 32C2.755 32 1.86073 31.6087 1.1172 30.826C0.373667 30.0433 0.00126667 29.1013 0 28V4C0 2.9 0.3724 1.95867 1.1172 1.176C1.862 0.393333 2.75627 0.00133333 3.8 0H34.2C35.245 0 36.1399 0.392 36.8847 1.176C37.6295 1.96 38.0013 2.90133 38 4V28C38 29.1 37.6282 30.042 36.8847 30.826C36.1412 31.61 35.2463 32.0013 34.2 32H3.8ZM19 18L3.8 8V28H34.2V8L19 18ZM19 14L34.2 4H3.8L19 14ZM3.8 8V4V28V8Z" fill="current"/>
</svg>
