<svg width="34" height="34" viewBox="0 0 34 34" fill="current" xmlns="http://www.w3.org/2000/svg">
<path d="M17 0C14.7675 0 12.5569 0.450635 10.4944 1.32618C8.43185 2.20172 6.55778 3.48502 4.97918 5.1028C1.79107 8.37007 0 12.8014 0 17.4221C0 25.1226 4.879 31.6559 11.628 33.973C12.478 34.1124 12.75 33.5723 12.75 33.1019V30.1576C8.041 31.2029 7.038 27.823 7.038 27.823C6.256 25.8021 5.151 25.262 5.151 25.262C3.604 24.1818 5.27 24.2167 5.27 24.2167C6.97 24.3386 7.871 26.0111 7.871 26.0111C9.35 28.6593 11.849 27.8753 12.818 27.4572C12.971 26.3247 13.413 25.5582 13.889 25.1226C10.115 24.6871 6.154 23.1888 6.154 16.551C6.154 14.6171 6.8 13.0665 7.905 11.8296C7.735 11.394 7.14 9.58213 8.075 7.23015C8.075 7.23015 9.503 6.75976 12.75 9.0072C14.093 8.62392 15.555 8.43228 17 8.43228C18.445 8.43228 19.907 8.62392 21.25 9.0072C24.497 6.75976 25.925 7.23015 25.925 7.23015C26.86 9.58213 26.265 11.394 26.095 11.8296C27.2 13.0665 27.846 14.6171 27.846 16.551C27.846 23.2062 23.868 24.6696 20.077 25.1052C20.689 25.6453 21.25 26.708 21.25 28.3283V33.1019C21.25 33.5723 21.522 34.1298 22.389 33.973C29.138 31.6385 34 25.1226 34 17.4221C34 15.1342 33.5603 12.8687 32.706 10.7549C31.8516 8.64118 30.5994 6.72059 29.0208 5.1028C27.4422 3.48502 25.5682 2.20172 23.5056 1.32618C21.4431 0.450635 19.2325 0 17 0Z" fill="#current"/>
</svg>
