<?xml version="1.0" encoding="UTF-8"?><svg xmlns="http://www.w3.org/2000/svg" viewBox="0 0 1193.86 1106.33"><defs><style>.cls-1{stroke:#b48568;stroke-width:6px;}.cls-1,.cls-2,.cls-3{fill:none;stroke-miterlimit:10;}.cls-2{stroke:#c1671e;}.cls-2,.cls-3{stroke-linecap:round;stroke-width:10px;}.cls-3{stroke:#c28a69;}.cls-4{fill:#c1671e;}.cls-4,.cls-5,.cls-6,.cls-7,.cls-8,.cls-9,.cls-10,.cls-11,.cls-12,.cls-13{stroke-width:0px;}.cls-5{fill:#d8a27e;}.cls-6{fill:#b48568;}.cls-7{fill:#c28a69;}.cls-8{fill:#ff9527;}.cls-9{fill:#efc19f;}.cls-10{fill:#fff;}.cls-11{fill:#ffe1c4;}.cls-12{fill:#fadbbf;}.cls-13{fill:#060001;}</style></defs><g id="_얼굴_채색-완"><path class="cls-11" d="M798.31,526.34c-.04-.09-.09-.18-.13-.27,1.96-4.28,2.52-9.21,1.1-14.19-4.01-14.08-9.81-27.77-17.16-40.43-3.28-5.66-9.4-9.46-15.86-10.42-.26-.73-.58-1.45-.92-2.15-.15-1.76-.51-3.45-1.06-5.07-.44-11.61-3.41-22.22-8.46-32.72-4.63-9.63-17.72-12.65-26.85-8.8-.11.05-.22.11-.33.16-1.36-.16-2.72-.27-4.1-.3-.39,0-.7,0-.94,0-.2-.07-.36-.13-.51-.18-2.47-1.49-4.92-2.98-7.37-4.53-7.57-4.79-16.06-8.01-25.13-8.02-8.55-.01-17.4,2.4-25.78,3.96-4.12.77-8.24,1.57-12.37,2.27-.42.07-.84.14-1.26.2-.17.01-.4.03-.73.07-2.21-.01-4.57.08-6.78.19-.47-.03-.94-.06-1.4-.09-.06-.01-.12-.02-.18-.03-1.8-.43-3.6-.78-5.38-1.27-3.57-.97-7.08-2.18-10.58-3.39-7.57-2.62-15.11-5.34-22.63-8.12-.63-.23-1.27-.42-1.92-.57-1.17-1.46-2.34-2.9-3.49-4.37-3.57-4.57-9.59-6.51-15.58-6.26-.96-3.51-1.88-7.03-2.72-10.58-.19-1.19-.46-2.39-.86-3.63-3.45-10.68-15.06-18.7-26.45-15.02-8.02,2.6-13.44,8.72-15.09,16.17l-.99,1.18c-1.69,2-3.38,4-5.07,6-.31-.01-.61-.03-.93-.03h-.59c-4.06-.15-7.85.69-11.37,2.54-3.44,1.12-6.45,3-9.02,5.62-2.12-.91-4.3-1.59-6.52-2.08-.62.25-1.24.49-1.88.7-2.73,1.43-5.6,2.33-8.61,2.73-.04-.03-.06-.08-.1-.11-1.47-1.35-3.04-1.97-4.93-2.25-2.63-1.36-6.15-.75-8.49,1.11-1.77.58-3.62,1.94-4.48,3.58-.07.14-.13.28-.2.43-1.19.89-2.34,1.85-3.44,2.92-8.16,7.92-15.41,17.15-21.1,27.06-2.58,3.58-4.55,7.54-5.38,11.17-.21.92-.38,1.83-.53,2.75-1.37,4.15-2.26,8.35-2.54,12.57-3.29,1.13-5.41,1.48-8,3.23-.53.28-1.91,1.64-2.32,1.95-9.99,7.55-18.98,18.26-20.19,30.9-.43,1.1-.84,2.21-1.23,3.33-7.92,13.95-12.99,29.15-14.01,45.31-.87,13.76,3.63,25.74,8.91,37.71-.97,2.47-1.47,5.07-1.48,7.81,0,.59,0,1.17,0,1.76-.18,2.66.04,5.53.77,7.62.67,2.8,1.95,5.24,3.85,7.31.11.17.24.31.35.47.23,7.31.29,14.63.14,21.96-1.44,12.41-.64,24.68,2.3,36.62-.59,7.09.43,14.68,4.57,20.28,1.52,2.06,3.06,4.1,4.62,6.12,1.12,3.94,2.82,7.79,5.14,11.42,4.21,6.61,9.97,12.6,15.32,18.34,8.38,9,17.23,17.55,26.51,25.62,20.13,17.52,41.91,33.33,65.11,46.52,7.24,4.11,17.39,6.08,25.69,3.89,5.93,1.7,12.35,2.09,18.67,2.19,2.56.04,5.08-.03,7.57-.21,2.58,1.17,5.45,1.74,8.51,1.44,10.08-.98,19.77-2.18,29.19-4.81,4.31,1.97,9.3,2.53,14.39,1.21,3.23-.84,6.44-1.77,9.63-2.79,9.5-2.71,18.68-6.52,27.35-11.27.52-.27,1.05-.52,1.57-.79,16.73-5.31,31.48-16.17,45.02-26.96,12.76-10.18,25.71-20.91,37.27-32.44,14.14-14.11,29.39-35.22,27.21-56.24,1.14-5.07,2.04-10.19,2.8-15.33,1.46-9.91,2.59-19.85,3.62-29.81.77-7.42,1.39-14.8,1.05-22.21.2-1.08.31-2.19.33-3.3.04-.37.05-.73.07-1.09.31-2.1.28-4.2-.05-6.23,1.03-2.3,1.94-4.66,2.63-7.06,1.11-3.81,1.67-7.79,2.12-11.75,1.28-1.87,2.26-3.98,2.81-6.3.96-4.08,1.48-8.29,1.86-12.46.33-3.65-.69-7.24-2.56-10.42Z"/><path class="cls-11" d="M373.19,325.55c12.82-15.39,20.09-31.38,5.17-43.73-32.08-7.3-71.92,26.61-79.77,57.86-12.81,35.1,14.85,76.94,33.64,30.27,2.4-5.77,11.22-14.11,21.08-23.66,1.09.3,2.22.45,3.4.4,1.28-.17,2.57-.35,3.85-.52.48-.13.93-.31,1.38-.48.1-.03.19-.07.28-.1.05-.02.11-.04.16-.06.77-.28,1.52-.63,2.24-1.08,2.18-.99,4.54-3.59,5.74-5.62.17-.28.31-.56.46-.83.26-.35.51-.69.77-1.04,1.06-1.66,1.63-3.46,1.72-5.39.15-.67.21-1.34.24-2.01.13-1.34,0-2.67-.36-4.01Z"/><path class="cls-11" d="M885.53,315.89c-5.14-7.08-11.04-13.01-18.39-17.83-3.46-2.27-7.19-4.03-10.99-5.66-4.89-2.1-9.68-4.62-15.11-4.67-1.63-.02-3.23.29-4.75.83-3.89-1.87-8.32-2.58-12.83-2.19-9.33.81-16.55,8.61-13.98,18.35.97,3.66,3.07,6.94,6.2,9.08.05,1.06.22,2.12.55,3.16,2.29,7.31,2.81,13.29,1.99,21.18-.65,6.23,4.96,12.42,10.65,13.98,3.32.91,6.98.5,10.12-.97.2.13.41.24.62.36.47.66.99,1.28,1.59,1.84,4.67,4.45,9.13,9.11,13.29,14.05,3.03,3.58,6.99,7.55,8.19,12.1.42,1.58,1.09,3.01,1.96,4.27,1.98,4.5,6.01,7.87,11.23,8.49,6.94.83,14.14-3.26,15.91-10.39.33-1.34.63-2.68.92-4.03,3.72-2.3,6.42-6.36,6.62-11.93.63-17.44-3.41-35.75-13.78-50.04Z"/><path class="cls-11" d="M871.26,884.6c.56-6.41-1.39-12.94-6.5-17.66-3.27-3.02-6.53-6.03-9.8-9.05-2.83-3.46-6.29-6.42-10.17-8.69-1.08-.63-2.19-1.14-3.32-1.57-1.02-2-2.36-3.91-4.01-5.66-17.9-19.01-39.71-34.74-63.61-45.28-5.86-2.58-11.29-4.09-17.72-2.32-5.34,1.47-11.12,5.59-13.75,10.57-2.48,4.69-3.4,10.76-2.47,16.41-.27.35-.54.69-.81,1.04-.07.07-.15.14-.26.24-.76.72-1.42,1.56-2.16,2.31-.75.74-1.53,1.43-2.32,2.12-.52.3-1.37,1.05-1.63,1.23-1.55,1.04-3.13,2.02-4.74,2.96-3.01,1.76-6.12,3.36-9.25,4.91-1.57.78-3.15,1.55-4.74,2.28-.17.08-.51.28-.89.49-.22.06-.5.16-.87.29-3.61,1.31-7.22,2.5-10.99,3.31-.3.06-1.15.23-2.01.4.5-.11-1.32.2-1.76.22-1.51.08-3.02.22-4.54.28-7.95.34-15.91-.12-23.86-.41-10.41-.39-20.51-.08-30.85,1.37-4.32.61-8.55,1.53-12.79,2.51-2.44.56-4.88,1.09-7.33,1.57-.53.11-3.48.88-.63.13,3.04-.81-2-.03-2.52-.02-7.48.16-14.78,4.15-19.09,10.18-2.4-.88-5-1.37-7.76-1.39-5.28-.03-10.56-.23-15.82-.68-1.55-.13-3.09-.31-4.64-.45-1.29-.12-1.64-.12-1.46-.08-2.1-.29-4.21-.76-6.25-1.14-10.71-1.98-21.18-4.92-31.41-8.66-4.81-1.76-10.17-1.18-14.94.94-1.77-.13-3.53-.25-5.3-.37-.5-1.42-1.18-2.81-2.09-4.12-4.85-7.02-10.56-10.7-18.65-12.62-3.53-.83-7.02-1.85-10.44-3.03-1.46-.5-2.89-1.07-4.34-1.59-.56-.25-1.12-.5-1.68-.76-3.05-1.43-6.03-3-8.94-4.7-2.91-1.7-5.75-3.52-8.5-5.46-.59-.41-1.16-.84-1.74-1.26-1.12-.95-2.26-1.87-3.36-2.84-2.72-2.4-5.33-4.92-7.8-7.57-1.06-1.14-2.1-2.29-3.11-3.47-.87-1.01-5.25-6.69-1.26-1.41-5.06-6.69-11-11.39-19.86-11.39-3.96,0-7.99,1.09-11.5,3.07,0,0,0,0,0,0-4.39.02-9.19.74-13.34,2.61-1.34.56-2.62,1.28-3.8,2.19-2.61,2.01-4.91,3.97-6.76,6.29-.71-1.35-.6-.86-.04.05-.02.02-.04.05-.06.07-.58-.82-1.25-1.65-1.74-2.42-.81-1.3-1.57-2.63-2.27-3.98-.23-.46-.46-.91-.68-1.37-1.04-2.27-.87-1.84.5,1.29-.91-.11-2.41-8.08-2.57-8.79-1.94-8.95-10.09-15.04-18.75-16.38,1.41-1.43,2.53-3.32,3.19-5.73,1.39-5.24,3.05-10.36,5.01-15.41,1.91-4.91.15-9.31-3.16-12.31.04-1.04.06-2.08.05-3.11-.06-5.88-.43-11.75-1.11-17.59-1.15-9.86-2.95-19.55-5.58-29.08-1.49,1.68-3.24,3.11-5.39,4.06-5.39,2.37-10.97,1.46-14.34-3.76-2.69-4.17-1.41-11.36,3.05-13.96.88-1.2,1.75-2.41,2.58-3.66-1.38-.1-2.8.02-4.24.42-6.53,1.79-11.28,9.29-9.08,15.99,3.69,11.23,6.42,22.82,7.46,34.61.52,5.85.72,11.74.61,17.61-.07,3.9-.86,8.41-.64,12.63-.19.34-.38.68-.57,1.02-2.98-.05-6.09.97-8.94,3.49-.73.23-1.47.46-2.21.67-1.52.48-3.02.97-4.51,1.55-3.76,1.45-7.48,3.09-10.96,5.13-3.46,2.02-6.72,4.45-9.81,7.01-1.23,1.02-2.41,2.07-3.56,3.17-.13.13-.26.26-.39.39-2.14-.07-4.26.26-6.54,1.5-1.98,1.07-3.48,2.53-4.79,4.18-2.79.11-5.4,1.16-7.63,2.98-4.9-.35-10.22,1.69-12.25,6.28-1.76,3.98-3.07,8.69-3.11,13.12-3.26,1.53-6.2,3.81-8.46,6.74-6.3,8.15-7.25,23.15,1.8,30.2.19.15.38.28.57.43.36.78.77,1.49,1.25,2.11l5.79,7.55c-.18,2.46-.03,5,.5,7.55.1.48.22.96.33,1.44,4.49,7.97,8.98,15.94,13.75,23.76.98,1.61,1.83,3.26,2.59,4.94,4.29,5.17,11.06,9.09,17.8,8.51,1.18-.1,2.36-.19,3.54-.29,1.98,4.76,6.68,8.53,12.01,8.21,39.14-2.37,78.55-6.31,117.79-5.67,39.14.63,78.3,2.64,117.43,4.04,1.18.04,2.33-.12,3.43-.42,12.98,2.45,26.19,3.7,39.35,3.78,5.55.03,10.98-2.23,15.18-5.88,2.29,1.88,5.23,3.04,8.39,3.24,27.07,1.71,54.18,2.48,81.3,2.31,6.36-.04,10.3-3.82,11.83-8.49,19.52,0,39.07-1.39,58.58-1.07,12.18.2,24.36.77,36.49,1.87,3.19.29,6.38.61,9.56.97,1.59.18,3.18.39,4.77.57.07,0,.12.01.18.02.12.02.24.04.37.06.84.12,1.67.26,2.51.39,1.73-.93,3.48-1.72,5.2-2.35,1.12,3.08,3.81,5.52,8.08,5.52,11.14,0,22.23-.65,33.3-1.96,4.83-.57,9-3.73,9-9,0-1.67-.59-3.44-1.58-4.97Z"/><path class="cls-11" d="M977.48,675.45c3.98-4.8,4.21-11.92-.38-16.51-4.42-4.42-12.6-4.82-16.97,0-1.38,1.52-2.65,3.1-3.85,4.72-7.22,2.41-10.02,9.49-10.72,16.58-.69,3.65-.53,7.48.05,11.58-.09,1.14-.14,2.29-.16,3.44-.02.71-.03,1.42,0,2.12.12,3.85,1.71,6.75,4.02,8.68.24.53.49,1.05.75,1.57-7.11,8.83-13.96,17.87-20.45,27.17-2.25,3.23-2.12,7.44-.49,10.95-.63.95-1.17,1.98-1.61,3.07-2.18,5.45-5.15,10.62-6.66,16.33-1.9,7.17-1.71,14.44-.09,21.62.04.17.09.32.14.48-2.3,2.91-3.05,6.92-2.44,10.93,1.35,8.78,6.32,16.15,9.04,24.46.49,1.5.81,3,1.02,4.51-1.64,1.47-2.85,3.33-3.17,5.44-2.92,19.22-13.83,35.27-31.03,44.41-5.72,3.04-7.48,10.99-4.3,16.42,3.39,5.79,10.68,7.36,16.42,4.31,11.47-6.1,21.39-15.1,28.8-25.81,3.97.15,8.04-1.51,10.61-5.57,5.49-8.67,8.27-18.35,8.81-28.56.12-2.35-.63-4.59-1.92-6.48.07-3.99-.27-8-1.22-12-2.26-9.57-8.4-17.7-9.9-27.5-.03-.18-.08-.36-.12-.54,2.37-2.93,3.3-6.96,2.42-10.88-2.02-8.99,3.53-17.16,6.75-25.2,1.05-2.63.68-5.48-.55-7.99.08-.1.16-.2.23-.3,5.35-7.66,10.93-15.15,16.79-22.43,2.13-2.64,3.36-5.81,3.37-8.94,3.55-2.2,6.09-6.08,6.08-10.95,0-.43-.02-.85-.04-1.28.91-1.09,1.7-2.37,2.28-3.82,3.08-7.66,2.23-16.74-1.48-24.03Z"/><path class="cls-5" d="M1022.4,646.52c-.07-1.6-.55-3.08-1.42-4.46-.75-1.4-1.78-2.52-3.09-3.37-1.16-1.06-2.52-1.78-4.08-2.15l-3.19-.43c-.34,0-.67.04-1,.07-1.33-.09-2.66.02-4,.37-2.03.57-3.8,1.6-5.3,3.09-.39.46-.79.92-1.18,1.38-.74.69-1.32,1.46-1.79,2.31-.92.26-1.86.63-2.8,1.16-7.63,4.22-15.5,7.11-24.01,9.03-1.61.36-3.07,1.14-4.33,2.19-1.54.15-3.14.63-4.77,1.51-14.56,7.95-20.08,24.36-15.79,38.8-.38,1.75-.3,3.6.4,5.45.33.87.68,1.72,1.03,2.58.1.81.27,1.63.51,2.43,0,.11-.01.21-.01.31,0,.11,0,.23,0,.34-.03,4.05,2.27,8.46,5.94,10.36.09.05.19.08.28.13.39.34.78.68,1.17,1.01,3.93,3.41,8.53,4.16,12.57,2.6.44.08.87.17,1.31.25,2.19.43,4.38.85,6.57,1.28,5.42,1.06,9.88-.99,12.46-4.4,15.26-5.89,26.51-20.19,25.06-37.81-.45-5.47-1.65-10.82-6.42-14.15-.32-.23-.65-.43-.97-.63.37-.2.74-.39,1.11-.59,2.02-1.12,3.46-2.54,4.42-4.12,1.65-.19,3.22-.69,4.69-1.55,1.18-.5,2.21-1.4,3.07-2.35.63-.81,1.25-1.62,1.88-2.43.06-.09.12-.18.16-.28.4-.96.81-1.91,1.21-2.87.04-.1.07-.2.09-.31.5-1.6.57-3.19.21-4.79Z"/></g><g id="_갈기_채색_완"><path class="cls-8" d="M377.17,500.54c.02-.05.03-.11.05-.16,0,0,0,.01,0,.02-.01.05-.02.09-.04.14Z"/><path class="cls-8" d="M771.66,692.43c-.06.12-.11.24-.14.36.03-.11.09-.24.14-.36Z"/><path class="cls-8" d="M880.83,589.47c.04-.13.09-.26.14-.39,1.52-4.87,6.12-8.56,7.23-13.57,11.55-21.73,11.53-49.09,5.29-73.05-1.17-4.5-3.59-8.36-6.78-11.38,10.29-42.69-2.54-89.35-31.65-122.07-3.21-3.61-7.92-5.94-12.94-6.91-.87-.95-1.77-1.87-2.67-2.79-2.74-5.1-7.39-9.34-12.54-12.09-1.55-3.43-3.2-6.81-4.97-10.14-.5-.95-1.11-1.7-1.78-2.29-2.04-7.61-4.79-14.97-7.96-22.32-9.75-22.59-25.93-41.37-45.47-56.05-22.14-16.63-49.33-25.35-76.8-27.04-3.83-.23-7.62.69-11.05,2.43-8.91-9.54-20.59-16.2-33.44-20.19-18.98-5.9-38.94-8.17-58.58-4.8-10.53,1.81-21.63,6.35-29.55,13.68-1.23,1.14-2.37,2.37-3.43,3.68-3.02.85-5.94,2.36-8.53,4.32-.8-.16-1.61-.31-2.42-.44-1.67-2.74-3.05-5.75-4.5-7.97,0,0-.01-.01-.02-.02-.46-1.13-.93-2.26-1.39-3.39-1.64-3.99-5.31-6.83-9.84-5.59-3.78,1.04-7.24,5.82-5.59,9.84.77,1.87,1.54,3.74,2.31,5.62-9.77-.08-19.58,1.1-29.18,2.83-18.98,3.44-37.8,11.18-53.99,21.62-29.45,18.99-51.4,45.92-66.68,76.88-.21.19-.4.38-.59.6-3.76,4.51-7.22,9.25-10.25,14.28-.27.45-.48.92-.65,1.4-1.29,1.2-2.59,2.41-3.88,3.61-2.29,2.13-4.02,4.66-5.23,7.4-3.39,3.39-6.66,6.9-9.81,10.53-3.39,1.18-6.57,3.13-9.29,5.92-5.44,5.58-10.3,11.86-14.44,18.45-1.91,3.04-2.97,6.5-3.3,10.07-3.13,3.03-5.62,6.92-7.28,11.48-10.83,29.69-11.53,63.16-2.89,93.5.71,2.48,1.77,4.77,3.11,6.84-1.14,1.11-2.12,2.42-2.85,3.91-3.32,6.73-5.88,13.8-7.47,21.06-6.71,16.64-6.24,35.02.12,51.94,4.67,12.43,11.54,23.55,18.32,34.78-1.86,2.7-2.91,5.97-2.67,9.71,1.35,20.79,4.63,41.48,10.07,61.6.65,2.39,1.79,4.52,3.26,6.34,5.3,13.65,13.74,25.72,24.02,36.35.76,2.84,2.24,5.46,4.57,7.46,14.56,12.57,29.58,24.43,47.16,31.74.14.1,1.3-1.68,1.45-1.58,5.15,3.6,10.2,4.67,15.94,4.37.41,1.48,1.03,2.9,1.93,4.23,22.33,32.73,55.06,56.98,93.2,68.06,2.43.71,4.94.8,7.36.41,4.04,3.37,8.33,6.41,13.48,7.89,3.56,1.02,7.48,1.33,11.17,1.42,1.25.03,2.51.03,3.76.05-.68.03,1.41.25,2.6.72,3.99,1.56,8.87.79,12.98-1.36,5.32,2.17,10.71,4.59,16.17,6.64.04.19.08.37.12.56.56,2.34,1.63,4.38,3.22,6.12,1.27,1.96,2.95,3.5,5.05,4.64,1.43.6,2.87,1.21,4.3,1.81,2.39.75,4.79.86,7.18.32,1.62,0,3.14-.41,4.54-1.23,2.23-.73,4.16-1.97,5.79-3.72.94-1.21,1.88-2.43,2.81-3.64.36-.62.67-1.26.96-1.9,4.75-1.12,9.45-2.77,14.24-4.78,4.99-2.1,9.98-4.2,14.97-6.3,2.35-.99,4.7-1.98,7.05-2.96.51-.21,1.02-.43,1.52-.64,2.28.03,4.54-.15,6.67-.55,4.03-.76,7.61-2.65,10.58-5.28.69-.37,1.38-.75,2.05-1.14,1.27.61,2.58,1.15,3.93,1.59,6.91,2.24,13.37.11,19.65-2.57.98-.42,1.91-.94,2.81-1.5,2.23.02,4.49-.25,6.74-.84,8.74-2.29,15.57-7.23,22.73-12.4,3.66-2.64,7.31-5.28,10.97-7.92,4.79-2.59,9.26-5.88,13.32-9.88,4.33-4.26,6.69-9.83,7.18-15.55.96-.79,1.91-1.6,2.83-2.41,3.25-2.88,5.36-6.59,6.45-10.61,7.64-.78,14.83-4.72,18.85-11.93.68.46,1.48.74,2.32.77,1.07,1.89,3.39,3.1,5.43,1.57,3.35-2.51,6.71-5,10.1-7.46.43-.1.87-.27,1.32-.56,3.97-2.54,7.81-5.25,11.52-8.12,5.84-4.12,11.69-8.23,17.53-12.35,1.79-1.26,2.09-3.26,1.51-4.89.52-.55,1.03-1.11,1.54-1.66,1.57.6,3.48.25,4.72-1.65,7.03-10.8,13.99-21.66,19.85-33.09.51-.69,1.03-1.39,1.54-2.08.58-.8.75-1.61.67-2.37,2.09-4.35,4-8.79,5.69-13.34.38-.48.75-.97,1.13-1.44,2.53-3.16-.49-7.39-3.45-7,8.13-21.39,12.25-44.71,15.41-67.04,1-7.09,1.2-13.2-2.57-19.65-1.05-1.79-2.44-3.54-4.05-5.14ZM526.42,374.55c-1.01.87-2.03,1.74-3.04,2.6-.33.09-.67.18-1,.27,1.34-.86,2.67-1.82,4.04-2.87ZM785.01,662.71c-1.8,4.98-3.68,9.93-5.64,14.85-.46,1.16-.93,2.31-1.4,3.47-.11.27-2.35,5.83-.73,1.8,1.42-3.53-.1.11-.43.82-.6,1.27-1.21,2.54-1.87,3.78-.62,1.17-2.64,3.46-3.28,5.01.68-1.45,2.64-2.68,0,.25-.05.05-.1.1-.15.16,0,0,0,.02,0,.02,0,0,0-.01,0-.02-.73.8-1.47,1.58-2.23,2.35-3.45,3.51-7.07,6.83-10.34,10.51-6.3,7.08-11.99,14.77-16.71,23-10.23,6.5-19.97,13.75-29.29,21.49-.76.3-1.51.63-2.26.99-9.05,4.36-18.18,8.56-27.39,12.56-1.22.53-9.01,4-2.57,1.13-1.72.77-3.48,1.45-5.22,2.17-4.65,1.91-9.31,3.77-13.99,5.58-8.78,3.4-17.63,6.64-26.53,9.7-5.87,2.02-12.03,4.56-18.22,6.49-1.07-.16-2.15-.28-3.26-.31-4.4-.13-8.44.86-11.99,2.66-1.5-.97-3.19-1.68-5.07-2.06-9.05-1.8-17.79-2.42-26.71-1.86-8.44-5.3-17.66-9.14-27.68-10.84-3.13-.53-6.42-.48-9.5.25-2.52-1.31-5.03-2.64-7.53-3.99-7.79-4.22-15.61-8.45-23.17-13.06-8.49-5.18-12.64-8.1-18.85-13.97-4.05-3.83-9.87-5.66-15.33-5.03-4.72-5.39-9.68-10.57-14.93-15.46-2.89-2.69-6.4-4.37-10.04-4.93-.44-1.08-.9-2.17-1.39-3.27-2.06-4.62-6.61-7.38-11.53-8.33-4.07-6.44-8.13-12.87-12.2-19.31-4.16-13.17-8.35-26.34-12.55-39.49,0-.46,0-.92,0-1.38,0,0,0-.01,0-.02.1-7.16.23-14.3-.6-21.44-.52-4.45-2.26-8.84-5.07-12.18.09-.64.22-1.59.27-1.99.76-5.27,1.63-10.52,2.61-15.74,1.09-5.74,2.83-11.75,2.4-17.62-.54-7.26-3.74-12.92-6.83-19.26-.09-.23-.2-.51-.3-.8-.36-1.08-.72-2.15-1.03-3.24-.78-2.74-1.3-5.52-1.68-8.33-.3-2.16-1.17-4.1-2.42-5.78-.01-.09-.02-.18-.03-.28-.11-.94-.21-1.89-.29-2.83-.32-3.41-.51-6.82-.59-10.23.04-.26.09-.51.12-.78.54-4.37.68-8.65.42-13.05,0-.06-.01-.11-.02-.17.92-1.44,1.66-3.02,2.17-4.74,2.13-7.19,3.99-14.45,5.59-21.77,2.07-4.05,4.32-8,6.73-11.87,1.07-1.73,1.75-3.65,2.11-5.64,3.31-2.85,6.62-5.69,9.93-8.54,1.38-1.18,2.45-2.59,3.26-4.14,1.56-1.76,2.67-3.63,3.37-5.57,5.83-1.76,10.97-5.42,13.43-11.11.9-2.09,1.72-4.12,2.45-6.14.04.02.08.03.12.05,1.99-4.79,3.97-9.58,5.96-14.37.62-.73,1.22-1.5,1.83-2.3,2.51-3.31,4.28-7.86,5.03-12.38.79-2.03,1.58-4.05,2.38-6.08.31-.79.53-1.63.7-2.51,1.5-1.9,3-3.79,4.5-5.69,4.77-3.57,9.54-7.13,14.3-10.7.22-.16.43-.33.64-.49,3.43,1.74,7.28,2.74,11.33,2.85,1.5.04,2.94-.04,4.34-.2,7.2,1.36,13.81,1.9,21-.04,7.08-1.92,12.24-5.52,17.94-9.95,1.04-.81,1.96-1.77,2.77-2.83,7.07-3.65,13.51-8.62,18.59-14.37,1.5-1.7,2.79-3.58,3.86-5.59.98.41,2,.72,3.03.94,1.95,1.15,4.03,1.8,6.27,1.9,1.22.27,2.43.38,3.65.32,15.95,26.91,45.63,43.12,76.79,48.14,15.64,2.52,33.4,4.29,47.87-1.68,3.11,3.82,6.89,7.12,11.11,9.64,7.54,4.52,18.12,4.49,25.89,0,2.07.1,4.14.12,6.2,0,4.01-.22,8.11-.75,12.15-1.64.41.08.81.16,1.22.23,1.74.91,3.58,1.62,5.5,2.1.02,1.89.2,3.81.56,5.77,1.17,6.41,3.62,12.09,6.23,18.06.87,1.98,2.16,3.76,3.75,5.33.36,5.46,1.93,10.92,4.31,16.12,2.16,4.71,6.39,8.17,11.31,10.24.03.18.17.61.5,1.41,1.09,2.62,2.19,5.25,3.25,7.89,1.9,4.68,3.73,9.39,5.44,14.14,3.62,10.04,6.73,20.3,8.73,30.8.22,1.14.42,2.28.61,3.43.02.1.04.26.07.45.07.56.14,1.17.17,1.43.12,1.16.22,2.32.3,3.48.35,4.93.42,9.88.14,14.82-.1,1.83-.4,3.67-.54,5.5-.04.19-.08.39-.11.58-1.1,1.24-2.09,2.6-2.92,4.11-5.11,9.37-7.29,18.17-8.46,28.66-.55,4.95,2.02,11.07,5.22,15.4-.23.66-.44,1.34-.6,2.02-1.84,7.64-1.54,13.45-.27,21.12.36,2.17-2.19,4.21-1.2,6.05-1.85,3.5.27,7.49-.07,11.86-.05.62-.1,1.25-.14,1.87-2.26,7.25-4.66,14.45-7.25,21.59Z"/><path class="cls-8" d="M771.52,692.79s-.01.04-.02.05c0,0,0,0,0,0,0-.02.01-.03.02-.05Z"/><path class="cls-8" d="M376.81,501.54c.03-.08.07-.17.1-.26-.03.09-.07.17-.1.26Z"/><path class="cls-8" d="M376.91,501.28c.09-.24.19-.5.26-.74-.07.24-.17.49-.26.74Z"/></g><g id="_귀_마우스_라인-완"><path class="cls-3" d="M314.22,397.12s-49.76-45.92,3.77-94.83c0,0,31.33-34.33,74.74-11.73"/><path class="cls-7" d="M331.46,332.3c9.98,2,13.79,8.84,16.76,17.87,1.6,4.87,9.33,2.78,7.71-2.13-3.81-11.57-9.61-20.9-22.35-23.45-5.03-1.01-7.18,6.7-2.13,7.71h0Z"/><path class="cls-3" d="M878.75,397.12s49.76-45.92-3.77-94.83c0,0-29.44-28.52-69.81-9.73"/><path class="cls-7" d="M859.38,324.59c-12.74,2.55-18.54,11.89-22.35,23.45-1.61,4.9,6.11,7,7.71,2.13,2.98-9.04,6.78-15.87,16.76-17.87,5.04-1.01,2.91-8.72-2.13-7.71h0Z"/><path class="cls-7" d="M387.32,800.56c11.83-6.22,24.69-9.87,38.03-10.76,6.39-.42,6.44-10.43,0-10-15.15,1-29.63,5.06-43.07,12.12-5.7,3-.65,11.63,5.05,8.63h0Z"/><path class="cls-7" d="M763.99,802.34c22.72,5.16,43.46,18.08,60.89,33.21,19.91,17.28,36.49,38.47,47,62.73,2.55,5.89,11.17.8,8.63-5.05-10.99-25.39-28.73-47.81-49.7-65.73-18.47-15.78-40.24-29.36-64.16-34.8-6.27-1.42-8.94,8.22-2.66,9.64h0Z"/></g><g id="_얼굴_라인-완"><path class="cls-4" d="M399.48,586.63c-.8,24.58-.64,49.2,4.68,73.33,4.55,20.67,16.18,39.18,30.89,54.2,26.69,27.25,59.95,49.08,95.29,63.2,20.37,8.14,41.71,13.53,63.5,16.11,8.52,1.01,17.44-1.02,25.79-2.59,10.68-2.01,21.21-4.77,31.52-8.22,38.26-12.82,71.49-34.91,101.39-61.65,15.69-14.04,29.46-32.01,35.79-52.29,8.21-26.28,7.85-54.88,6.96-82.09-.21-6.42-10.21-6.45-10,0,.77,23.67.79,47.42-4.32,70.67-4.32,19.63-15.4,36.94-29.54,51.02-25.32,25.2-56.07,46.27-89.22,59.64-19.15,7.72-39.58,13.39-60.15,15.58-7.99.85-16.21-1.04-24.02-2.55-9.99-1.93-19.85-4.49-29.52-7.64-37.13-12.1-69.47-33.06-98.53-58.81-14.69-13.02-27.97-29.5-33.89-48.47-7.95-25.46-7.47-53.07-6.61-79.43.21-6.44-9.79-6.43-10,0h0Z"/><path class="cls-4" d="M425.63,450.15c-17.81,13.77-29.46,34.22-34.1,56.12-4.81,22.69-3.85,48.38,7.48,69.05,3.09,5.64,11.73.6,8.63-5.05-10.28-18.75-10.77-42.67-6.08-63.14,4.53-19.76,15.03-37.46,31.13-49.9,5.08-3.93-2.04-10.96-7.07-7.07h0Z"/><path class="cls-4" d="M765.11,459.85c16.45,12.47,24.13,32.81,26.62,52.72,2.44,19.48,1.91,41.11-7.7,58.63-3.1,5.65,5.54,10.7,8.63,5.05,10.91-19.89,11.73-44.01,8.75-66.09-3.1-22.96-12.41-44.65-31.25-58.93-5.13-3.89-10.12,4.79-5.05,8.63h0Z"/><path class="cls-4" d="M442.77,448.88c3.02-15.3,8.4-29.96,17.38-42.8,8.94-12.78,21.19-22.63,34.89-29.92,5.68-3.02.64-11.66-5.05-8.63-30.78,16.37-50.16,44.74-56.87,78.69-1.24,6.29,8.4,8.98,9.64,2.66h0Z"/><path class="cls-4" d="M767.74,482.5c7.21-16.55,6.81-34.17-.27-50.7-2.5-5.83-5.67-11.31-9.51-16.36-2.05-2.69-4.71-6.64-7.95-8.07-5.83-2.57-10.93,6.04-5.05,8.63.33.15,1.06.78.12-.02.48.41.95.83,1.37,1.28,1.18,1.26,2.33,2.53,3.38,3.89,3.18,4.13,5.85,8.74,8.02,13.47,6.2,13.55,7.27,29.01,1.25,42.82-2.55,5.84,6.07,10.94,8.63,5.05h0Z"/><path class="cls-4" d="M490.89,392.12c30.71-1.92,60.4-16.95,72.11-46.76,2.35-5.99-7.31-8.59-9.64-2.66-9.96,25.35-36.66,37.81-62.46,39.42-6.39.4-6.44,10.4,0,10h0Z"/><path class="cls-4" d="M563.95,355.61c8.99,22.7,30.65,40.01,53,48.51,24.08,9.16,51.94,11.27,76.43,2.76,6.04-2.1,3.44-11.76-2.66-9.64-22.01,7.65-45.93,5.91-67.81-1.57-20.02-6.84-41.29-22.45-49.32-42.71-2.34-5.91-12.02-3.34-9.64,2.66h0Z"/><path class="cls-2" d="M654.73,369.85s20.91,46.65,112.44,41.42"/><path class="cls-4" d="M375.65,333.34c9.55-27.82,27.72-52.74,51.64-69.94,26.52-19.07,58.56-28.56,91.11-28.46,6.44.02,6.44-9.98,0-10-34.68-.1-69.36,10.1-97.42,30.75-25.54,18.78-44.69,45.03-54.97,75-2.09,6.1,7.56,8.72,9.64,2.66h0Z"/><path class="cls-2" d="M522.09,197.15s-6.16,34.28,14.28,46.03"/><path class="cls-4" d="M518.49,200.63c5.97,14.04,14.89,26.25,29,32.9,14.71,6.93,31.14,7.27,46.7,3.18,6.22-1.63,3.58-11.28-2.66-9.64-13.37,3.51-27.85,3.48-40.4-2.86-11.98-6.05-18.88-16.58-24-28.62-2.51-5.9-11.13-.81-8.63,5.05h0Z"/><path class="cls-4" d="M552.4,226.73c18.33-15.56,42.56-21.16,66.11-18.1,23.2,3.02,43.16,14.49,61.62,28.28,5.16,3.85,10.15-4.82,5.05-8.63-20.53-15.33-42.63-27-68.41-29.85s-51.59,4.39-71.43,21.23c-4.91,4.17,2.19,11.21,7.07,7.07h0Z"/><path class="cls-4" d="M685.33,237.51c31.26-2.79,63.41,6.34,87.79,26.36,23.14,19.01,38.32,46.17,43,75.68,1,6.34,10.64,3.65,9.64-2.66-4.99-31.5-21.87-61.11-46.8-81.09-26.22-21.01-60.16-31.28-93.63-28.3-6.36.57-6.42,10.57,0,10h0Z"/><path class="cls-4" d="M827.02,354.18c22.32,11.43,40.07,31.66,49.04,55.08,8.47,22.11,11.62,48.75,6.6,72.03-1.35,6.27,8.28,8.96,9.64,2.66,5.47-25.37,2.49-54.62-7.12-78.67-10.1-25.26-28.78-47.26-53.12-59.73-5.72-2.93-10.78,5.7-5.05,8.63h0Z"/><path class="cls-4" d="M870.84,475.11c32.25,32.29,28.77,91.78-2,123.63-4.47,4.63,2.59,11.71,7.07,7.07,34.53-35.75,38.13-101.6,2-137.78-4.55-4.56-11.63,2.51-7.07,7.07h0Z"/><path class="cls-4" d="M870.04,550.29c5.12,18.6-1.8,38.1-17.82,48.93-4.24,2.87-.24,9.8,4.04,6.91,19-12.84,27.61-35.77,21.5-57.96-1.36-4.96-9.08-2.85-7.71,2.13h0Z"/><path class="cls-4" d="M424.48,783.66c-27.93-10.42-54.76-25.49-73.82-48.91-15.43-18.96-23.79-42.29-28.23-66.08-2.65-14.21-3.96-28.62-4.86-43.03-.4-6.39-10.4-6.44-10,0,1.67,26.61,4.64,53.76,14.42,78.77,9.89,25.32,26.51,46.49,48.5,62.45,15.66,11.37,33.27,19.69,51.34,26.44,6.04,2.25,8.64-7.41,2.66-9.64h0Z"/><path class="cls-4" d="M529.89,259.84c-3.29,9.86-3.97,21.15-2.7,31.39,2.69,21.65,16.3,38.24,36.14,46.91,4.67,2.04,8.75-4.85,4.04-6.91-18.1-7.91-30.67-22.6-32.47-42.62-.79-8.78-.11-18.23,2.7-26.65,1.63-4.9-6.09-6.99-7.71-2.13h0Z"/><path class="cls-4" d="M554.37,294.34c-1.31,15.47,7.16,29.95,21.39,36.21,4.67,2.05,8.74-4.84,4.04-6.91-11.89-5.23-18.53-16.33-17.42-29.31.44-5.13-7.57-5.1-8,0h0Z"/><path class="cls-4" d="M359.19,340.17c-23.03,15.71-42.13,37.69-53.63,63.16-11.63,25.74-14.4,54.41-7.77,81.91,3.42,14.2,9.43,27.62,18.42,39.16,3.95,5.07,10.98-2.05,7.07-7.07-19.27-24.74-23.37-61.47-15.43-91.13,8.4-31.34,29.75-59.23,56.39-77.4,5.28-3.61.29-12.27-5.05-8.63h0Z"/><path class="cls-4" d="M323.62,465.04c-10.32,16.79-5.75,41.23,6.21,55.97,3.24,4,8.87-1.69,5.66-5.66-9.71-11.97-13.27-32.75-4.95-46.28,2.7-4.4-4.21-8.42-6.91-4.04h0Z"/><path class="cls-4" d="M407.36,752.42c6.95,20.04,13.79,39.42,27.45,56.05,15.65,19.06,37.32,33.59,59.97,43.07,14.91,6.24,30.57,9.99,46.69,11.14,6.42.46,6.39-9.54,0-10-30.95-2.21-60.89-15.67-84.35-35.81-11.25-9.66-20.65-21.03-27.42-34.26-5.37-10.49-8.86-21.75-12.71-32.85-2.09-6.04-11.76-3.45-9.64,2.66h0Z"/><path class="cls-4" d="M302.92,505.84c-27.17,41.83-17.25,105.4,20.91,137.59,4.89,4.13,12-2.91,7.07-7.07-34.9-29.45-44.26-87.12-19.34-125.47,3.52-5.41-5.14-10.43-8.63-5.05h0Z"/><path class="cls-4" d="M318.73,583.71c-3.31,19.38,2.69,43.28,20.11,54.31,4.36,2.76,8.38-4.16,4.04-6.91-14.12-8.94-19.1-29.61-16.43-45.28.86-5.04-6.85-7.2-7.71-2.13h0Z"/><path class="cls-4" d="M339.39,597.5c-1.79,13.25-1.11,27.91,9.98,37.1,3.94,3.26,9.63-2.37,5.66-5.66-8.78-7.27-9.36-18.75-7.93-29.31.68-5.03-7.03-7.21-7.71-2.13h0Z"/><path class="cls-4" d="M480.65,799.29c6.6,25.89,23.66,48.43,48.6,58.92,12.36,5.2,25.72,7.25,38.24,11.99,10.88,4.11,22.24,8.93,27,20.33,2.44,5.85,12.12,3.28,9.64-2.66-4.42-10.6-11.65-17.35-21.97-22.21-12.42-5.85-25.36-9.09-38.45-12.94-13.33-3.92-25.28-10.36-34.77-20.65-9.2-9.98-15.31-22.35-18.65-35.44-1.59-6.23-11.24-3.59-9.64,2.66h0Z"/><path class="cls-4" d="M387.36,740.8c5.25,19.8,13.94,40.96,33.94,49.79,5.83,2.58,10.93-6.04,5.05-8.63-17.71-7.82-24.71-26.32-29.35-43.81-1.65-6.21-11.3-3.58-9.64,2.66h0Z"/><path class="cls-4" d="M776.84,792.8c32.8-15.23,63.97-35.92,84.39-66.39,17.1-25.51,24.41-55.63,27.47-85.83,1.69-16.7,2.03-34.08-2.44-50.42-1.7-6.2-11.35-3.57-9.64,2.66,3.67,13.41,3.8,27.83,2.65,41.61-1.25,14.91-3.43,29.76-7.42,44.2-7.84,28.39-23.41,53-45.82,72.16-16.2,13.85-34.97,24.45-54.24,33.39-5.83,2.71-.76,11.33,5.05,8.63h0Z"/><path class="cls-4" d="M780.46,749.76c-3.85,11.1-7.34,22.36-12.71,32.85-6.77,13.22-16.17,24.59-27.42,34.26-23.45,20.15-53.4,33.6-84.35,35.81-6.38.46-6.43,10.46,0,10,49-3.5,100.57-33.07,122.05-78.38,4.88-10.3,8.34-21.14,12.06-31.88,2.11-6.09-7.54-8.71-9.64-2.66h0Z"/><path class="cls-4" d="M707.17,796.63c-3.27,12.83-9.2,24.99-18.12,34.87-9.57,10.59-21.7,17.22-35.29,21.22-12.83,3.78-25.59,6.86-37.74,12.65-10.33,4.93-17.14,11.91-21.52,22.5-2.46,5.94,7.21,8.53,9.64,2.66,4.59-11.08,14.35-15.88,25.01-20.02,12.76-4.96,26.44-6.98,39.07-12.3,24.94-10.49,42-33.03,48.6-58.92,1.59-6.24-8.05-8.9-9.64-2.66h0Z"/><path class="cls-4" d="M800.46,738.15c-4.64,17.5-11.64,35.99-29.35,43.81-5.87,2.59-.79,11.21,5.05,8.63,20-8.83,28.69-29.99,33.94-49.79,1.65-6.23-7.99-8.88-9.64-2.66h0Z"/></g><g id="_눈코입-완"><path class="cls-13" d="M560.25,619.17c-1.1-5.03,1.11-10.2,5.5-12.91,5.7-3.53,16.06-7.34,34.19-7.34s28.03,3.8,33.31,7.33c3.92,2.62,5.98,7.26,5.28,11.91-1.52,10.16-8.01,29.62-38.6,29.62s-37.41-18.23-39.69-28.61Z"/><path class="cls-13" d="M590.82,609.39v81.93c0,10.94,17,10.96,17,0v-81.93c0-10.94-17-10.96-17,0h0Z"/><path class="cls-13" d="M651.78,505.03c15.15-4.08,30.29-8.15,45.44-12.23,7.45-2,4.29-13.58-3.19-11.57-15.15,4.08-30.29,8.15-45.44,12.23-7.45,2-4.29,13.58,3.19,11.57h0Z"/><path class="cls-13" d="M550.04,493.46c-15.15-4.08-30.29-8.15-45.44-12.23-7.47-2.01-10.65,9.56-3.19,11.57,15.15,4.08,30.29,8.15,45.44,12.23,7.47,2.01,10.65-9.56,3.19-11.57h0Z"/><circle class="cls-13" cx="525.72" cy="555.36" r="24.11"/><circle class="cls-10" cx="536.84" cy="547.28" r="4.99"/><circle class="cls-13" cx="672.91" cy="555.36" r="24.11"/><circle class="cls-10" cx="684.02" cy="547.28" r="4.99"/><circle class="cls-10" cx="627.93" cy="614.1" r="4.1"/></g><g id="_손채색-완"><path class="cls-12" d="M355.3,700.26c-1.13-3.45-2.98-6.7-4.18-10.04-.01-.03-.02-.07-.03-.1.53-.78.96-1.62,1.3-2.49-1.14,1.01-2.41,1.88-3.87,2.52-5.39,2.37-10.97,1.46-14.34-3.76-2.69-4.17-1.41-11.36,3.05-13.96.9-1.23,1.79-2.48,2.65-3.75-4.44.42-8.78,2.88-10.98,6.83-.08.09-.15.17-.23.25-1.65,1.67-3.31,4.31-3.93,6.58-1.07,3.91-.49,8.04.46,11.91,1.38,5.61,5.08,10.76,5.87,16.22.97,6.72-.07,14.23-.68,20.95-.63,6.97-1.69,13.84-3.04,20.7-1.35,6.88,1.96,14.03,9.08,15.99,6.39,1.75,14.63-2.16,15.99-9.08,2.98-15.16,5.51-31.33,4.76-46.83-.19-3.97-.67-8.15-1.91-11.94Z"/><path class="cls-12" d="M358.31,665.69c5.31-10.26,8.58-21.43,7.44-33.09-1.07-10.93-4.79-22.23-13.44-29.53-9.38-7.91-23.22-10.19-33.86-3.25-5.87,3.83-8.33,11.52-4.66,17.79,3.42,5.84,11.88,8.52,17.79,4.66.55-.36.75-.59.78-.73.16.03.38.05.68.07-1.06-.28-.78-.22.83.18-.8-.53-.5-.39.89.42.92.57,2.72,3,3.28,4.27,2.9,6.63,2.54,14.53.09,21.23-2.96,8.08-8.42,15-10.78,23.41-2.55,9.08-2.03,19.26,3.21,27.3,3.83,5.88,11.52,8.33,17.79,4.66,5.85-3.42,8.51-11.88,4.66-17.79-.94-1.44-1.07-1.48-1.16-2.44-.2-2.24-.12-2.37.57-4.82,1.24-4.4,3.83-8.31,5.91-12.34Z"/><path class="cls-12" d="M309.64,600.44c-5.89-9.26-16.32-18.8-27.4-20.91-13.3-2.53-26.14,2.99-34.91,13.02-4.62,5.28-5.2,13.19,0,18.38,4.72,4.72,13.74,5.31,18.38,0,3.22-3.68,7.27-6.98,11.21-5.99,3.33.84,8.25,5.44,10.27,8.62,3.76,5.92,11.57,8.3,17.79,4.66,5.9-3.45,8.45-11.84,4.66-17.79Z"/><path class="cls-12" d="M236.87,607.86c-15.14-15.64-47.14-22.1-58.15,1.79-2.94,6.37-1.81,14,4.66,17.79,5.61,3.28,14.84,1.74,17.79-4.66.04-.08,1.91-3.26.92-1.98,1.05-1.36.32-.49,1.14-.96.15-.08.26-.14.35-.19.14-.04.28-.08.42-.11.3.08,1.76.1,2.01.14,4.88.79,9.17,3.15,12.48,6.58,11.66,12.05,30.03-6.35,18.38-18.38Z"/><path class="cls-12" d="M188.97,644.23c-.28-6.28-5.78-13.95-13-13-12.11,1.6-23.44,7.81-28.71,19.39-2.81,6.18-1.98,14.28,4.66,17.79,5.7,3.01,14.78,1.95,17.79-4.66.34-.75.7-1.49,1.11-2.21.03-.06.11-.19.2-.35.28-.34.88-1.16,1.06-1.34.12-.12.63-.58,1.01-.92.26-.18.53-.37.62-.43.52-.32,1.07-.6,1.61-.88.08-.02.14-.04.23-.06.62-.16,3.85-.79.42-.34,6.72-.89,13.34-5.34,13-13Z"/><path class="cls-9" d="M337.27,672.43c1.74-2.36,3.4-4.81,4.93-7.35.08-.16.16-.33.25-.49.21-.4.45-.76.7-1.11,4.08-7.07,7.13-14.75,8.02-22.89.83-7.6-1.2-14.8-4.16-21.67-.07-.12-.14-.24-.21-.37-3.83-8.09-15.99-12.84-23.26-9.54-4.28,1.95-9.17,1.71-12.48-1.42-.52.54-1.02,1.1-1.49,1.69,0-.38-.01-.76-.02-1.14-.01-.81-.03-1.62-.05-2.43-.1-.15-.2-.29-.29-.45-.28-.48-.51-1-.7-1.54-3.7,2.81-8.92,3.33-13.01-1.11-9.52-10.34-28.19-15.36-40.42-9.79-3,1.37-6.3,1.65-9.15.63-1.01,1.26-1.94,2.58-2.82,3.94,2.83,7.12-2.66,17.23-12.16,14.4-14.23-4.24-33.17-10.17-46.32.08-3.05,2.38-6.77,3.56-10.23,2.68-2.44,4.47-4.06,9.41-4.64,14.43,3.71.73,6.85,3.15,7.99,7.28,1.4,5.08-1.74,11.91-7.32,12.89-1.66.29-3.32.62-4.95,1.08-.73.21-1.45.45-2.16.7-.04.02-.06.04-.11.06-.66.37-1.32.77-1.99,1.12-.16.09-.28.15-.38.19-.03.03-.08.08-.14.13-1.17,1.01-2.22,2.12-3.24,3.28-1.76,2.03-4.33,2.97-6.94,3.02-1.32,6.09-1.27,12.57.18,18.96,2.16,9.5,7.81,20.14,15.99,26.09-.13,1.54.08,3.14.75,4.77,1.59,3.88,3.24,6.59,5.71,9.11.91,13.36,5.38,25.07,11.97,35.61-.21,2.53.31,5.18,1.6,7.68.51,1,1.02,1.99,1.53,2.99.75,2.04,1.75,4,2.97,5.78,1.58,2.31,3.47,3.88,5.49,4.85,2.2,2.82,4.46,5.38,7.11,7.72-.98,1.7-.96,3.85.98,5.56,7.65,6.73,16.37,11.45,25.89,14.14.89,1.81,1.74,3.64,2.58,5.48,4.57-.06,9.57,3.15,10.38,7.7.74,4.21,1.53,8.38,2.98,12.41.66,1.84.62,3.7.1,5.43-.02.38-.06.76-.12,1.13,2.04,2.33,3.86,4.81,5.37,7.42,7.45,12.88,14.49,25.99,22.23,38.7.77,1.27,1.46,2.57,2.09,3.89,1.4-2.03,2.18-4.42,1.93-6.95-2.51-25.46-8.61-50.14-18.35-73.58.46-.15.9-.33,1.33-.52,3.97,2.51,9.14,2.53,13.65.35,5.42-2.62,10.56-5.62,15.52-8.92,2.72.6,5.77.26,8.88-1.48,8.76-4.9,17.42-10.33,23.71-18.29,5.2-6.58,8.64-14.04,11.6-21.77,2.47-3.02,4.58-6.38,6.19-10.14.95-2.22,1.47-4.57,1.47-6.85,1.94-9.49,1.86-19.1-.35-28.75-1.6-6.99-4.25-13.72-7.26-20.28-.14-.19-.28-.38-.41-.58-.51-.79-.87-1.68-1.1-2.63-.15-.31-.3-.63-.45-.94.08-.02.17-.04.26-.06-.55-3.9,1.01-8.4,4.36-10.34Z"/><path class="cls-5" d="M340.48,729.66c-.07-1.72-.45-3.38-1.1-4.9.39-3.08.52-6.19.44-9.24-.13-4.83-2.66-8.45-6.1-10.58-2.25-7.33-5.83-14-12.97-18.07-3.48-1.98-7.79-3-12.1-3.05-.48-1.25-1.45-2.34-2.98-2.93-5.41-2.1-11.33-1.07-16.75-2.96-1.15-.4-2.18-.38-3.05-.07-.88-.43-1.92-.62-3.08-.45-9.87,1.47-19.46,3.85-28.83,7.01-.61-2.48-2.77-4.4-5.82-3.18-11.41,4.57-21.87,10.85-31.01,19.12-6.19,5.6-12.49,12.31-15.3,20.25-1.41.87-2.36,2.37-2.37,4.18-.02,3.16.32,6.3.92,9.4.35,1.8,1.92,3.05,3.64,3.46.13.68.26,1.36.42,2.04-.07,8.33,2.04,16.17,5.95,23.52,1.35,2.53,3.38,4.23,5.72,5.2.12.13.24.27.36.4,1.35,1.32,2.96,2.6,4.54,3.64,2.15,1.41,4.6,2.48,7.1,3.21,1.06.69,2.2,1.27,3.42,1.7,7.87,2.79,16.83.7,23.64-3.8,5.32-3.5,10.02-8.16,15.75-10.71,6.5-2.89,11.57-2.39,17.94-4.06,2.68-.71,5.18-1.92,7.36-3.52,2.27,1.13,4.67,1.62,7.12,1.66,8.14,1.46,16.82.85,23.96-3.63,8.12-5.1,13.56-13.89,13.18-23.64Z"/><path class="cls-9" d="M231.72,603.5c-.18-.13-.36-.25-.54-.38-.21-.25-.42-.5-.66-.73-5.94-5.99-13.76-7.26-21.4-5.84-.23-.02-.46-.06-.7-.07-6.19-.43-12.91-1.45-17.35,2.98-7.06,2.56-13.39,9.51-16.93,16.49-4.94,9.73,3.26,22.45,14.68,19.1,3.73-1.09,7.32-2.6,10.81-4.32,2.06-1.02,3.62-2.67,4.69-4.62,1.34-.26,2.57-.74,3.67-1.42,1.45-.34,2.48-.53,3.97-.6,4.46,1.69,8.19,3.02,13.19,3.63,5.56.68,11.16-4.52,12.54-9.54,1.66-6.03-1.34-11.13-5.97-14.68Z"/><path class="cls-9" d="M184.37,650.01c-.31-7.02-5.71-13.03-13-13-14.68.06-26.33,15.03-22.04,29.3,2.93,9.75,14.39,12.21,21.73,5.74.76-.67,1.52-1.34,2.28-2.01,2.38-2.1,3.6-5.24,3.75-8.45,4.31-2.17,7.52-6.59,7.29-11.58Z"/><path class="cls-9" d="M351.1,688.13c1.04-4.52,2.91-8.86,4-13.4,2.18-9.05,3.47-18.58,3.46-27.94,4.68-3.05,6.73-8.51,5.49-14.23-3.67-17-12.16-32.55-31.18-34.28-3.92-.36-7.52,1.7-9.94,4.74-3.89.38-7.43,2.15-9.78,4.95,1.57-4.14,1.12-9.01-2.83-13.14-6.69-7.02-14.29-13.97-23.99-16.32-11.91-2.88-23.04,1.39-33.86,5.96-6.47,2.74-7.88,12.28-4.66,17.79,3.92,6.7,11.29,7.41,17.79,4.66,4.64-1.96,10.29-4.44,15.28-2.94,3.34,1,7.56,5.56,11.07,9.24,6.32,6.63,14.66,4.14,19.05-1.46-.46,1.3-.72,2.71-.72,4.22,0,7.66,5.99,12.24,13,13-1.72-.19,2.25.55,2.25.54.84.23,1.68.48,2.49.78,0,0,0,0,0,0-.04,0-.01.01.06.06,1.35,1.3,1.93,2,2.79,4.05,2.59,6.21,1.88,13.93,1.31,20.64-.28,3.32-.8,6.61-1.5,9.87-.51.36-.99.83-1.4,1.44-4.4,6.65-5.37,14.13-4.1,21.44-.35,4.67.14,9.31,1.62,14.36,2.27,7.74,5.06,15.32,7.05,23.15.77,3.03,1.5,6.1,1.89,9.2.27,2.12.33,4.28.32,6.41,0,.62-.25,4.16-.14,3.8-.38,2.42-1.06,4.88-1.96,7.16.02-.18-1.09,2.13-1.23,2.39-.24.42-2.18,3.29-2.05,3.23-.8.95-1.69,1.8-2.56,2.68-.38.38-.58.61-.67.74-.15.05-.42.18-.87.42-.23.12-2.41,1.14-2.19,1.14-.63.2-1.26.38-1.9.53,1.29-.06,1.12-.04-.51.06-7,.51-13,5.61-13,13,0,6.64,5.96,13.51,13,13,18.74-1.36,32.35-14.98,37.81-32.44,6.06-19.37-1.03-39.35-6.81-57.83-1.2-3.84-2.6-7.52-1.88-10.68Z"/><path class="cls-5" d="M189.12,667.8c-.13-1.48-.24-3.04-.69-4.47-.4-1.69-1.18-3.17-2.33-4.42-.92-1.42-2.13-2.53-3.65-3.35-1.49-.95-3.1-1.46-4.83-1.54-1.73-.39-3.46-.31-5.18.23l-3.11,1.31c-1.95,1.16-3.51,2.71-4.66,4.66l-1.31,3.11c-.3,1.1-.45,2.21-.46,3.31-.53,2.11-.36,2.69-.09,4.71.28,2.09.29,2.72,1.58,4.9.82,1.51,1.93,2.73,3.35,3.65,1.26,1.15,2.73,1.92,4.42,2.33.56.24,1.16.33,1.8.26,1.73.39,3.46.31,5.18-.23,1.16-.31,2.31-.75,3.32-1.4.88-.68,1.75-1.36,2.63-2.03.73-.86,1.42-1.76,2.07-2.68.04-.05.07-.11.09-.18.44-1.04.87-2.07,1.31-3.11.29-1.21.39-2.56.53-3.79.05-.42.06-.83.02-1.25Z"/><path class="cls-5" d="M223.14,627.03c-.08-1.73-.59-3.34-1.54-4.83-.14-.21-.29-.42-.44-.63-.04-.22-.09-.45-.13-.64-.3-1.3-.97-2.48-1.52-3.69-.82-1.51-1.93-2.73-3.35-3.65-1.26-1.15-2.73-1.92-4.42-2.33-1.73-.54-3.46-.62-5.18-.23-1.73.08-3.34.59-4.83,1.54-2.78,1.79-5.22,4.45-5.97,7.77-.15,1.15-.31,2.3-.46,3.46,0,.66.06,1.3.16,1.94-.06.55-.1,1.11-.07,1.66.15,3.7,1.42,7.51,4.12,10.16,4.59,4.49,11.78,5.99,17.45,2.43,2.82-1.77,5.08-4.52,5.97-7.77.54-1.73.62-3.46.23-5.18Z"/><path class="cls-5" d="M287.98,603.96c-1.02-3.15-2.97-6.18-5.97-7.77-2.9-1.53-6.83-2.58-10.02-1.31-3.76,1.5-6.37,2.89-9.47,5.51-3.51,2.96-5.88,7.29-5.93,11.94-.06,5.57,3.11,10.33,7.76,13.13,4.07,2.45,9.47,2.53,13.83.89,3.24-1.22,5.96-2.89,7.77-5.97,1.37-2.34,2.06-5.61,1.65-8.45.91-2.53,1.16-5.54.37-7.96Z"/><path class="cls-5" d="M343.72,635.53c-.08-1.73-.59-3.34-1.54-4.83-.82-1.51-1.93-2.73-3.35-3.65-1.26-1.15-2.73-1.92-4.42-2.33l-3.46-.46c-2.35,0-4.53.6-6.56,1.77-.88.68-1.75,1.36-2.63,2.03-.87.87-1.58,1.84-2.16,2.88-.78.95-1.37,2.01-1.75,3.18-.81,1.55-1.19,3.22-1.12,5.01-.07,1.79.31,3.46,1.12,5.01.52,1.61,1.42,3.01,2.69,4.18.88.68,1.75,1.36,2.63,2.03,2.03,1.18,4.21,1.77,6.56,1.77l3.46-.46c2.2-.62,4.11-1.73,5.74-3.34,1.05-1.04,1.95-2.27,2.75-3.5.1-.16.2-.32.28-.49.05-.09.09-.19.13-.29.49-1.09.98-2.22,1.4-3.34.54-1.73.62-3.46.23-5.18Z"/><path class="cls-5" d="M341.12,732.05c-1.56-12.31-4.52-24.17-9.24-35.65-.52-1.28-1.34-2.18-2.28-2.74-.17-.36-.33-.72-.5-1.09-2.41-5.23-10.6-1.49-9.14,3.85.15.54.27,1.07.41,1.61-1.28,1.04-1.91,2.71-1.07,4.8l3.2,7.87c.72,1.76,2.34,2.88,4.07,3.27.34.67.78,1.21,1.28,1.63,1.45,5.4,2.56,10.89,3.26,16.46.8,6.3,10.81,6.38,10,0Z"/></g><g id="_몸통_커피_라인-완"><path class="cls-7" d="M353.08,760.77c6.85,23.1,20.88,41.55,39.77,56.24,5.02,3.9,12.15-3.12,7.07-7.07-17.56-13.66-30.81-30.29-37.2-51.83-1.83-6.16-11.48-3.53-9.64,2.66h0Z"/><path class="cls-6" d="M167.1,627.66c-18.59,5.15-28.32,24.5-26.04,42.86,2.68,21.6,18.03,37.77,33.92,51.23,4.88,4.14,11.99-2.9,7.07-7.07-12.88-10.92-25.91-23.35-30.16-40.31-3.7-14.79,1.87-32.64,17.87-37.07,6.19-1.71,3.56-11.36-2.66-9.64h0Z"/><path class="cls-6" d="M181.4,636.94c-5.57-14.57-.01-30.99,14.41-37.81,13.74-6.5,29.87-.44,37.98,11.95,3.51,5.36,12.18.36,8.63-5.05-10.85-16.56-31.81-24.39-50.27-16.17-18.85,8.39-27.73,30.55-20.39,49.74,2.28,5.95,11.95,3.37,9.64-2.66h0Z"/><path class="cls-6" d="M245.59,615.66c-.46-14.16,3.85-27.72,18.24-32.68,19.83-6.84,41.52,6.85,41.57,28.32.01,6.43,10.01,6.45,10,0-.06-26.67-25.98-45.47-51.53-38.78-7.64,2-14.83,6.13-19.82,12.31-7.02,8.69-8.82,19.94-8.47,30.83.21,6.42,10.21,6.45,10,0h0Z"/><path class="cls-6" d="M317.91,607.02c15.6-10.99,33.62,1.63,38.7,17.55,6.1,19.14-.65,39.33-11.98,55-3.78,5.22,4.89,10.22,8.63,5.05,13.89-19.21,20.96-45.56,10.9-68.11-8.54-19.13-32.5-31.36-51.3-18.13-5.22,3.68-.23,12.35,5.05,8.63h0Z"/><path class="cls-6" d="M348.88,678.58c-2.02,12.28,3.94,23.61,5.38,35.58,1.72,14.27,3.22,27.57-1.93,41.31-3.92,10.46-10.3,17.84-20.4,22.85-8.69,4.31-19.93,1.03-29.3,2.75-11.94,2.19-21.58,16.22-34.23,14.23-6.3-.99-9.01,8.65-2.66,9.64,13.76,2.16,22.52-6.55,34.04-12.27,9.91-4.92,21.68-.59,32.13-3.56,25.63-7.3,35.79-36.98,33.89-60.84-.63-7.93-1.31-16.13-3.18-23.88-1.77-7.3-5.35-15.52-4.09-23.15,1.04-6.3-8.6-9-9.64-2.66h0Z"/><path class="cls-1" d="M289.24,616.83c-.94,7.46-9.13,12.57-18.3,11.41-9.16-1.16-15.83-8.14-14.89-15.6.94-7.46,9.81-17.94,18.98-16.78,9.16,1.16,15.15,13.51,14.21,20.97Z"/><path class="cls-1" d="M223.92,623.16c2.41,7.12-2.23,15.13-10.37,17.88-8.13,2.75-16.68-.79-19.09-7.92s.5-20.26,8.63-23.01c8.13-2.75,18.42,5.92,20.82,13.05Z"/><path class="cls-1" d="M188.46,661.57c4.28,5.42,2.73,13.78-3.46,18.67-6.19,4.89-14.68,4.46-18.96-.96-4.28-5.42-5.82-17.68.37-22.57,6.19-4.89,17.76-.56,22.05,4.87Z"/><path class="cls-1" d="M342.34,646.22c-2.91,6.27-11.06,8.66-18.22,5.34s-10.61-11.09-7.7-17.36c2.91-6.27,13.16-13.17,20.31-9.85,7.16,3.32,8.51,15.6,5.61,21.87Z"/><path class="cls-6" d="M198.69,734.68c-.76,15.4,6.71,31.81,19.77,40.24,11.43,7.37,30.35,9,42.18,1.46,7.49-4.77,13.4-11.2,21.95-14.35,5.29-1.95,10.26-1.88,15.71-.83,13.62,2.63,28.46,2.46,37.67-9.49,11.11-14.4,8.38-33.33.5-48.62-2.36-4.58-9.26-.54-6.91,4.04,6.2,12.05,9.01,27.26.67,38.96-7.84,11.01-20.91,8.81-32.45,6.91-11.19-1.84-21.28,1.84-30.51,8.21-6.2,4.28-10.82,9.56-18.47,11.23-5.68,1.24-12.59.68-18.22-.65-15.79-3.74-24.66-22.02-23.92-37.11.25-5.15-7.75-5.13-8,0h0Z"/><path class="cls-6" d="M196.36,702.85c11.71-22.29,35.64-33.26,59.39-37.71s49.6-3.04,70.08,9.85c4.37,2.75,8.39-4.17,4.04-6.91-22.34-14.06-50.9-15.4-76.24-10.65-25.7,4.81-51.55,17.37-64.17,41.39-2.39,4.55,4.51,8.6,6.91,4.04h0Z"/><path class="cls-6" d="M203.05,723.77c11.11-21.16,33.12-31.81,55.48-37.12,23.09-5.48,48.44-4.96,69.02,7.98,4.37,2.75,8.39-4.17,4.04-6.91-22.39-14.07-50.07-14.75-75.19-8.79-24.29,5.77-48.22,17.87-60.26,40.8-2.39,4.55,4.51,8.6,6.91,4.04h0Z"/><path class="cls-6" d="M150.31,650.66c-.56-3.54-1.44-7.52-1.08-11.1l-1.17,2.83c.66-.63,2.99-.54,3.74-.64,1.71-.22,3.42-.44,5.13-.66,2.16-.28,3.98-1.64,4-4,.02-1.95-1.86-4.28-4-4-3.01.39-6.04.73-9.04,1.17-2.02.3-4.1.84-5.48,2.47-1.73,2.04-1.22,4.71-.98,7.17.3,2.97.7,5.93,1.17,8.89.34,2.15,3,3.3,4.92,2.79,2.28-.6,3.13-2.8,2.79-4.92h0Z"/><path class="cls-6" d="M329.29,598.97c2.76-1.84,5.57-3.75,8.52-5.26-1.38-.86-1.58-.72-.59.41.47.76.95,1.51,1.42,2.27.95,1.51,1.9,3.03,2.85,4.54,2.73,4.35,9.65.34,6.91-4.04-2.21-3.52-4.94-10.48-9.53-11.43-2.29-.47-4.28.85-6.19,1.95-2.53,1.46-5,3.02-7.43,4.64-4.27,2.84-.27,9.77,4.04,6.91h0Z"/><path class="cls-6" d="M187.68,601.7c1.6-4.82,3.23-9.59,5.58-14.11-1.51.61-3.01,1.23-4.52,1.84,4.32,1.19,8.52,2.65,12.61,4.48,1.03-2.44,2.05-4.87,3.08-7.31-3.08-.59-6.05-1.39-9-2.43-4.87-1.7-6.96,6.02-2.13,7.71,2.96,1.03,5.93,1.83,9,2.43,4.12.79,7.5-5.33,3.08-7.31-4.72-2.12-9.53-3.91-14.52-5.29-1.64-.45-3.71.28-4.52,1.84-2.67,5.12-4.57,10.55-6.39,16.02-1.62,4.9,6.1,7,7.71,2.13h0Z"/><path class="cls-6" d="M264.32,580.71c3.55-4.1,7.13-8.12,11.3-11.62h-5.66c3.81,2.97,7.34,6.2,10.66,9.71l4.85-6.28c-2.33-1.54-4.49-3.21-6.57-5.07-3.83-3.42-9.51,2.22-5.66,5.66,2.59,2.31,5.3,4.4,8.19,6.32,3.89,2.58,7.88-3.07,4.85-6.28-3.31-3.52-6.85-6.74-10.66-9.71-1.82-1.42-3.83-1.53-5.66,0-4.17,3.49-7.75,7.52-11.3,11.62-3.36,3.87,2.28,9.56,5.66,5.66h0Z"/><path class="cls-7" d="M296.89,903.04c79.65,1.43,159.32,2.14,238.99,2.32,82.19.18,164.38-.2,246.56-1.21,43.84-.54,87.68-1.26,131.51-2.22,6.43-.14,6.45-10.14,0-10-79.65,1.74-159.31,2.73-238.98,3.19s-164.38.38-246.57-.34c-43.84-.38-87.68-.95-131.52-1.73-6.44-.12-6.44,9.88,0,10h0Z"/><path class="cls-7" d="M882.78,898.14c25.17-20.08,54.58-46.01,50.74-81.79-.92-8.54-4.56-15.68-7.41-23.63-3.09-8.66-3.68-17.91-2.01-26.94,3.36-18.1,14.53-33.14,27.38-45.79,4.59-4.52-2.48-11.59-7.07-7.07-12.37,12.17-23.21,26.45-28.26,43.28-2.5,8.32-3.55,17.23-2.64,25.88.93,8.81,4.41,16.2,7.44,24.4,13.28,35.97-20.39,64.75-45.24,84.58-5.03,4.01,2.09,11.05,7.07,7.07h0Z"/><path class="cls-7" d="M917.49,900.46c11.58-10.52,24.25-19.86,33.09-32.99s12.02-30.22,9.12-46.38c-1.55-8.64-5.36-16.02-8.78-23.98-3.62-8.43-4.68-17.67-3.55-26.76,1.99-16.1,9.8-30.69,20.71-42.42,4.38-4.71-2.68-11.8-7.07-7.07-10.52,11.31-18.07,24.34-21.86,39.41-2.1,8.34-2.75,17.02-1.6,25.55,1.24,9.16,5.24,16.7,8.76,25.08,6.59,15.64,6.3,34.2-2.64,48.84-8.34,13.67-21.59,23.06-33.26,33.66-4.77,4.34,2.31,11.39,7.07,7.07h0Z"/><path class="cls-6" d="M952.77,714.42c-4.21-10.86-8.19-22.84-5.42-34.57,2.64-11.17,12.23-19.77,22.15-24.79,10.84-5.49,23.67-6.2,34.96-10.72,9.41-3.76,20.48-8.37,25.41-17.85,2.97-5.7-5.66-10.76-8.63-5.05-2.74,5.27-8.08,7.94-13.22,10.46-6.09,3-12.49,5.29-19.06,7.01-12.29,3.22-23.64,5.58-33.89,13.59-9.12,7.13-16.15,16.29-17.99,27.95-2,12.62,1.51,24.96,6.04,36.63,2.3,5.94,11.97,3.36,9.64-2.66h0Z"/><path class="cls-6" d="M1021.45,622.37c-4.57,10.35-6.26,21.89-11.57,31.9-4.95,9.34-12.47,16.81-20.74,23.26-5.07,3.95,2.05,10.98,7.07,7.07,8.48-6.61,16.18-14.44,21.52-23.85,5.92-10.45,7.54-22.45,12.35-33.33,2.58-5.83-6.04-10.93-8.63-5.05h0Z"/><path class="cls-6" d="M1014.12,649.52c-1.78,18.74-11.21,35.81-25.68,47.75-3.98,3.28,1.71,8.91,5.66,5.66,16.17-13.33,26.05-32.61,28.03-53.4.49-5.12-7.52-5.09-8,0h0Z"/><path class="cls-6" d="M963.21,729.21c18.08,6.44,37.31-5.17,47.23-19.89,5.5-8.16,9.21-17.77,11.56-27.29,2.68-10.85,3.32-22.09,7.44-32.57,2.35-5.99-7.31-8.59-9.64-2.66-3.47,8.84-4.49,18.18-6.31,27.43-1.67,8.47-4.25,16.83-8.33,24.46-7.29,13.64-22.8,26.75-39.27,20.88-6.07-2.16-8.69,7.49-2.66,9.64h0Z"/><path class="cls-6" d="M168.63,717.44c1.35,16.59,4.93,32.61,12.37,47.58,6.28,12.65,14.27,25.38,25.98,33.67,6.19,4.38,13.38,8.32,20.43,11.11,2.45.97,5.88,1.4,7.9,3.2,2.65,2.36,4.18,6.84,5.69,10.02,7.15,15.11,11.81,31.32,18.49,46.65,6.72,15.41,18.67,29.97,36.09,33.21,6.29,1.17,8.99-8.47,2.66-9.64-15.48-2.88-24.85-16.04-30.55-29.66-5.86-14.01-10.45-28.54-16.6-42.43-2.54-5.73-5.25-13.13-10.66-16.8-2.14-1.45-4.58-2.19-7.01-3-3.78-1.24-7.27-3.01-10.74-4.94-6.12-3.41-11.99-6.79-16.86-11.89s-8.53-10.65-11.92-16.55c-9.01-15.7-13.79-32.5-15.25-50.51-.52-6.37-10.52-6.43-10,0h0Z"/></g></svg>