<svg width="860" height="680" viewBox="0 0 860 680" fill="none" xmlns="http://www.w3.org/2000/svg">
<path d="M429.527 0L831.081 307.643H27.9736L429.527 0Z" fill="#FF9DAE"/>
<path d="M28.0049 121H832.005V679H28.0049V121Z" fill="white"/>
<path d="M28.0049 121H832.005V679H28.0049V121Z" fill="white"/>
<path d="M696.005 171H796.005" stroke="black" stroke-width="2"/>
<path d="M60.0049 171H160.005" stroke="black" stroke-width="2"/>
<path d="M205.427 167.226V171.678H190.839V158.63H205.427V162.802H208.675V158.35H213.407V174.674H208.675V167.226H205.427ZM200.751 167.73V162.578H195.515V167.73H200.751ZM214.471 178.342L212.847 182.542L202.431 178.762C199.687 181.086 195.767 182.262 191.791 182.262V177.838C196.271 177.838 200.247 175.934 201.143 172.574L205.875 173.414C205.679 174.114 205.427 174.758 205.119 175.374L214.471 178.342ZM223.681 167.898C222.225 170.138 219.957 171.594 217.101 171.678V167.59C219.257 167.338 220.685 165.238 221.021 162.494H217.465V158.63H228.917V162.494H225.473C225.417 163.026 225.361 163.53 225.249 164.034L230.121 168.178V158.462H234.489V162.41H236.477V158.35H240.901V172.266H236.477V166.722H234.489V171.482H230.121V168.598L227.489 171.286L223.681 167.898ZM229.897 172.294C236.169 172.294 241.125 173.638 241.125 177.418C241.125 181.198 236.169 182.542 229.897 182.542C223.625 182.542 218.669 181.198 218.669 177.418C218.669 173.638 223.625 172.294 229.897 172.294ZM229.897 178.818C233.285 178.818 236.085 178.482 236.085 177.418C236.085 176.382 233.285 176.018 229.897 176.018C226.509 176.018 223.709 176.382 223.709 177.418C223.709 178.482 226.509 178.818 229.897 178.818ZM267.162 158.35V182.262H262.43V158.35H267.162ZM252.266 158.63C256.774 158.63 259.77 162.158 259.77 170.026C259.77 177.894 256.774 181.422 252.266 181.422C247.758 181.422 244.734 177.894 244.734 170.026C244.734 162.158 247.758 158.63 252.266 158.63ZM252.266 162.97C250.67 162.97 249.41 164.678 249.41 170.026C249.41 175.402 250.67 177.082 252.266 177.082C253.834 177.082 255.094 175.402 255.094 170.026C255.094 164.678 253.834 162.97 252.266 162.97ZM296.224 167.086V171.678H293.424V182.262H288.692V158.35H293.424V167.086H296.224ZM282.196 158.994C282.196 162.606 281.86 165.854 281.272 168.654L288.188 178.398L284.324 181.114L279.564 174.142C277.604 178.622 274.608 181.114 270.968 181.142V176.27C274.804 175.822 277.352 168.822 277.38 158.826L282.196 158.994ZM323.157 167.086V171.678H320.357V182.262H315.625V158.35H320.357V167.086H323.157ZM308.793 163.25C308.737 165.406 308.541 167.422 308.205 169.242L315.037 178.258L311.285 181.03L306.581 174.562C304.649 178.734 301.653 181.114 298.069 181.142V176.382C301.569 175.99 303.865 170.922 304.033 163.25H298.741V158.91H313.805V163.25H308.793ZM335.839 165.574C335.755 167.142 335.587 168.626 335.335 169.97L342.139 178.174L338.471 181.086L333.683 174.982C331.751 178.902 328.699 181.114 325.115 181.142V176.494C328.559 176.158 330.771 171.818 331.079 165.574H325.647V161.206H331.051V158.266H335.895V161.206H340.991V165.574H335.839ZM343.343 158.35H348.075V182.262H343.343V172.098H339.339V167.618H343.343V158.35ZM370.276 158.35H375.008V172.294H370.276V166.218H367.308V161.878H370.276V158.35ZM352.44 163.586H361.568V162.214H352.384V158.63H366.244V166.918H357.116V168.29H362.66C364.816 168.29 366.916 168.01 368.176 167.506V171.034C366.944 171.566 364.704 171.874 362.464 171.874H352.44V163.586ZM353.616 182.262V173.134H375.008V182.262H353.616ZM358.32 176.83V178.566H370.304V176.83H358.32ZM405.142 171.51V169.326H402.594V165.294H405.142V163.67H402.594V159.638H405.142V158.35H409.79V171.51H405.142ZM401.474 158.63V170.558H387.222V158.63H401.474ZM396.826 166.666V162.522H391.87V166.666H396.826ZM399.094 171.846C405.198 171.846 410.014 173.218 410.014 177.194C410.014 181.17 405.198 182.542 399.094 182.542C392.99 182.542 388.174 181.17 388.174 177.194C388.174 173.218 392.99 171.846 399.094 171.846ZM399.094 178.762C402.314 178.762 404.918 178.342 404.918 177.194C404.918 176.074 402.314 175.626 399.094 175.626C395.874 175.626 393.27 176.074 393.27 177.194C393.27 178.342 395.874 178.762 399.094 178.762ZM431.879 158.35H436.611V182.262H431.879V158.35ZM424.739 163.25C424.683 165.406 424.487 167.394 424.151 169.214L431.095 178.23L427.343 181.03L422.527 174.478C420.595 178.734 417.543 181.114 413.903 181.142V176.382C417.403 175.99 419.811 170.922 419.979 163.25H414.575V158.91H429.863V163.25H424.739ZM459.793 158.35H464.217V182.262H459.793V171.622H457.805V181.842H453.437V158.462H457.805V167.142H459.793V158.35ZM445.401 176.998H446.745C448.621 176.998 450.861 176.718 452.317 176.186V180.274C450.889 180.862 448.341 181.142 446.325 181.142H440.837V158.91H451.281V163.054H445.401V176.998ZM472.027 182.962C468.835 179.546 466.763 175.458 466.763 170.278C466.763 165.098 468.835 161.01 472.027 157.594H477.039C473.847 160.926 471.635 165.238 471.635 170.278C471.635 175.318 473.847 179.63 477.039 182.962H472.027ZM504.064 167.086V171.678H501.264V182.262H496.532V158.35H501.264V167.086H504.064ZM489.7 163.25C489.644 165.406 489.448 167.422 489.112 169.242L495.944 178.258L492.192 181.03L487.488 174.562C485.556 178.734 482.56 181.114 478.976 181.142V176.382C482.476 175.99 484.772 170.922 484.94 163.25H479.648V158.91H494.712V163.25H489.7ZM521.701 166.638H524.333V164.37H521.701L521.421 160.198H524.333V158.35H528.981V176.074H524.333V170.81H521.421L521.701 166.638ZM520.973 165.546C520.973 169.886 517.865 172.714 513.273 172.714C508.681 172.714 505.573 169.886 505.573 165.546C505.573 161.234 508.681 158.378 513.273 158.378C517.865 158.378 520.973 161.234 520.973 165.546ZM510.249 165.546C510.249 167.618 511.481 168.766 513.273 168.766C515.065 168.766 516.297 167.618 516.297 165.546C516.297 163.474 515.065 162.326 513.273 162.326C511.481 162.326 510.249 163.474 510.249 165.546ZM512.685 178.034H529.317V182.262H507.869V173.89H512.685V178.034ZM536.707 182.962H531.695C534.887 179.63 537.099 175.318 537.099 170.278C537.099 165.238 534.887 160.926 531.695 157.594H536.707C539.899 161.01 541.971 165.098 541.971 170.278C541.971 175.458 539.899 179.546 536.707 182.962ZM560.547 159.05V181.87H555.479V163.474H551.447V159.05H560.547ZM572.912 158.434C578.036 158.434 581.06 161.458 581.06 165.602C581.06 167.982 579.912 170.026 575.908 174.17L572.632 177.558H581.508V181.87H565.184V178.958L572.66 171.258C575.404 168.43 576.048 166.946 576.048 165.658C576.048 163.978 575.124 162.858 572.912 162.858C570.84 162.858 569.72 164.538 569.72 166.274H564.708C564.708 161.794 568.096 158.434 572.912 158.434ZM607.072 158.35V182.262H602.34V158.35H607.072ZM598.644 158.91V165.378C598.644 175.094 593.24 181.142 584.868 181.142V176.662C590.664 176.606 593.8 172.294 593.8 165.378V163.222H584.868V158.91H598.644ZM633.23 176.998H642.918V181.422H618.726V176.998H628.414V173.134H620.042V158.91H641.602V173.134H633.23V176.998ZM624.746 163.334V168.738H636.898V163.334H624.746ZM664.055 158.35H668.787V170.726H664.055V158.35ZM654.367 167.198C652.491 169.242 649.607 170.754 646.191 170.838V166.722C649.271 166.554 651.315 164.538 651.875 162.522H646.527V158.63H661.983V162.522H656.691C656.635 162.942 656.523 163.362 656.411 163.81L662.795 167.086L660.667 170.586L654.367 167.198ZM664.139 173.134V171.566H668.787V182.262H647.395V171.566H652.043V173.134H664.139ZM652.043 178.51H664.139V176.802H652.043V178.51Z" fill="black"/>
<path d="M0 283L28 302.086L28 266L0 283Z" fill="#9E4B58"/>
<path d="M858.005 285L832.005 303.31L832.005 267L858.005 285Z" fill="#9E4B58"/>
<path fill-rule="evenodd" clip-rule="evenodd" d="M228.007 680.001L427.529 563.907L0.00465597 283L0.00463867 680.001H228.007Z" fill="#DB627B"/>
<path fill-rule="evenodd" clip-rule="evenodd" d="M626.429 680L429.527 565.442L858.005 285L859.068 680H626.429Z" fill="#DB627B"/>
<path d="M429.527 417.772L859.05 680H0.00463867L429.527 417.772Z" fill="#FF9DAE"/>
<path d="M362.597 501.858C353.23 491.121 350.337 475.942 354.553 459.661C358.769 443.379 369.75 427.329 385.079 415.04C400.408 402.752 418.831 395.232 436.293 394.134C453.756 393.037 468.829 398.453 478.195 409.19L442.754 437.6C439.131 433.447 433.301 431.352 426.546 431.777C419.791 432.201 412.664 435.11 406.735 439.864C400.805 444.617 396.557 450.826 394.926 457.124C393.295 463.422 394.415 469.294 398.038 473.447L362.597 501.858Z" fill="#A14F4F"/>
<path d="M423.807 416.943C433.7 409.012 445.099 403.239 456.56 400.354C468.022 397.469 479.033 397.601 488.2 400.734C497.367 403.867 504.278 409.861 508.061 417.956C511.843 426.051 512.326 435.885 509.449 446.214L474.993 448.964C476.106 444.969 475.919 441.165 474.456 438.033C472.993 434.902 470.319 432.583 466.773 431.371C463.227 430.159 458.968 430.108 454.534 431.224C450.1 432.34 445.691 434.573 441.864 437.641L423.807 416.943Z" fill="#A14F4F"/>
<g filter="url(#filter0_d_1736_1302)">
<path d="M503.567 423.997C509.434 430.722 511.78 440.014 510.308 450.698C508.835 461.381 503.61 472.976 495.294 484.016C486.978 495.057 475.944 505.046 463.588 512.722C451.231 520.398 438.107 525.415 425.875 527.14L438.073 492.306C442.805 491.639 447.881 489.698 452.661 486.729C457.441 483.76 461.709 479.896 464.926 475.625C468.143 471.354 470.164 466.869 470.734 462.736C471.303 458.604 470.396 455.009 468.126 452.408L503.567 423.997Z" fill="#A14F4F"/>
</g>
<ellipse cx="51.1594" cy="53.1485" rx="51.1594" ry="53.1485" transform="matrix(0.823868 0.554957 -0.595343 0.812154 428.313 388.217)" fill="#A14F4F"/>
<g filter="url(#filter1_d_1736_1302)">
<path d="M483.106 482.545C487.957 492.126 488.697 501.574 485.231 509.691C481.766 517.809 474.251 524.233 463.637 528.151C453.023 532.069 439.786 533.305 425.601 531.702C411.416 530.099 396.92 525.73 383.945 519.147L402.9 497.546C407.919 500.092 413.527 501.782 419.014 502.402C424.501 503.022 429.622 502.544 433.727 501.029C437.833 499.513 440.74 497.028 442.081 493.888C443.421 490.748 443.135 487.094 441.259 483.387L483.106 482.545Z" fill="#A14F4F"/>
</g>
<path d="M454.25 505.241C442.605 514.575 429.422 521.637 416.368 525.533C403.314 529.429 390.975 529.985 380.912 527.129C370.848 524.273 363.511 518.135 359.83 509.49C356.149 500.845 356.288 490.082 360.23 478.562L399.063 473.351C397.538 477.807 397.484 481.97 398.908 485.314C400.332 488.659 403.17 491.033 407.063 492.138C410.956 493.242 415.729 493.028 420.779 491.52C425.828 490.013 430.928 487.282 435.432 483.671L454.25 505.241Z" fill="#A14F4F"/>
<g filter="url(#filter2_i_1736_1302)">
<ellipse cx="41.6302" cy="52.5101" rx="41.6302" ry="52.5101" transform="matrix(-0.669931 -0.727145 0.772039 -0.653615 422.41 527.851)" fill="#843C3C"/>
</g>
<g filter="url(#filter3_i_1736_1302)">
<path d="M426.73 466.233L405.975 456.193L423.826 452.587L426.73 466.233Z" fill="#572222"/>
<path d="M443.842 462.963L458.786 445.551L440.622 449.383L443.842 462.963Z" fill="#572222"/>
<rect width="2.8516" height="24.8946" transform="matrix(0.979398 -0.201938 0.218937 0.975739 423.382 452.736)" fill="#572222"/>
<rect width="5.14461" height="21.7435" transform="matrix(-0.218937 -0.975739 0.979398 -0.201938 429.54 480.096)" fill="#572222"/>
</g>
<path d="M250.125 226H253.505V243.08H250.125V226ZM245.025 229.5C244.985 231.04 244.845 232.46 244.605 233.76L249.565 240.2L246.885 242.2L243.445 237.52C242.065 240.56 239.885 242.26 237.285 242.28V238.88C239.785 238.6 241.505 234.98 241.625 229.5H237.765V226.4H248.685V229.5H245.025ZM262.303 232.78C259.223 232.78 257.063 231.62 257.063 229.3C257.063 226.98 259.223 225.82 262.303 225.82C265.383 225.82 267.543 226.98 267.543 229.3C267.543 231.62 265.383 232.78 262.303 232.78ZM265.083 236.44H269.483V226H272.863V239.26H269.483V238.78H265.083V236.44ZM262.303 228.3C261.103 228.3 260.323 228.62 260.323 229.3C260.323 229.98 261.103 230.3 262.303 230.3C263.503 230.3 264.283 229.98 264.283 229.3C264.283 228.62 263.503 228.3 262.303 228.3ZM260.963 240.26H273.103V243.08H257.583V237.66H260.303V235.96H256.223V233.36H264.083C265.663 233.36 267.443 233.2 268.503 232.74V235.34C267.443 235.8 265.723 235.96 264.023 235.96H263.663V238.54H260.963V240.26ZM297.587 226V243.08H294.207V226H297.587ZM291.567 226.4V231.02C291.567 237.96 287.707 242.28 281.727 242.28V239.08C285.867 239.04 288.107 235.96 288.107 231.02V229.48H281.727V226.4H291.567ZM316.345 229.4H318.345V232.68H316.345V238.64H312.965V226H316.345V229.4ZM310.785 228.94C310.785 233.9 306.465 236.26 300.605 236.26V233.28C304.585 233.24 307.345 231.8 307.345 229.5V229.12H300.605V226.2H310.785V228.94ZM304.705 237.16V240.04H316.585V243.08H301.265V237.16H304.705ZM243.105 268.5V284.8H239.485V271.66H236.605V268.5H243.105ZM254.257 273.16C254.197 274.28 254.077 275.34 253.897 276.3L258.697 282.08L256.177 284.28L252.717 279.88C251.337 282.68 249.157 284.26 246.597 284.28V280.96C249.057 280.72 250.637 277.62 250.857 273.16H246.977V270.04H250.837V267.94H254.297V270.04H257.957V273.16H254.257ZM264.517 274.24V277.52H262.517V285.08H259.137V268H262.517V274.24H264.517ZM282.841 269V271.44H271.161V269H275.281V267.7H278.721V269H282.841ZM289.361 270.9V274.06H287.361V277.66H283.981V268H287.361V270.9H289.361ZM277.001 277.94C274.181 277.94 271.801 276.9 271.801 274.9C271.801 272.9 274.181 271.86 277.001 271.86C279.821 271.86 282.181 272.9 282.181 274.9C282.181 276.9 279.821 277.94 277.001 277.94ZM277.001 274.16C275.781 274.16 274.981 274.42 274.981 274.9C274.981 275.38 275.781 275.64 277.001 275.64C278.221 275.64 279.021 275.38 279.021 274.9C279.021 274.42 278.221 274.16 277.001 274.16ZM284.081 279.22V278.26H287.361V285.08H272.281V278.26H275.561V279.22H284.081ZM275.561 282.56H284.081V281.6H275.561V282.56ZM303.819 268H307.159V278.16H303.819V276.8H301.179V273.86H303.819V272.48H301.839V269.54H303.819V268ZM301.039 270.68C301.039 275.68 296.779 277.86 290.959 277.86V274.92C294.959 274.88 297.599 273.62 297.599 271.34V271.08H290.959V268.2H301.039V270.68ZM291.799 281.66V278.76H307.159V285.28H303.719V281.66H291.799ZM327.837 274.24V277.52H325.837V285.08H322.457V268H325.837V274.24H327.837ZM317.577 271.5C317.537 273.04 317.397 274.48 317.157 275.78L322.037 282.22L319.357 284.2L315.997 279.58C314.617 282.56 312.477 284.26 309.917 284.28V280.88C312.417 280.6 314.057 276.98 314.177 271.5H310.397V268.4H321.157V271.5H317.577ZM351.161 268V277.18H347.781V268H351.161ZM345.801 268.2V276.2H335.201V268.2H345.801ZM342.461 273.46V270.94H338.541V273.46H342.461ZM351.741 282.56L350.881 285.28L343.321 283.3C341.401 284.58 338.561 285.08 335.721 285.08V282.32C338.221 282.32 340.621 281.84 341.721 280.7H335.901V277.98H341.801V276.82H345.241V277.98H351.161V280.7H345.421L345.241 281.12L351.741 282.56ZM372.765 280.66V276.54H370.945V273.56H372.765V272.22H370.945V269.24H372.765V268H376.085V280.66H372.765ZM370.145 268.2V277.92H359.965V268.2H370.145ZM366.825 275.06V271.06H363.285V275.06H366.825ZM364.245 282.06H376.325V285.08H360.805V279.1H364.245V282.06ZM391.943 268H395.323V277H391.943V273.38H389.663V270.98H386.443C386.403 271.32 386.323 271.66 386.223 272L390.763 274.46L389.203 276.94L384.803 274.44C383.483 275.96 381.443 277.06 379.023 277.12V274.18C381.203 274.06 382.643 272.5 383.003 270.98H379.263V268.2H390.143V270.54H391.943V268ZM392.003 278.7V277.6H395.323V285.08H380.043V277.6H383.363V278.7H392.003ZM383.363 282.44H392.003V281.28H383.363V282.44ZM414.481 268V276.36H411.101V268H414.481ZM403.561 268.02C406.921 268.02 409.061 269.7 409.061 272.16C409.061 274.64 406.921 276.3 403.561 276.3C400.201 276.3 398.061 274.64 398.061 272.16C398.061 269.7 400.201 268.02 403.561 268.02ZM403.561 270.68C402.261 270.68 401.401 271.26 401.401 272.16C401.401 273.06 402.261 273.64 403.561 273.64C404.861 273.64 405.721 273.06 405.721 272.16C405.721 271.26 404.861 270.68 403.561 270.68ZM414.481 276.96V282.06H402.761V282.74H414.661V285.08H399.421V279.98H411.141V279.3H399.381V276.96H414.481ZM435.605 273.74V270.74H423.805V268H439.005V273.74H435.605ZM431.845 274.54H440.085V277.24H422.805V274.54H428.445V272H431.845V274.54ZM431.445 278.12C436.045 278.12 439.245 279.12 439.245 281.7C439.245 284.28 436.045 285.28 431.445 285.28C426.845 285.28 423.645 284.28 423.645 281.7C423.645 279.12 426.845 278.12 431.445 278.12ZM431.445 282.72C433.925 282.72 435.645 282.4 435.645 281.7C435.645 281.02 433.925 280.68 431.445 280.68C428.965 280.68 427.245 281.02 427.245 281.7C427.245 282.4 428.965 282.72 431.445 282.72ZM455.183 268H458.563V285.08H455.183V268ZM450.083 271.5C450.043 273.04 449.903 274.46 449.663 275.76L454.623 282.2L451.943 284.2L448.503 279.52C447.123 282.56 444.943 284.26 442.343 284.28V280.88C444.843 280.6 446.563 276.98 446.683 271.5H442.823V268.4H453.743V271.5H450.083ZM250.265 322.66V318.54H248.445V315.56H250.265V314.22H248.445V311.24H250.265V310H253.585V322.66H250.265ZM247.645 310.2V319.92H237.465V310.2H247.645ZM244.325 317.06V313.06H240.785V317.06H244.325ZM241.745 324.06H253.825V327.08H238.305V321.1H241.745V324.06ZM269.443 310H272.823V319H269.443V315.38H267.163V312.98H263.943C263.903 313.32 263.823 313.66 263.723 314L268.263 316.46L266.703 318.94L262.303 316.44C260.983 317.96 258.943 319.06 256.523 319.12V316.18C258.703 316.06 260.143 314.5 260.503 312.98H256.763V310.2H267.643V312.54H269.443V310ZM269.503 320.7V319.6H272.823V327.08H257.543V319.6H260.863V320.7H269.503ZM260.863 324.44H269.503V323.28H260.863V324.44ZM291.981 310V318.36H288.601V310H291.981ZM281.061 310.02C284.421 310.02 286.561 311.7 286.561 314.16C286.561 316.64 284.421 318.3 281.061 318.3C277.701 318.3 275.561 316.64 275.561 314.16C275.561 311.7 277.701 310.02 281.061 310.02ZM281.061 312.68C279.761 312.68 278.901 313.26 278.901 314.16C278.901 315.06 279.761 315.64 281.061 315.64C282.361 315.64 283.221 315.06 283.221 314.16C283.221 313.26 282.361 312.68 281.061 312.68ZM291.981 318.96V324.06H280.261V324.74H292.161V327.08H276.921V321.98H288.641V321.3H276.881V318.96H291.981ZM243.085 360.2C241.785 361.86 239.765 362.96 237.285 363V359.98C239.265 359.86 240.685 358.42 241.145 356.54H237.645V353.5H241.205V351.78H244.645V353.5H248.205V356.54H244.625C244.585 356.9 244.505 357.24 244.405 357.58L249.045 360.52L247.225 362.98L243.085 360.2ZM250.165 352H253.545V369.08H250.165V352ZM244.545 365.18H244.765C246.345 365.18 248.125 364.98 249.185 364.5V367.6C248.125 368.08 246.405 368.28 244.705 368.28H236.985V365.18H241.185V362.64H244.545V365.18ZM272.203 358.72L264.363 356.96C262.483 358 259.803 358.6 257.003 358.64V356.02C259.363 355.98 261.883 355.48 262.963 354.58H257.203V352H272.523V354.58H266.703C266.663 354.68 266.623 354.78 266.563 354.88L272.963 356.2L272.203 358.72ZM266.543 359.36H273.503V361.96H256.223V359.36H263.183V357.9H266.543V359.36ZM264.863 362.56C269.483 362.56 272.703 363.48 272.703 365.94C272.703 368.4 269.483 369.32 264.863 369.32C260.243 369.32 257.023 368.4 257.023 365.94C257.023 363.48 260.243 362.56 264.863 362.56ZM264.863 366.8C267.363 366.8 269.103 366.56 269.103 365.94C269.103 365.34 267.363 365.08 264.863 365.08C262.363 365.08 260.623 365.34 260.623 365.94C260.623 366.56 262.363 366.8 264.863 366.8ZM292.587 353V355.44H280.907V353H285.027V351.7H288.467V353H292.587ZM299.107 354.9V358.06H297.107V361.66H293.727V352H297.107V354.9H299.107ZM286.747 361.94C283.927 361.94 281.547 360.9 281.547 358.9C281.547 356.9 283.927 355.86 286.747 355.86C289.567 355.86 291.927 356.9 291.927 358.9C291.927 360.9 289.567 361.94 286.747 361.94ZM286.747 358.16C285.527 358.16 284.727 358.42 284.727 358.9C284.727 359.38 285.527 359.64 286.747 359.64C287.967 359.64 288.767 359.38 288.767 358.9C288.767 358.42 287.967 358.16 286.747 358.16ZM293.827 363.22V362.26H297.107V369.08H282.027V362.26H285.307V363.22H293.827ZM285.307 366.56H293.827V365.6H285.307V366.56ZM313.565 352H316.905V362.16H313.565V360.8H310.925V357.86H313.565V356.48H311.585V353.54H313.565V352ZM310.785 354.68C310.785 359.68 306.525 361.86 300.705 361.86V358.92C304.705 358.88 307.345 357.62 307.345 355.34V355.08H300.705V352.2H310.785V354.68ZM301.545 365.66V362.76H316.905V369.28H313.465V365.66H301.545ZM337.583 358.24V361.52H335.583V369.08H332.203V352H335.583V358.24H337.583ZM327.323 355.5C327.283 357.04 327.143 358.48 326.903 359.78L331.783 366.22L329.103 368.2L325.743 363.58C324.363 366.56 322.223 368.26 319.663 368.28V364.88C322.163 364.6 323.803 360.98 323.923 355.5H320.143V352.4H330.903V355.5H327.323ZM360.427 354.4H362.427V357.48H360.427V360.56H357.047V352H360.427V354.4ZM355.187 352.2V360.2H344.767V352.2H348.047V353.6H351.907V352.2H355.187ZM348.047 357.58H351.907V356.16H348.047V357.58ZM348.687 366.16V366.82H360.607V369.08H345.367V364.08H357.107V363.42H345.327V361.16H360.427V366.16H348.687ZM377.226 365.4H380.906V368.48H363.626V365.4H367.306V362.58H364.406V359.52H367.006V355.48H364.586V352.4H379.946V355.48H377.526V359.52H380.126V362.58H377.226V365.4ZM370.386 355.48V359.52H374.146V355.48H370.386ZM370.686 362.58V365.4H373.846V362.58H370.686Z" fill="black"/>
<path d="M524.628 243.02C521.188 243.02 519.068 240.94 518.948 238.14H521.028C521.088 239.86 522.368 241.2 524.628 241.2C526.868 241.2 528.208 239.92 528.208 238.32C528.208 236.52 526.768 235.46 524.348 235.46H522.588V233.72H524.348C526.388 233.72 527.768 232.56 527.768 230.9C527.768 229.34 526.528 228.06 524.408 228.06C522.248 228.06 521.068 229.58 521.068 231.28H518.968C518.968 228.46 521.128 226.26 524.408 226.26C527.708 226.26 529.848 228.32 529.848 230.84C529.848 232.8 528.468 234.16 526.988 234.52C528.608 234.82 530.268 236.08 530.268 238.3C530.268 240.98 527.988 243.02 524.628 243.02ZM533.952 244H531.872L539.192 225.3H541.272L533.952 244ZM546.116 242.66V228.48H542.796V226.64H548.216V242.66H546.116ZM557.765 233.86C558.345 233.3 559.165 232.98 560.185 232.98C561.905 232.98 563.145 234.42 564.625 234.42C565.585 234.42 566.205 233.9 566.845 233.12V235.14C566.265 235.84 565.485 236.26 564.425 236.26C562.705 236.26 561.465 234.82 559.965 234.82C559.025 234.82 558.385 235.2 557.765 235.86V233.86ZM580.213 243.02C576.773 243.02 574.653 240.94 574.533 238.14H576.613C576.673 239.86 577.953 241.2 580.213 241.2C582.453 241.2 583.793 239.92 583.793 238.32C583.793 236.52 582.353 235.46 579.933 235.46H578.173V233.72H579.933C581.973 233.72 583.353 232.56 583.353 230.9C583.353 229.34 582.113 228.06 579.993 228.06C577.833 228.06 576.653 229.58 576.653 231.28H574.553C574.553 228.46 576.713 226.26 579.993 226.26C583.293 226.26 585.433 228.32 585.433 230.84C585.433 232.8 584.053 234.16 582.573 234.52C584.193 234.82 585.853 236.08 585.853 238.3C585.853 240.98 583.573 243.02 580.213 243.02ZM589.538 244H587.458L594.778 225.3H596.858L589.538 244ZM600.182 242.66L606.702 228.48H598.142V226.64H609.122V228.04L602.402 242.66H600.182ZM552.118 285.02C548.678 285.02 546.558 282.94 546.438 280.14H548.518C548.578 281.86 549.858 283.2 552.118 283.2C554.358 283.2 555.698 281.92 555.698 280.32C555.698 278.52 554.258 277.46 551.838 277.46H550.078V275.72H551.838C553.878 275.72 555.258 274.56 555.258 272.9C555.258 271.34 554.018 270.06 551.898 270.06C549.738 270.06 548.558 271.58 548.558 273.28H546.458C546.458 270.46 548.618 268.26 551.898 268.26C555.198 268.26 557.338 270.32 557.338 272.84C557.338 274.8 555.958 276.16 554.478 276.52C556.098 276.82 557.758 278.08 557.758 280.3C557.758 282.98 555.478 285.02 552.118 285.02ZM561.442 286H559.362L566.682 267.3H568.762L561.442 286ZM575.732 285.02C572.372 285.02 570.052 283.14 570.052 280.46C570.052 278.04 571.972 276.7 573.412 276.36C572.172 275.98 570.612 274.68 570.612 272.64C570.612 270.24 572.672 268.26 575.732 268.26C578.772 268.26 580.832 270.26 580.832 272.64C580.832 274.68 579.272 275.98 578.032 276.36C579.492 276.7 581.392 278.04 581.392 280.46C581.392 283.14 579.072 285.02 575.732 285.02ZM575.732 275.42C577.552 275.42 578.832 274.22 578.832 272.7C578.832 271.22 577.612 270.02 575.732 270.02C573.852 270.02 572.632 271.18 572.632 272.66C572.632 274.2 573.912 275.42 575.732 275.42ZM575.732 283.26C577.932 283.26 579.352 282 579.352 280.34C579.352 278.66 577.812 277.36 575.732 277.36C573.632 277.36 572.092 278.66 572.092 280.34C572.092 282 573.512 283.26 575.732 283.26ZM512.762 327.02C509.322 327.02 507.202 324.94 507.082 322.14H509.162C509.222 323.86 510.502 325.2 512.762 325.2C515.002 325.2 516.342 323.92 516.342 322.32C516.342 320.52 514.902 319.46 512.482 319.46H510.722V317.72H512.482C514.522 317.72 515.902 316.56 515.902 314.9C515.902 313.34 514.662 312.06 512.542 312.06C510.382 312.06 509.202 313.58 509.202 315.28H507.102C507.102 312.46 509.262 310.26 512.542 310.26C515.842 310.26 517.982 312.32 517.982 314.84C517.982 316.8 516.602 318.16 515.122 318.52C516.742 318.82 518.402 320.08 518.402 322.3C518.402 324.98 516.122 327.02 512.762 327.02ZM522.086 328H520.006L527.326 309.3H529.406L522.086 328ZM534.251 326.66V312.48H530.931V310.64H536.351V326.66H534.251ZM546.014 327.02C542.634 327.02 540.094 324.24 540.094 318.64C540.094 313.04 542.634 310.26 546.014 310.26C549.374 310.26 551.914 313.04 551.914 318.64C551.914 324.24 549.374 327.02 546.014 327.02ZM546.014 325.16C548.174 325.16 549.894 323 549.894 318.64C549.894 314.3 548.174 312.12 546.014 312.12C543.834 312.12 542.114 314.3 542.114 318.64C542.114 323 543.834 325.16 546.014 325.16ZM559.767 317.86C560.347 317.3 561.167 316.98 562.187 316.98C563.907 316.98 565.147 318.42 566.627 318.42C567.587 318.42 568.207 317.9 568.847 317.12V319.14C568.267 319.84 567.487 320.26 566.427 320.26C564.707 320.26 563.467 318.82 561.967 318.82C561.027 318.82 560.387 319.2 559.767 319.86V317.86ZM582.215 327.02C578.775 327.02 576.655 324.94 576.535 322.14H578.615C578.675 323.86 579.955 325.2 582.215 325.2C584.455 325.2 585.795 323.92 585.795 322.32C585.795 320.52 584.355 319.46 581.935 319.46H580.175V317.72H581.935C583.975 317.72 585.355 316.56 585.355 314.9C585.355 313.34 584.115 312.06 581.995 312.06C579.835 312.06 578.655 313.58 578.655 315.28H576.555C576.555 312.46 578.715 310.26 581.995 310.26C585.295 310.26 587.435 312.32 587.435 314.84C587.435 316.8 586.055 318.16 584.575 318.52C586.195 318.82 587.855 320.08 587.855 322.3C587.855 324.98 585.575 327.02 582.215 327.02ZM591.539 328H589.459L596.779 309.3H598.859L591.539 328ZM603.704 326.66V312.48H600.384V310.64H605.804V326.66H603.704ZM609.507 326.66V325.3L615.187 319.6C617.227 317.54 618.027 316.24 618.027 315.1C618.027 313.22 616.747 312.12 614.747 312.12C612.587 312.12 611.427 313.76 611.427 315.54H609.327C609.327 312.64 611.427 310.26 614.767 310.26C617.987 310.26 620.107 312.2 620.107 315.08C620.107 316.8 619.127 318.26 616.727 320.72L612.527 324.84H620.647V326.66H609.507ZM547.245 369.02C543.805 369.02 541.685 366.94 541.565 364.14H543.645C543.705 365.86 544.985 367.2 547.245 367.2C549.485 367.2 550.825 365.92 550.825 364.32C550.825 362.52 549.385 361.46 546.965 361.46H545.205V359.72H546.965C549.005 359.72 550.385 358.56 550.385 356.9C550.385 355.34 549.145 354.06 547.025 354.06C544.865 354.06 543.685 355.58 543.685 357.28H541.585C541.585 354.46 543.745 352.26 547.025 352.26C550.325 352.26 552.465 354.32 552.465 356.84C552.465 358.8 551.085 360.16 549.605 360.52C551.225 360.82 552.885 362.08 552.885 364.3C552.885 366.98 550.605 369.02 547.245 369.02ZM556.569 370H554.489L561.809 351.3H563.889L556.569 370ZM568.733 368.66V354.48H565.413V352.64H570.833V368.66H568.733ZM582.156 368.66V365.04H574.076V363.26L581.676 352.64H584.156V363.26H586.776V365.04H584.156V368.66H582.156ZM576.236 363.26H582.156V354.94L576.236 363.26Z" fill="black"/>
<defs>
<filter id="filter0_d_1736_1302" x="421.875" y="423.997" width="92.8608" height="111.143" filterUnits="userSpaceOnUse" color-interpolation-filters="sRGB">
<feFlood flood-opacity="0" result="BackgroundImageFix"/>
<feColorMatrix in="SourceAlpha" type="matrix" values="0 0 0 0 0 0 0 0 0 0 0 0 0 0 0 0 0 0 127 0" result="hardAlpha"/>
<feOffset dy="4"/>
<feGaussianBlur stdDeviation="2"/>
<feComposite in2="hardAlpha" operator="out"/>
<feColorMatrix type="matrix" values="0 0 0 0 0 0 0 0 0 0 0 0 0 0 0 0 0 0 0.25 0"/>
<feBlend mode="normal" in2="BackgroundImageFix" result="effect1_dropShadow_1736_1302"/>
<feBlend mode="normal" in="SourceGraphic" in2="effect1_dropShadow_1736_1302" result="shape"/>
</filter>
<filter id="filter1_d_1736_1302" x="379.945" y="482.545" width="111.435" height="57.8389" filterUnits="userSpaceOnUse" color-interpolation-filters="sRGB">
<feFlood flood-opacity="0" result="BackgroundImageFix"/>
<feColorMatrix in="SourceAlpha" type="matrix" values="0 0 0 0 0 0 0 0 0 0 0 0 0 0 0 0 0 0 127 0" result="hardAlpha"/>
<feOffset dy="4"/>
<feGaussianBlur stdDeviation="2"/>
<feComposite in2="hardAlpha" operator="out"/>
<feColorMatrix type="matrix" values="0 0 0 0 0 0 0 0 0 0 0 0 0 0 0 0 0 0 0.25 0"/>
<feBlend mode="normal" in2="BackgroundImageFix" result="effect1_dropShadow_1736_1302"/>
<feBlend mode="normal" in="SourceGraphic" in2="effect1_dropShadow_1736_1302" result="shape"/>
</filter>
<filter id="filter2_i_1736_1302" x="385.849" y="417.494" width="98.4226" height="95.5283" filterUnits="userSpaceOnUse" color-interpolation-filters="sRGB">
<feFlood flood-opacity="0" result="BackgroundImageFix"/>
<feBlend mode="normal" in="SourceGraphic" in2="BackgroundImageFix" result="shape"/>
<feColorMatrix in="SourceAlpha" type="matrix" values="0 0 0 0 0 0 0 0 0 0 0 0 0 0 0 0 0 0 127 0" result="hardAlpha"/>
<feOffset dy="4"/>
<feGaussianBlur stdDeviation="2"/>
<feComposite in2="hardAlpha" operator="arithmetic" k2="-1" k3="1"/>
<feColorMatrix type="matrix" values="0 0 0 0 0 0 0 0 0 0 0 0 0 0 0 0 0 0 0.25 0"/>
<feBlend mode="normal" in2="shape" result="effect1_innerShadow_1736_1302"/>
</filter>
<filter id="filter3_i_1736_1302" x="405.975" y="445.551" width="52.811" height="38.5449" filterUnits="userSpaceOnUse" color-interpolation-filters="sRGB">
<feFlood flood-opacity="0" result="BackgroundImageFix"/>
<feBlend mode="normal" in="SourceGraphic" in2="BackgroundImageFix" result="shape"/>
<feColorMatrix in="SourceAlpha" type="matrix" values="0 0 0 0 0 0 0 0 0 0 0 0 0 0 0 0 0 0 127 0" result="hardAlpha"/>
<feOffset dy="4"/>
<feGaussianBlur stdDeviation="2"/>
<feComposite in2="hardAlpha" operator="arithmetic" k2="-1" k3="1"/>
<feColorMatrix type="matrix" values="0 0 0 0 0 0 0 0 0 0 0 0 0 0 0 0 0 0 0.25 0"/>
<feBlend mode="normal" in2="shape" result="effect1_innerShadow_1736_1302"/>
</filter>
</defs>
</svg>
