<?xml version="1.0" encoding="utf-8"?>
<!-- Generator: Adobe Illustrator 28.1.0, SVG Export Plug-In . SVG Version: 6.00 Build 0)  -->
<svg version="1.1" xmlns="http://www.w3.org/2000/svg" xmlns:xlink="http://www.w3.org/1999/xlink" x="0px" y="0px"
	 viewBox="0 0 1000 1000" style="enable-background:new 0 0 1000 1000;" xml:space="preserve">
<style type="text/css">
	.st0{fill:#FFE1C4;}
	.st1{fill:#C28A69;}
	.st2{fill:#BBBBBB;stroke:#7C7C7C;stroke-width:12;stroke-linecap:round;stroke-linejoin:round;stroke-miterlimit:10;}
	.st3{fill:none;stroke:#FADBBF;stroke-miterlimit:10;}
	.st4{fill:#D8A27E;}
	.st5{fill:#FADBBF;}
	.st6{fill:#EFC19F;}
	.st7{fill:#EFC19F;stroke:#FFFFFF;stroke-miterlimit:10;}
	.st8{fill:#FFFFFF;}
	.st9{fill:#E4E4E4;}
	.st10{fill:#FF9527;}
	.st11{fill:#5D5D5E;}
	.st12{fill:none;stroke:#C28A69;stroke-width:10;stroke-linecap:round;stroke-miterlimit:10;}
	.st13{fill:none;stroke:#C28A69;stroke-width:15;stroke-linecap:round;stroke-miterlimit:10;}
	.st14{fill:#B48568;}
	.st15{fill:#C1671E;}
	.st16{fill:none;stroke:#C1671E;stroke-width:10;stroke-linecap:round;stroke-miterlimit:10;}
	.st17{fill:#060001;}
	.st18{fill:#FFC612;}
	.st19{fill:#CE8505;}
	.st20{fill:#72BA3B;stroke:#538936;stroke-width:8;stroke-miterlimit:10;}
	.st21{fill:#040000;}
	.st22{fill:#192E59;}
	.st23{fill:#132040;}
	.st24{fill:#0D78BB;}
	.st25{fill:#192E59;stroke:#FFFFFF;stroke-width:4;stroke-miterlimit:10;}
	.st26{fill:#969696;}
	.st27{fill:#919191;}
	.st28{fill:#3C3D3D;}
	.st29{fill:#1C1D1D;}
	.st30{fill:none;stroke:#626363;stroke-width:6.5;stroke-miterlimit:10;}
	.st31{fill:none;stroke:#707070;stroke-width:6.5;stroke-miterlimit:10;}
	.st32{fill:#E44B4A;stroke:#A22424;stroke-width:7;stroke-miterlimit:10;}
	.st33{fill:none;stroke:#BABABA;stroke-width:15;stroke-linecap:round;stroke-linejoin:round;stroke-miterlimit:10;}
	.st34{fill:#FC8B8B;}
	.st35{fill:#DBB18A;}
	.st36{fill:#F7C198;}
	.st37{fill:#D19779;}
	.st38{fill:#774C06;}
	.st39{fill:#FFC612;stroke:#CE8505;stroke-width:7;stroke-miterlimit:10;}
	.st40{fill:#65473B;}
	.st41{fill:#735741;}
	.st42{fill:#654D46;}
	.st43{fill:#BF967C;}
	.st44{fill:none;stroke:#AE8A78;stroke-miterlimit:10;}
	.st45{fill:#85654E;}
	.st46{fill:#5A8435;}
	.st47{fill:#B78A6E;}
	.st48{fill:#8C6752;}
	.st49{fill:none;stroke:#B48568;stroke-width:6;stroke-miterlimit:10;}
	.st50{fill:none;stroke:#A5A5A5;stroke-width:9;stroke-linecap:round;stroke-miterlimit:10;}
	.st51{fill:#9C9C9C;}
	.st52{fill:none;stroke:#9C9C9C;stroke-width:6;stroke-linecap:round;stroke-miterlimit:10;}
	.st53{fill:#533B2A;}
	.st54{fill:#483326;}
	.st55{fill:#292B28;stroke:#785B4B;stroke-width:9;stroke-linecap:round;stroke-miterlimit:10;}
	.st56{fill:none;stroke:#483326;stroke-width:9;stroke-linecap:round;stroke-miterlimit:10;}
	.st57{fill:none;stroke:#533B2A;stroke-width:9;stroke-linecap:round;stroke-miterlimit:10;}
	.st58{fill:#367437;}
	.st59{fill:#DCDCDC;}
	.st60{fill:#FFFFFF;stroke:#A5A5A5;stroke-width:11;stroke-linecap:round;stroke-miterlimit:10;}
	.st61{fill:none;stroke:#314824;stroke-width:6;stroke-linecap:round;stroke-miterlimit:10;}
	.st62{fill:#BBBBBB;stroke:#7C7C7C;stroke-width:12;stroke-linecap:round;stroke-miterlimit:10;}
	.st63{fill:none;stroke:#299B29;stroke-width:24;stroke-miterlimit:10;}
	.st64{fill:none;stroke:#F24040;stroke-width:27;stroke-linecap:round;stroke-miterlimit:10;}
	.st65{fill:#747575;}
	.st66{fill:#7C7C7C;}
	.st67{fill:none;stroke:#FFC715;stroke-width:27;stroke-linecap:round;stroke-miterlimit:10;}
	.st68{fill:#ECECEB;}
</style>
<g id="노트북옆쪽-완">
</g>
<g id="얼굴_채색-완">
	<path class="st0" d="M699,481.11c-0.04-0.09-0.09-0.18-0.13-0.27c1.96-4.28,2.52-9.21,1.1-14.19
		c-4.01-14.08-9.81-27.77-17.16-40.43c-3.28-5.66-9.4-9.46-15.86-10.42c-0.26-0.73-0.58-1.45-0.92-2.15
		c-0.15-1.76-0.51-3.45-1.06-5.07c-0.44-11.61-3.41-22.22-8.46-32.72c-4.63-9.63-17.72-12.65-26.85-8.8
		c-0.11,0.05-0.22,0.11-0.33,0.16c-1.36-0.16-2.72-0.27-4.1-0.3c-0.39-0.01-0.7-0.01-0.94,0c-0.2-0.07-0.36-0.13-0.51-0.18
		c-2.47-1.49-4.92-2.98-7.37-4.53c-7.57-4.79-16.06-8.01-25.13-8.02c-8.55-0.01-17.4,2.4-25.78,3.96
		c-4.12,0.77-8.24,1.57-12.37,2.27c-0.42,0.07-0.84,0.14-1.26,0.2c-0.17,0.01-0.4,0.03-0.73,0.07c-2.21-0.01-4.57,0.08-6.78,0.19
		c-0.47-0.03-0.94-0.06-1.4-0.09c-0.06-0.01-0.12-0.02-0.18-0.03c-1.8-0.43-3.6-0.78-5.38-1.27c-3.57-0.97-7.08-2.18-10.58-3.39
		c-7.57-2.62-15.11-5.34-22.63-8.12c-0.63-0.23-1.27-0.42-1.92-0.57c-1.17-1.46-2.34-2.9-3.49-4.37c-3.57-4.57-9.59-6.51-15.58-6.26
		c-0.96-3.51-1.88-7.03-2.72-10.58c-0.19-1.19-0.46-2.39-0.86-3.63c-3.45-10.68-15.06-18.7-26.45-15.02
		c-8.02,2.6-13.44,8.72-15.09,16.17l-0.99,1.18c-1.69,2-3.38,4-5.07,6c-0.31-0.01-0.61-0.03-0.93-0.03h-0.59
		c-4.06-0.15-7.85,0.69-11.37,2.54c-3.44,1.12-6.45,3-9.02,5.62c-2.12-0.91-4.3-1.59-6.52-2.08c-0.62,0.25-1.24,0.49-1.88,0.7
		c-2.73,1.43-5.6,2.33-8.61,2.73c-0.04-0.03-0.06-0.08-0.1-0.11c-1.47-1.35-3.04-1.97-4.93-2.25c-2.63-1.36-6.15-0.75-8.49,1.11
		c-1.77,0.58-3.62,1.94-4.48,3.58c-0.07,0.14-0.13,0.28-0.2,0.43c-1.19,0.89-2.34,1.85-3.44,2.92c-8.16,7.92-15.41,17.15-21.1,27.06
		c-2.58,3.58-4.55,7.54-5.38,11.17c-0.21,0.92-0.38,1.83-0.53,2.75c-1.37,4.15-2.26,8.35-2.54,12.57c-3.29,1.13-6.16,2.56-8.75,4.31
		c-0.53,0.28-1.06,0.56-1.57,0.87c-10.8,6.34-18.98,18.26-20.19,30.9c-0.43,1.1-0.84,2.21-1.23,3.33
		c-7.92,13.95-12.99,29.15-14.01,45.31c-0.87,13.76,3.63,25.74,8.91,37.71c-0.97,2.47-1.47,5.07-1.48,7.81c0,0.59,0,1.17,0,1.76
		c-0.18,2.66,0.04,5.53,0.77,7.62c0.67,2.8,1.95,5.24,3.85,7.31c0.11,0.17,0.24,0.31,0.35,0.47c0.23,7.31,0.29,14.63,0.14,21.96
		c-1.44,12.41-0.64,24.68,2.3,36.62c-0.59,7.09,0.43,14.68,4.57,20.28c1.52,2.06,3.06,4.1,4.62,6.12c1.12,3.94,2.82,7.79,5.14,11.42
		c4.21,6.61,9.97,12.6,15.32,18.34c8.38,9,17.23,17.55,26.51,25.62c20.13,17.52,41.91,33.33,65.11,46.52
		c7.24,4.11,17.39,6.08,25.69,3.89c5.93,1.7,12.35,2.09,18.67,2.19c2.56,0.04,5.08-0.03,7.57-0.21c2.58,1.17,5.45,1.74,8.51,1.44
		c10.08-0.98,19.77-2.18,29.19-4.81c4.31,1.97,9.3,2.53,14.39,1.21c3.23-0.84,6.44-1.77,9.63-2.79c9.5-2.71,18.68-6.52,27.35-11.27
		c0.52-0.27,1.05-0.52,1.57-0.79c16.73-5.31,31.48-16.17,45.02-26.96c12.76-10.18,25.71-20.91,37.27-32.44
		c14.14-14.11,29.39-35.22,27.21-56.24c1.14-5.07,2.04-10.19,2.8-15.33c1.46-9.91,2.59-19.85,3.62-29.81
		c0.77-7.42,1.39-14.8,1.05-22.21c0.2-1.08,0.31-2.19,0.33-3.3c0.04-0.37,0.05-0.73,0.07-1.09c0.31-2.1,0.28-4.2-0.05-6.23
		c1.03-2.3,1.94-4.66,2.63-7.06c1.11-3.81,1.67-7.79,2.12-11.75c1.28-1.87,2.26-3.98,2.81-6.3c0.96-4.08,1.48-8.29,1.86-12.46
		C701.89,487.88,700.88,484.28,699,481.11z"/>
	<path class="st0" d="M273.88,280.32c12.82-15.39,20.09-31.38,5.17-43.73c-32.08-7.3-71.92,26.61-79.77,57.86
		c-12.81,35.1,14.85,76.94,33.64,30.27c2.4-5.77,11.22-14.11,21.08-23.66c1.09,0.3,2.22,0.45,3.4,0.4c1.28-0.17,2.57-0.35,3.85-0.52
		c0.48-0.13,0.93-0.31,1.38-0.48c0.1-0.03,0.19-0.07,0.28-0.1c0.05-0.02,0.11-0.04,0.16-0.06c0.77-0.28,1.52-0.63,2.24-1.08
		c2.18-0.99,4.54-3.59,5.74-5.62c0.17-0.28,0.31-0.56,0.46-0.83c0.26-0.35,0.51-0.69,0.77-1.04c1.06-1.66,1.63-3.46,1.72-5.39
		c0.15-0.67,0.21-1.34,0.24-2.01C274.37,282.99,274.24,281.66,273.88,280.32z"/>
	<path class="st0" d="M786.22,270.66c-5.14-7.08-11.04-13.01-18.39-17.83c-3.46-2.27-7.19-4.03-10.99-5.66
		c-4.89-2.1-9.68-4.62-15.11-4.67c-1.63-0.02-3.23,0.29-4.75,0.83c-3.89-1.87-8.32-2.58-12.83-2.19
		c-9.33,0.81-16.55,8.61-13.98,18.35c0.97,3.66,3.07,6.94,6.2,9.08c0.05,1.06,0.22,2.12,0.55,3.16c2.29,7.31,2.81,13.29,1.99,21.18
		c-0.65,6.23,4.96,12.42,10.65,13.98c3.32,0.91,6.98,0.5,10.12-0.97c0.2,0.13,0.41,0.24,0.62,0.36c0.47,0.66,0.99,1.28,1.59,1.84
		c4.67,4.45,9.13,9.11,13.29,14.05c3.03,3.58,6.99,7.55,8.19,12.1c0.42,1.58,1.09,3.01,1.96,4.27c1.98,4.5,6.01,7.87,11.23,8.49
		c6.94,0.83,14.14-3.26,15.91-10.39c0.33-1.34,0.63-2.68,0.92-4.03c3.72-2.3,6.42-6.36,6.62-11.93
		C800.63,303.26,796.6,284.95,786.22,270.66z"/>
</g>
<g id="갈기_채색_x3D_완">
	<g>
		<path class="st10" d="M277.85,455.31c0.02-0.05,0.03-0.11,0.05-0.16c0,0.01-0.01,0.01-0.01,0.02
			C277.88,455.21,277.87,455.26,277.85,455.31z"/>
		<g>
			<g>
				<g>
					<g>
						<path class="st10" d="M672.35,647.2c-0.06,0.12-0.11,0.24-0.14,0.36C672.23,647.45,672.3,647.32,672.35,647.2z"/>
						<path class="st10" d="M781.51,544.24c0.04-0.13,0.09-0.26,0.14-0.39c1.52-4.87,5.96-7.19,7.07-12.2
							c11.55-21.73,11.69-50.46,5.46-74.42c-1.17-4.5-3.59-8.36-6.78-11.38c10.29-42.69-2.54-89.35-31.65-122.07
							c-3.21-3.61-7.92-5.94-12.94-6.91c-0.87-0.95-1.77-1.87-2.67-2.79c-2.74-5.1-7.39-9.34-12.54-12.09
							c-1.55-3.43-3.2-6.81-4.97-10.14c-0.5-0.95-1.11-1.7-1.78-2.29c-2.04-7.61-4.79-14.97-7.96-22.32
							c-9.75-22.59-25.93-41.37-45.47-56.05c-22.14-16.63-49.33-25.35-76.8-27.04c-3.83-0.23-7.62,0.69-11.05,2.43
							c-8.91-9.54-20.59-16.2-33.44-20.19c-18.98-5.9-38.94-8.17-58.58-4.8c-10.53,1.81-21.63,6.35-29.55,13.68
							c-1.23,1.14-2.37,2.37-3.43,3.68c-3.02,0.85-5.94,2.36-8.53,4.32c-0.8-0.16-1.61-0.31-2.42-0.44
							c-1.67-2.74-3.05-5.75-4.5-7.97c0-0.01-0.01-0.01-0.02-0.02c-0.46-1.13-0.93-2.26-1.39-3.39c-1.64-3.99-5.31-6.83-9.84-5.59
							c-3.78,1.04-7.24,5.82-5.59,9.84c0.77,1.87,1.54,3.74,2.31,5.62c-9.77-0.08-19.58,1.1-29.18,2.83
							c-18.98,3.44-37.8,11.18-53.99,21.62c-29.45,18.99-51.4,45.92-66.68,76.88c-0.21,0.19-0.4,0.38-0.59,0.6
							c-3.76,4.51-7.22,9.25-10.25,14.28c-0.27,0.45-0.48,0.92-0.65,1.4c-1.29,1.2-2.59,2.41-3.88,3.61
							c-2.29,2.13-4.02,4.66-5.23,7.4c-3.39,3.39-6.66,6.9-9.81,10.53c-3.39,1.18-6.57,3.13-9.29,5.92
							c-5.44,5.58-10.3,11.86-14.44,18.45c-1.91,3.04-2.97,6.5-3.3,10.07c-3.13,3.03-5.62,6.92-7.28,11.48
							c-10.83,29.69-11.53,63.16-2.89,93.5c0.71,2.48,1.77,4.77,3.11,6.84c-1.14,1.11-2.12,2.42-2.85,3.91
							c-3.32,6.73-5.88,13.8-7.47,21.06c-6.71,16.64-6.24,35.02,0.12,51.94c4.67,12.43,11.54,23.55,18.32,34.78
							c-1.86,2.7-2.91,5.97-2.67,9.71c1.35,20.79,4.63,41.48,10.07,61.6c0.65,2.39,1.79,4.52,3.26,6.34
							c5.3,13.65,13.74,25.72,24.02,36.35c0.76,2.84,2.24,5.46,4.57,7.46c14.56,12.57,29.58,24.43,47.16,31.74
							c0.14,0.1,1.3-1.68,1.45-1.58c5.15,3.6,10.2,4.67,15.94,4.37c0.41,1.48,1.03,2.9,1.93,4.23
							c22.33,32.73,55.06,56.98,93.2,68.06c2.43,0.71,4.94,0.8,7.36,0.41c4.04,3.37,8.33,6.41,13.48,7.89
							c3.56,1.02,7.48,1.33,11.17,1.42c1.25,0.03,2.51,0.03,3.76,0.05c-0.68,0.03,1.41,0.25,2.6,0.72
							c3.99,1.56,8.87,0.79,12.98-1.36c5.32,2.17,10.71,4.59,16.17,6.64c0.04,0.19,0.08,0.37,0.12,0.56
							c0.56,2.34,1.63,4.38,3.22,6.12c1.27,1.96,2.95,3.5,5.05,4.64c1.43,0.6,2.87,1.21,4.3,1.81c2.39,0.75,4.79,0.86,7.18,0.32
							c1.62-0.01,3.14-0.41,4.54-1.23c2.23-0.73,4.16-1.97,5.79-3.72c0.94-1.21,1.88-2.43,2.81-3.64c0.36-0.62,0.67-1.26,0.96-1.9
							c4.75-1.12,9.45-2.77,14.24-4.78c4.99-2.1,9.98-4.2,14.97-6.3c2.35-0.99,4.7-1.98,7.05-2.96c0.51-0.21,1.02-0.43,1.52-0.64
							c2.28,0.03,4.54-0.15,6.67-0.55c4.03-0.76,7.61-2.65,10.58-5.28c0.69-0.37,1.38-0.75,2.05-1.14c1.27,0.61,2.58,1.15,3.93,1.59
							c6.91,2.24,13.37,0.11,19.65-2.57c0.98-0.42,1.91-0.94,2.81-1.5c2.23,0.02,4.49-0.25,6.74-0.84
							c8.74-2.29,15.57-7.23,22.73-12.4c3.66-2.64,7.31-5.28,10.97-7.92c4.79-2.59,9.26-5.88,13.32-9.88
							c4.33-4.26,6.69-9.83,7.18-15.55c0.96-0.79,1.91-1.6,2.83-2.41c3.25-2.88,5.36-6.59,6.45-10.61
							c7.64-0.78,14.83-4.72,18.85-11.93c0.68,0.46,1.48,0.74,2.32,0.77c1.07,1.89,3.39,3.1,5.43,1.57c3.35-2.51,6.71-5,10.1-7.46
							c0.43-0.1,0.87-0.27,1.32-0.56c3.97-2.54,7.81-5.25,11.52-8.12c5.84-4.12,11.69-8.23,17.53-12.35
							c1.79-1.26,2.09-3.26,1.51-4.89c0.52-0.55,1.03-1.11,1.54-1.66c1.57,0.6,3.48,0.25,4.72-1.65
							c7.03-10.8,13.99-21.66,19.85-33.09c0.51-0.69,1.03-1.39,1.54-2.08c0.58-0.8,0.75-1.61,0.67-2.37c2.09-4.35,4-8.79,5.69-13.34
							c0.38-0.48,0.75-0.97,1.13-1.44c2.53-3.16-0.49-7.39-3.45-7c8.13-21.39,12.25-44.71,15.41-67.04c1-7.09,1.2-13.2-2.57-19.65
							C784.51,547.59,783.12,545.84,781.51,544.24z M427.11,329.32c-1.01,0.87-2.03,1.74-3.04,2.6c-0.33,0.09-0.67,0.18-1,0.27
							C424.41,331.34,425.74,330.38,427.11,329.32z M685.7,617.48c-1.8,4.98-3.68,9.93-5.64,14.85c-0.46,1.16-0.93,2.31-1.4,3.47
							c-0.11,0.27-2.35,5.83-0.73,1.8c1.42-3.53-0.1,0.11-0.43,0.82c-0.6,1.27-1.21,2.54-1.87,3.78c-0.62,1.17-2.64,3.46-3.28,5.01
							c0.68-1.45,2.64-2.68-0.01,0.25c-0.05,0.05-0.1,0.1-0.15,0.16c0,0.01-0.01,0.02-0.01,0.02c0-0.01,0-0.01,0.01-0.02
							c-0.73,0.8-1.47,1.58-2.23,2.35c-3.45,3.51-7.07,6.83-10.34,10.51c-6.3,7.08-11.99,14.77-16.71,23
							c-10.23,6.5-19.97,13.75-29.29,21.49c-0.76,0.3-1.51,0.63-2.26,0.99c-9.05,4.36-18.18,8.56-27.39,12.56
							c-1.22,0.53-9.01,4-2.57,1.13c-1.72,0.77-3.48,1.45-5.22,2.17c-4.65,1.91-9.31,3.77-13.99,5.58
							c-8.78,3.4-17.63,6.64-26.53,9.7c-5.87,2.02-12.03,4.56-18.22,6.49c-1.07-0.16-2.15-0.28-3.26-0.31
							c-4.4-0.13-8.44,0.86-11.99,2.66c-1.5-0.97-3.19-1.68-5.07-2.06c-9.05-1.8-17.79-2.42-26.71-1.86
							c-8.44-5.3-17.66-9.14-27.68-10.84c-3.13-0.53-6.42-0.48-9.5,0.25c-2.52-1.31-5.03-2.64-7.53-3.99
							c-7.79-4.22-15.61-8.45-23.17-13.06c-8.49-5.18-12.64-8.1-18.85-13.97c-4.05-3.83-9.87-5.66-15.33-5.03
							c-4.72-5.39-9.68-10.57-14.93-15.46c-2.89-2.69-6.4-4.37-10.04-4.93c-0.44-1.08-0.9-2.17-1.39-3.27
							c-2.06-4.62-6.61-7.38-11.53-8.33c-4.07-6.44-8.13-12.87-12.2-19.31c-4.16-13.17-8.35-26.34-12.55-39.49
							c0-0.46,0-0.92-0.01-1.38c0-0.01,0-0.01,0-0.02c0.1-7.16,0.23-14.3-0.6-21.44c-0.52-4.45-2.26-8.84-5.07-12.18
							c0.09-0.64,0.22-1.59,0.27-1.99c0.76-5.27,1.63-10.52,2.61-15.74c1.09-5.74,2.83-11.75,2.4-17.62
							c-0.54-7.26-3.74-12.92-6.83-19.26c-0.09-0.23-0.2-0.51-0.3-0.8c-0.36-1.08-0.72-2.15-1.03-3.24
							c-0.78-2.74-1.3-5.52-1.68-8.33c-0.3-2.16-1.17-4.1-2.42-5.78c-0.01-0.09-0.02-0.18-0.03-0.28c-0.11-0.94-0.21-1.89-0.29-2.83
							c-0.32-3.41-0.51-6.82-0.59-10.23c0.04-0.26,0.09-0.51,0.12-0.78c0.54-4.37,0.68-8.65,0.42-13.05c0-0.06-0.01-0.11-0.02-0.17
							c0.92-1.44,1.66-3.02,2.17-4.74c2.13-7.19,3.99-14.45,5.59-21.77c2.07-4.05,4.32-8,6.73-11.87c1.07-1.73,1.75-3.65,2.11-5.64
							c3.31-2.85,6.62-5.69,9.93-8.54c1.38-1.18,2.45-2.59,3.26-4.14c1.56-1.76,2.67-3.63,3.37-5.57
							c5.83-1.76,10.97-5.42,13.43-11.11c0.9-2.09,1.72-4.12,2.45-6.14c0.04,0.02,0.08,0.03,0.12,0.05
							c1.99-4.79,3.97-9.58,5.96-14.37c0.62-0.73,1.22-1.5,1.83-2.3c2.51-3.31,4.28-7.86,5.03-12.38c0.79-2.03,1.58-4.05,2.38-6.08
							c0.31-0.79,0.53-1.63,0.7-2.51c1.5-1.9,3-3.79,4.5-5.69c4.77-3.57,9.54-7.13,14.3-10.7c0.22-0.16,0.43-0.33,0.64-0.49
							c3.43,1.74,7.28,2.74,11.33,2.85c1.5,0.04,2.94-0.04,4.34-0.2c7.2,1.36,13.81,1.9,21-0.04c7.08-1.92,12.24-5.52,17.94-9.95
							c1.04-0.81,1.96-1.77,2.77-2.83c7.07-3.65,13.51-8.62,18.59-14.37c1.5-1.7,2.79-3.58,3.86-5.59c0.98,0.41,2,0.72,3.03,0.94
							c1.95,1.15,4.03,1.8,6.27,1.9c1.22,0.27,2.43,0.38,3.65,0.32c15.95,26.91,45.63,43.12,76.79,48.14
							c15.64,2.52,33.4,4.29,47.87-1.68c3.11,3.82,6.89,7.12,11.11,9.64c7.54,4.52,18.12,4.49,25.89,0c2.07,0.1,4.14,0.12,6.2,0.01
							c4.01-0.22,8.11-0.75,12.15-1.64c0.41,0.08,0.81,0.16,1.22,0.23c1.74,0.91,3.58,1.62,5.5,2.1c0.02,1.89,0.2,3.81,0.56,5.77
							c1.17,6.41,3.62,12.09,6.23,18.06c0.87,1.98,2.16,3.76,3.75,5.33c0.36,5.46,1.93,10.92,4.31,16.12
							c2.16,4.71,6.39,8.17,11.31,10.24c0.03,0.18,0.17,0.61,0.5,1.41c1.09,2.62,2.19,5.25,3.25,7.89c1.9,4.68,3.73,9.39,5.44,14.14
							c3.62,10.04,6.73,20.3,8.73,30.8c0.22,1.14,0.42,2.28,0.61,3.43c0.02,0.1,0.04,0.26,0.07,0.45c0.07,0.56,0.14,1.17,0.17,1.43
							c0.12,1.16,0.22,2.32,0.3,3.48c0.35,4.93,0.42,9.88,0.14,14.82c-0.1,1.83-0.4,3.67-0.54,5.5c-0.04,0.19-0.08,0.39-0.11,0.58
							c-1.1,1.24-2.09,2.6-2.92,4.11c-5.11,9.37-7.29,18.17-8.46,28.66c-0.55,4.95,2.02,11.07,5.22,15.4
							c-0.23,0.66-0.44,1.34-0.6,2.02c-1.84,7.64-1.54,13.45-0.27,21.12c0.36,2.17-1.46,4.1-0.47,5.94c-1.85,3.5-0.46,7.6-0.8,11.97
							c-0.05,0.62-0.1,1.25-0.14,1.87C690.69,603.14,688.28,610.34,685.7,617.48z"/>
					</g>
					<path class="st10" d="M672.2,647.56c-0.01,0.02-0.01,0.04-0.02,0.05c0,0,0,0,0,0C672.19,647.59,672.2,647.57,672.2,647.56z"/>
				</g>
				<path class="st10" d="M277.49,456.31c0.03-0.08,0.07-0.17,0.1-0.26C277.56,456.13,277.52,456.22,277.49,456.31z"/>
			</g>
			<path class="st10" d="M277.59,456.05c0.09-0.24,0.19-0.5,0.26-0.74C277.78,455.55,277.68,455.8,277.59,456.05z"/>
		</g>
	</g>
</g>
<g id="귀_x2B_마우스_라인-완">
	<path class="st12" d="M214.9,351.88c0,0-49.76-45.92,3.77-94.83c0,0,31.33-34.33,74.74-11.73"/>
	<g>
		<g>
			<path class="st1" d="M232.14,287.07c9.98,2,13.79,8.84,16.76,17.87c1.6,4.87,9.33,2.78,7.71-2.13
				c-3.81-11.57-9.61-20.9-22.35-23.45C229.24,278.35,227.09,286.06,232.14,287.07L232.14,287.07z"/>
		</g>
	</g>
	<path class="st12" d="M779.44,351.88c0,0,49.76-45.92-3.77-94.83c0,0-29.44-28.52-69.81-9.73"/>
	<g>
		<g>
			<path class="st1" d="M760.07,279.35c-12.74,2.55-18.54,11.89-22.35,23.45c-1.61,4.9,6.11,7,7.71,2.13
				c2.98-9.04,6.78-15.87,16.76-17.87C767.24,286.06,765.1,278.34,760.07,279.35L760.07,279.35z"/>
		</g>
	</g>
</g>
<g id="얼굴_라인-완">
	<g>
		<g>
			<g>
				<path class="st15" d="M300.17,541.4c-0.8,24.58-0.64,49.2,4.68,73.33c4.55,20.67,16.18,39.18,30.89,54.2
					c26.69,27.25,59.95,49.08,95.29,63.2c20.37,8.14,41.71,13.53,63.5,16.11c8.52,1.01,17.44-1.02,25.79-2.59
					c10.68-2.01,21.21-4.77,31.52-8.22c38.26-12.82,71.49-34.91,101.39-61.65c15.69-14.04,29.46-32.01,35.79-52.29
					c8.21-26.28,7.85-54.88,6.96-82.09c-0.21-6.42-10.21-6.45-10,0c0.77,23.67,0.79,47.42-4.32,70.67
					c-4.32,19.63-15.4,36.94-29.54,51.02c-25.32,25.2-56.07,46.27-89.22,59.64c-19.15,7.72-39.58,13.39-60.15,15.58
					c-7.99,0.85-16.21-1.04-24.02-2.55c-9.99-1.93-19.85-4.49-29.52-7.64c-37.13-12.1-69.47-33.06-98.53-58.81
					c-14.69-13.02-27.97-29.5-33.89-48.47c-7.95-25.46-7.47-53.07-6.61-79.43C310.38,534.96,300.38,534.97,300.17,541.4
					L300.17,541.4z"/>
			</g>
		</g>
		<g>
			<g>
				<path class="st15" d="M326.32,404.92c-17.81,13.77-29.46,34.22-34.1,56.12c-4.81,22.69-3.85,48.38,7.48,69.05
					c3.09,5.64,11.73,0.6,8.63-5.05c-10.28-18.75-10.77-42.67-6.08-63.14c4.53-19.76,15.03-37.46,31.13-49.9
					C338.47,408.06,331.35,401.03,326.32,404.92L326.32,404.92z"/>
			</g>
		</g>
		<g>
			<g>
				<path class="st15" d="M665.79,414.61c16.45,12.47,24.13,32.81,26.62,52.72c2.44,19.48,1.91,41.11-7.7,58.63
					c-3.1,5.65,5.54,10.7,8.63,5.05c10.91-19.89,11.73-44.01,8.75-66.09c-3.1-22.96-12.41-44.65-31.25-58.93
					C665.71,402.09,660.72,410.77,665.79,414.61L665.79,414.61z"/>
			</g>
		</g>
		<g>
			<g>
				<path class="st15" d="M343.45,403.65c3.02-15.3,8.4-29.96,17.38-42.8c8.94-12.78,21.19-22.63,34.89-29.92
					c5.68-3.02,0.64-11.66-5.05-8.63c-30.78,16.37-50.16,44.74-56.87,78.69C332.57,407.28,342.21,409.97,343.45,403.65
					L343.45,403.65z"/>
			</g>
		</g>
		<g>
			<g>
				<path class="st15" d="M668.42,437.26c7.21-16.55,6.81-34.17-0.27-50.7c-2.5-5.83-5.67-11.31-9.51-16.36
					c-2.05-2.69-4.71-6.64-7.95-8.07c-5.83-2.57-10.93,6.04-5.05,8.63c0.33,0.15,1.06,0.78,0.12-0.02c0.48,0.41,0.95,0.83,1.37,1.28
					c1.18,1.26,2.33,2.53,3.38,3.89c3.18,4.13,5.85,8.74,8.02,13.47c6.2,13.55,7.27,29.01,1.25,42.82
					C657.24,438.06,665.85,443.15,668.42,437.26L668.42,437.26z"/>
			</g>
		</g>
		<g>
			<g>
				<path class="st15" d="M391.58,346.88c30.71-1.92,60.4-16.95,72.11-46.76c2.35-5.99-7.31-8.59-9.64-2.66
					c-9.96,25.35-36.66,37.81-62.46,39.42C385.19,337.28,385.14,347.28,391.58,346.88L391.58,346.88z"/>
			</g>
		</g>
		<g>
			<g>
				<path class="st15" d="M464.64,310.38c8.99,22.7,30.65,40.01,53,48.51c24.08,9.16,51.94,11.27,76.43,2.76
					c6.04-2.1,3.44-11.76-2.66-9.64c-22.01,7.65-45.93,5.91-67.81-1.57c-20.02-6.84-41.29-22.45-49.32-42.71
					C471.94,301.8,462.26,304.38,464.64,310.38L464.64,310.38z"/>
			</g>
		</g>
		<path class="st16" d="M555.41,324.62c0,0,20.91,46.65,112.44,41.42"/>
		<g>
			<g>
				<path class="st15" d="M276.33,288.11c9.55-27.82,27.72-52.74,51.64-69.94c26.52-19.07,58.56-28.56,91.11-28.46
					c6.44,0.02,6.44-9.98,0-10c-34.68-0.1-69.36,10.1-97.42,30.75c-25.54,18.78-44.69,45.03-54.97,75
					C264.6,291.55,274.25,294.17,276.33,288.11L276.33,288.11z"/>
			</g>
		</g>
		<path class="st16" d="M422.78,151.91c0,0-6.16,34.28,14.28,46.03"/>
		<g>
			<g>
				<path class="st15" d="M419.17,155.4c5.97,14.04,14.89,26.25,29,32.9c14.71,6.93,31.14,7.27,46.7,3.18
					c6.22-1.63,3.58-11.28-2.66-9.64c-13.37,3.51-27.85,3.48-40.4-2.86c-11.98-6.05-18.88-16.58-24-28.62
					C425.3,144.45,416.68,149.54,419.17,155.4L419.17,155.4z"/>
			</g>
		</g>
		<g>
			<g>
				<path class="st15" d="M453.08,181.5c18.33-15.56,42.56-21.16,66.11-18.1c23.2,3.02,43.16,14.49,61.62,28.28
					c5.16,3.85,10.15-4.82,5.05-8.63c-20.53-15.33-42.63-27-68.41-29.85c-25.74-2.85-51.59,4.39-71.43,21.23
					C441.1,178.6,448.2,185.64,453.08,181.5L453.08,181.5z"/>
			</g>
		</g>
		<g>
			<g>
				<path class="st15" d="M586.02,192.27c31.26-2.79,63.41,6.34,87.79,26.36c23.14,19.01,38.32,46.17,43,75.68
					c1,6.34,10.64,3.65,9.64-2.66c-4.99-31.5-21.87-61.11-46.8-81.09c-26.22-21.01-60.16-31.28-93.63-28.3
					C579.66,182.84,579.6,192.85,586.02,192.27L586.02,192.27z"/>
			</g>
		</g>
		<g>
			<g>
				<path class="st15" d="M727.7,308.94c22.32,11.43,40.07,31.66,49.04,55.08c8.47,22.11,11.62,48.75,6.6,72.03
					c-1.35,6.27,8.28,8.96,9.64,2.66c5.47-25.37,2.49-54.62-7.12-78.67c-10.1-25.26-28.78-47.26-53.12-59.73
					C727.03,297.38,721.96,306.01,727.7,308.94L727.7,308.94z"/>
			</g>
		</g>
		<g>
			<g>
				<path class="st15" d="M771.52,429.88c32.25,32.29,28.77,91.78-2,123.63c-4.47,4.63,2.59,11.71,7.07,7.07
					c34.53-35.75,38.13-101.6,2-137.78C774.04,418.25,766.97,425.32,771.52,429.88L771.52,429.88z"/>
			</g>
		</g>
		<g>
			<g>
				<path class="st15" d="M770.72,505.06c5.12,18.6-1.8,38.1-17.82,48.93c-4.24,2.87-0.24,9.8,4.04,6.91
					c19-12.84,27.61-35.77,21.5-57.96C777.07,497.97,769.35,500.08,770.72,505.06L770.72,505.06z"/>
			</g>
		</g>
		<g>
			<g>
				<path class="st15" d="M325.17,738.43c-27.93-10.42-54.76-25.49-73.82-48.91c-15.43-18.96-23.79-42.29-28.23-66.08
					c-2.65-14.21-3.96-28.62-4.86-43.03c-0.4-6.39-10.4-6.44-10,0c1.67,26.61,4.64,53.76,14.42,78.77
					c9.89,25.32,26.51,46.49,48.5,62.45c15.66,11.37,33.27,19.69,51.34,26.44C328.54,750.33,331.15,740.66,325.17,738.43
					L325.17,738.43z"/>
			</g>
		</g>
		<g>
			<g>
				<path class="st15" d="M430.58,214.61c-3.29,9.86-3.97,21.15-2.7,31.39c2.69,21.65,16.3,38.24,36.14,46.91
					c4.67,2.04,8.75-4.85,4.04-6.91c-18.1-7.91-30.67-22.6-32.47-42.62c-0.79-8.78-0.11-18.23,2.7-26.65
					C439.92,211.84,432.2,209.74,430.58,214.61L430.58,214.61z"/>
			</g>
		</g>
		<g>
			<g>
				<path class="st15" d="M455.06,249.1c-1.31,15.47,7.16,29.95,21.39,36.21c4.67,2.05,8.74-4.84,4.04-6.91
					c-11.89-5.23-18.53-16.33-17.42-29.31C463.49,243.97,455.49,244,455.06,249.1L455.06,249.1z"/>
			</g>
		</g>
		<g>
			<g>
				<path class="st15" d="M259.88,294.93c-23.03,15.71-42.13,37.69-53.63,63.16c-11.63,25.74-14.4,54.41-7.77,81.91
					c3.42,14.2,9.43,27.62,18.42,39.16c3.95,5.07,10.98-2.05,7.07-7.07c-19.27-24.74-23.37-61.47-15.43-91.13
					c8.4-31.34,29.75-59.23,56.39-77.4C270.21,299.96,265.21,291.29,259.88,294.93L259.88,294.93z"/>
			</g>
		</g>
		<g>
			<g>
				<path class="st15" d="M224.3,419.81c-10.32,16.79-5.75,41.23,6.21,55.97c3.24,4,8.87-1.69,5.66-5.66
					c-9.71-11.97-13.27-32.75-4.95-46.28C233.91,419.45,227,415.42,224.3,419.81L224.3,419.81z"/>
			</g>
		</g>
		<g>
			<g>
				<path class="st15" d="M308.04,707.19c6.95,20.04,13.79,39.42,27.45,56.05c15.65,19.06,37.32,33.59,59.97,43.07
					c14.91,6.24,30.57,9.99,46.69,11.14c6.42,0.46,6.39-9.54,0-10c-30.95-2.21-60.89-15.67-84.35-35.81
					c-11.25-9.66-20.65-21.03-27.42-34.26c-5.37-10.49-8.86-21.75-12.71-32.85C315.59,698.48,305.93,701.08,308.04,707.19
					L308.04,707.19z"/>
			</g>
		</g>
		<g>
			<g>
				<path class="st15" d="M203.6,460.61c-27.17,41.83-17.25,105.4,20.91,137.59c4.89,4.13,12-2.91,7.07-7.07
					c-34.9-29.45-44.26-87.12-19.34-125.47C215.76,460.24,207.1,455.22,203.6,460.61L203.6,460.61z"/>
			</g>
		</g>
		<g>
			<g>
				<path class="st15" d="M219.41,538.48c-3.31,19.38,2.69,43.28,20.11,54.31c4.36,2.76,8.38-4.16,4.04-6.91
					c-14.12-8.94-19.1-29.61-16.43-45.28C227.98,535.57,220.28,533.41,219.41,538.48L219.41,538.48z"/>
			</g>
		</g>
		<g>
			<g>
				<path class="st15" d="M240.07,552.27c-1.79,13.25-1.11,27.91,9.98,37.1c3.94,3.26,9.63-2.37,5.66-5.66
					c-8.78-7.27-9.36-18.75-7.93-29.31C248.47,549.36,240.76,547.18,240.07,552.27L240.07,552.27z"/>
			</g>
		</g>
		<g>
			<g>
				<path class="st15" d="M381.34,754.05c6.6,25.89,23.66,48.43,48.6,58.92c12.36,5.2,25.72,7.25,38.24,11.99
					c11.12,4.2,22.18,9.49,27,21.06c2.44,5.85,12.12,3.29,9.64-2.66c-10.16-24.41-37.6-29.16-60.43-35.88
					c-13.33-3.92-25.28-10.36-34.77-20.65c-9.2-9.98-15.31-22.35-18.65-35.44C389.39,745.16,379.74,747.8,381.34,754.05
					L381.34,754.05z"/>
			</g>
		</g>
		<g>
			<g>
				<path class="st15" d="M288.05,695.57c5.25,19.8,13.94,40.96,33.94,49.79c5.83,2.58,10.93-6.04,5.05-8.63
					c-17.71-7.82-24.71-26.32-29.35-43.81C296.04,686.7,286.39,689.33,288.05,695.57L288.05,695.57z"/>
			</g>
		</g>
		<g>
			<g>
				<path class="st15" d="M677.52,747.57c32.8-15.23,63.97-35.92,84.39-66.39c17.1-25.51,24.41-55.63,27.47-85.83
					c1.69-16.7,2.03-34.08-2.44-50.42c-1.7-6.2-11.35-3.57-9.64,2.66c3.67,13.41,3.8,27.83,2.65,41.61
					c-1.25,14.91-3.43,29.76-7.42,44.2c-7.84,28.39-23.41,53-45.82,72.16c-16.2,13.85-34.97,24.45-54.24,33.39
					C666.64,741.64,671.72,750.26,677.52,747.57L677.52,747.57z"/>
			</g>
		</g>
		<g>
			<g>
				<path class="st15" d="M681.15,704.53c-3.85,11.1-7.34,22.36-12.71,32.85c-6.77,13.22-16.17,24.59-27.42,34.26
					c-23.45,20.15-53.4,33.6-84.35,35.81c-6.38,0.46-6.43,10.46,0,10c49-3.5,100.57-33.07,122.05-78.38
					c4.88-10.3,8.34-21.14,12.06-31.88C692.9,701.09,683.25,698.47,681.15,704.53L681.15,704.53z"/>
			</g>
		</g>
		<g>
			<g>
				<path class="st15" d="M607.86,751.4c-3.27,12.83-9.2,24.99-18.12,34.87c-9.57,10.59-21.7,17.22-35.29,21.22
					c-12.82,3.77-25.68,6.74-37.74,12.71c-10.34,5.11-17.14,12.55-21.52,23.17c-2.45,5.94,7.22,8.53,9.64,2.66
					c9.98-24.15,43.2-24.26,64.08-33.05c24.94-10.49,42-33.03,48.6-58.92C619.09,747.81,609.45,745.15,607.86,751.4L607.86,751.4z"
					/>
			</g>
		</g>
		<g>
			<g>
				<path class="st15" d="M701.14,692.91c-4.64,17.5-11.64,35.99-29.35,43.81c-5.87,2.59-0.79,11.21,5.05,8.63
					c20-8.83,28.69-29.99,33.94-49.79C712.44,689.34,702.8,686.69,701.14,692.91L701.14,692.91z"/>
			</g>
		</g>
	</g>
</g>
<g id="눈코입-완">
	<g>
		<path class="st17" d="M460.93,573.94c-1.1-5.03,1.11-10.2,5.5-12.91c5.7-3.53,16.06-7.34,34.19-7.34c18.12,0,28.03,3.8,33.31,7.33
			c3.92,2.62,5.98,7.26,5.28,11.91c-1.52,10.16-8.01,29.62-38.6,29.62C471.37,602.55,463.21,584.33,460.93,573.94z"/>
		<g>
			<g>
				<path class="st17" d="M491.5,564.16c0,27.31,0,54.62,0,81.93c0,10.94,17,10.96,17,0c0-27.31,0-54.62,0-81.93
					C508.5,553.22,491.5,553.2,491.5,564.16L491.5,564.16z"/>
			</g>
		</g>
	</g>
	<g>
		<g>
			<g>
				<path class="st17" d="M552.47,459.8c15.15-4.08,30.29-8.15,45.44-12.23c7.45-2,4.29-13.58-3.19-11.57
					c-15.15,4.08-30.29,8.15-45.44,12.23C541.83,450.23,544.99,461.81,552.47,459.8L552.47,459.8z"/>
			</g>
		</g>
		<g>
			<g>
				<path class="st17" d="M450.72,448.23c-15.15-4.08-30.29-8.15-45.44-12.23c-7.47-2.01-10.65,9.56-3.19,11.57
					c15.15,4.08,30.29,8.15,45.44,12.23C455,461.81,458.19,450.23,450.72,448.23L450.72,448.23z"/>
			</g>
		</g>
	</g>
	<g>
		<circle class="st17" cx="426.41" cy="510.13" r="24.11"/>
		<circle class="st8" cx="437.52" cy="502.05" r="4.99"/>
		<circle class="st17" cx="573.59" cy="510.13" r="24.11"/>
		<circle class="st8" cx="584.7" cy="502.05" r="4.99"/>
	</g>
	<circle class="st8" cx="528.61" cy="568.86" r="4.1"/>
</g>
<g id="선글라스-완">
</g>
<g id="머리띠-완">
</g>
<g id="돋보기_유리-완">
</g>
<g id="돋보기_채색-완">
</g>
<g id="돋보기_느낌표_라인-완">
</g>
<g id="부끄러운_표정-완">
</g>
<g id="피곤한_표정-완">
</g>
<g id="볼따구-완">
</g>
<g id="윙크_표정">
</g>
<g id="손채색-완">
</g>
<g id="몸통_커피_라인-완">
</g>
<g id="팻말_노트북-완">
</g>
<g id="디테일-완">
</g>
<g id="커피디테일-완">
</g>
</svg>
